<svg xmlns="http://www.w3.org/2000/svg" xmlns:xlink="http://www.w3.org/1999/xlink" width="500" zoomAndPan="magnify" viewBox="0 0 375 374.999991" height="500" preserveAspectRatio="xMidYMid meet" version="1.0"><defs><g/><clipPath id="5332e7b16e"><path d="M 13.101562 97.144531 L 362.347656 97.144531 L 362.347656 277.894531 L 13.101562 277.894531 Z M 13.101562 97.144531 " clip-rule="nonzero"/></clipPath><clipPath id="e281471ff2"><path d="M 13.429688 187.648438 C 13.429688 237.566406 91.46875 278.035156 187.726562 278.035156 C 283.980469 278.035156 362.019531 237.566406 362.019531 187.648438 C 362.019531 137.730469 283.980469 97.261719 187.726562 97.261719 C 91.46875 97.261719 13.429688 137.730469 13.429688 187.648438 " clip-rule="nonzero"/></clipPath><clipPath id="4d0b880510"><path d="M 13.429688 187.648438 C 13.429688 237.566406 91.46875 278.035156 187.726562 278.035156 C 283.980469 278.035156 362.019531 237.566406 362.019531 187.648438 C 362.019531 137.730469 283.980469 97.261719 187.726562 97.261719 C 91.46875 97.261719 13.429688 137.730469 13.429688 187.648438 " clip-rule="nonzero"/></clipPath><radialGradient gradientTransform="matrix(1.007142, 0, 0, 0.992858, 118.07773, 129.037977)" gradientUnits="userSpaceOnUse" r="227.252695" cx="0" id="23a77d5e91" cy="0" fx="0" fy="0"><stop stop-opacity="1" stop-color="rgb(68.199158%, 69.799805%, 83.499146%)" offset="0"/><stop stop-opacity="1" stop-color="rgb(68.199158%, 69.799805%, 83.499146%)" offset="0.25"/><stop stop-opacity="1" stop-color="rgb(68.164062%, 69.764709%, 83.473206%)" offset="0.296875"/><stop stop-opacity="1" stop-color="rgb(67.956543%, 69.555664%, 83.317566%)" offset="0.300781"/><stop stop-opacity="1" stop-color="rgb(67.608643%, 69.20929%, 83.059692%)" offset="0.304688"/><stop stop-opacity="1" stop-color="rgb(67.260742%, 68.861389%, 82.800293%)" offset="0.308594"/><stop stop-opacity="1" stop-color="rgb(66.914368%, 68.513489%, 82.542419%)" offset="0.3125"/><stop stop-opacity="1" stop-color="rgb(66.566467%, 68.167114%, 82.28302%)" offset="0.316406"/><stop stop-opacity="1" stop-color="rgb(66.220093%, 67.819214%, 82.025146%)" offset="0.320312"/><stop stop-opacity="1" stop-color="rgb(65.872192%, 67.472839%, 81.765747%)" offset="0.324219"/><stop stop-opacity="1" stop-color="rgb(65.525818%, 67.124939%, 81.506348%)" offset="0.328125"/><stop stop-opacity="1" stop-color="rgb(65.177917%, 66.778564%, 81.248474%)" offset="0.332031"/><stop stop-opacity="1" stop-color="rgb(64.831543%, 66.430664%, 80.989075%)" offset="0.335938"/><stop stop-opacity="1" stop-color="rgb(64.483643%, 66.08429%, 80.731201%)" offset="0.339844"/><stop stop-opacity="1" stop-color="rgb(64.135742%, 65.736389%, 80.471802%)" offset="0.34375"/><stop stop-opacity="1" stop-color="rgb(63.789368%, 65.388489%, 80.213928%)" offset="0.347656"/><stop stop-opacity="1" stop-color="rgb(63.441467%, 65.042114%, 79.954529%)" offset="0.351562"/><stop stop-opacity="1" stop-color="rgb(63.095093%, 64.694214%, 79.696655%)" offset="0.355469"/><stop stop-opacity="1" stop-color="rgb(62.747192%, 64.347839%, 79.437256%)" offset="0.359375"/><stop stop-opacity="1" stop-color="rgb(62.400818%, 63.999939%, 79.179382%)" offset="0.363281"/><stop stop-opacity="1" stop-color="rgb(62.052917%, 63.653564%, 78.919983%)" offset="0.367188"/><stop stop-opacity="1" stop-color="rgb(61.706543%, 63.305664%, 78.662109%)" offset="0.371094"/><stop stop-opacity="1" stop-color="rgb(61.358643%, 62.95929%, 78.40271%)" offset="0.375"/><stop stop-opacity="1" stop-color="rgb(61.010742%, 62.611389%, 78.144836%)" offset="0.378906"/><stop stop-opacity="1" stop-color="rgb(60.664368%, 62.263489%, 77.885437%)" offset="0.382812"/><stop stop-opacity="1" stop-color="rgb(60.316467%, 61.917114%, 77.627563%)" offset="0.386719"/><stop stop-opacity="1" stop-color="rgb(59.970093%, 61.569214%, 77.368164%)" offset="0.390625"/><stop stop-opacity="1" stop-color="rgb(59.622192%, 61.222839%, 77.108765%)" offset="0.394531"/><stop stop-opacity="1" stop-color="rgb(59.275818%, 60.874939%, 76.850891%)" offset="0.398438"/><stop stop-opacity="1" stop-color="rgb(58.927917%, 60.528564%, 76.591492%)" offset="0.402344"/><stop stop-opacity="1" stop-color="rgb(58.581543%, 60.180664%, 76.333618%)" offset="0.40625"/><stop stop-opacity="1" stop-color="rgb(58.233643%, 59.83429%, 76.074219%)" offset="0.410156"/><stop stop-opacity="1" stop-color="rgb(57.885742%, 59.486389%, 75.816345%)" offset="0.414062"/><stop stop-opacity="1" stop-color="rgb(57.539368%, 59.138489%, 75.556946%)" offset="0.417969"/><stop stop-opacity="1" stop-color="rgb(57.191467%, 58.792114%, 75.299072%)" offset="0.421875"/><stop stop-opacity="1" stop-color="rgb(56.845093%, 58.444214%, 75.039673%)" offset="0.425781"/><stop stop-opacity="1" stop-color="rgb(56.497192%, 58.097839%, 74.781799%)" offset="0.429688"/><stop stop-opacity="1" stop-color="rgb(56.150818%, 57.749939%, 74.5224%)" offset="0.433594"/><stop stop-opacity="1" stop-color="rgb(55.802917%, 57.403564%, 74.264526%)" offset="0.4375"/><stop stop-opacity="1" stop-color="rgb(55.456543%, 57.055664%, 74.005127%)" offset="0.441406"/><stop stop-opacity="1" stop-color="rgb(55.108643%, 56.70929%, 73.747253%)" offset="0.445312"/><stop stop-opacity="1" stop-color="rgb(54.760742%, 56.361389%, 73.487854%)" offset="0.449219"/><stop stop-opacity="1" stop-color="rgb(54.414368%, 56.013489%, 73.22998%)" offset="0.453125"/><stop stop-opacity="1" stop-color="rgb(54.066467%, 55.667114%, 72.970581%)" offset="0.457031"/><stop stop-opacity="1" stop-color="rgb(53.720093%, 55.319214%, 72.711182%)" offset="0.460938"/><stop stop-opacity="1" stop-color="rgb(53.372192%, 54.972839%, 72.453308%)" offset="0.464844"/><stop stop-opacity="1" stop-color="rgb(53.025818%, 54.624939%, 72.193909%)" offset="0.46875"/><stop stop-opacity="1" stop-color="rgb(52.677917%, 54.278564%, 71.936035%)" offset="0.472656"/><stop stop-opacity="1" stop-color="rgb(52.331543%, 53.930664%, 71.676636%)" offset="0.476562"/><stop stop-opacity="1" stop-color="rgb(51.983643%, 53.58429%, 71.418762%)" offset="0.480469"/><stop stop-opacity="1" stop-color="rgb(51.635742%, 53.236389%, 71.159363%)" offset="0.484375"/><stop stop-opacity="1" stop-color="rgb(51.289368%, 52.888489%, 70.901489%)" offset="0.488281"/><stop stop-opacity="1" stop-color="rgb(50.941467%, 52.542114%, 70.64209%)" offset="0.492188"/><stop stop-opacity="1" stop-color="rgb(50.595093%, 52.194214%, 70.384216%)" offset="0.496094"/><stop stop-opacity="1" stop-color="rgb(50.247192%, 51.847839%, 70.124817%)" offset="0.5"/><stop stop-opacity="1" stop-color="rgb(49.900818%, 51.499939%, 69.866943%)" offset="0.503906"/><stop stop-opacity="1" stop-color="rgb(49.552917%, 51.153564%, 69.607544%)" offset="0.507812"/><stop stop-opacity="1" stop-color="rgb(49.206543%, 50.805664%, 69.34967%)" offset="0.511719"/><stop stop-opacity="1" stop-color="rgb(48.858643%, 50.45929%, 69.090271%)" offset="0.515625"/><stop stop-opacity="1" stop-color="rgb(48.510742%, 50.111389%, 68.832397%)" offset="0.519531"/><stop stop-opacity="1" stop-color="rgb(48.164368%, 49.763489%, 68.572998%)" offset="0.523438"/><stop stop-opacity="1" stop-color="rgb(47.816467%, 49.417114%, 68.313599%)" offset="0.527344"/><stop stop-opacity="1" stop-color="rgb(47.470093%, 49.069214%, 68.055725%)" offset="0.53125"/><stop stop-opacity="1" stop-color="rgb(47.122192%, 48.722839%, 67.796326%)" offset="0.535156"/><stop stop-opacity="1" stop-color="rgb(46.775818%, 48.374939%, 67.538452%)" offset="0.539062"/><stop stop-opacity="1" stop-color="rgb(46.427917%, 48.028564%, 67.279053%)" offset="0.542969"/><stop stop-opacity="1" stop-color="rgb(46.081543%, 47.680664%, 67.021179%)" offset="0.546875"/><stop stop-opacity="1" stop-color="rgb(45.733643%, 47.33429%, 66.76178%)" offset="0.550781"/><stop stop-opacity="1" stop-color="rgb(45.385742%, 46.986389%, 66.503906%)" offset="0.554688"/><stop stop-opacity="1" stop-color="rgb(45.039368%, 46.638489%, 66.244507%)" offset="0.558594"/><stop stop-opacity="1" stop-color="rgb(44.691467%, 46.292114%, 65.986633%)" offset="0.5625"/><stop stop-opacity="1" stop-color="rgb(44.345093%, 45.944214%, 65.727234%)" offset="0.566406"/><stop stop-opacity="1" stop-color="rgb(43.997192%, 45.597839%, 65.46936%)" offset="0.570312"/><stop stop-opacity="1" stop-color="rgb(43.650818%, 45.249939%, 65.209961%)" offset="0.574219"/><stop stop-opacity="1" stop-color="rgb(43.302917%, 44.903564%, 64.952087%)" offset="0.578125"/><stop stop-opacity="1" stop-color="rgb(42.956543%, 44.555664%, 64.692688%)" offset="0.582031"/><stop stop-opacity="1" stop-color="rgb(42.608643%, 44.20929%, 64.434814%)" offset="0.585938"/><stop stop-opacity="1" stop-color="rgb(42.260742%, 43.861389%, 64.175415%)" offset="0.589844"/><stop stop-opacity="1" stop-color="rgb(41.914368%, 43.513489%, 63.916016%)" offset="0.59375"/><stop stop-opacity="1" stop-color="rgb(41.566467%, 43.167114%, 63.658142%)" offset="0.597656"/><stop stop-opacity="1" stop-color="rgb(41.220093%, 42.819214%, 63.398743%)" offset="0.601562"/><stop stop-opacity="1" stop-color="rgb(40.872192%, 42.472839%, 63.140869%)" offset="0.605469"/><stop stop-opacity="1" stop-color="rgb(40.525818%, 42.124939%, 62.88147%)" offset="0.609375"/><stop stop-opacity="1" stop-color="rgb(40.177917%, 41.778564%, 62.623596%)" offset="0.613281"/><stop stop-opacity="1" stop-color="rgb(39.831543%, 41.430664%, 62.364197%)" offset="0.617188"/><stop stop-opacity="1" stop-color="rgb(39.483643%, 41.08429%, 62.106323%)" offset="0.621094"/><stop stop-opacity="1" stop-color="rgb(39.135742%, 40.736389%, 61.846924%)" offset="0.625"/><stop stop-opacity="1" stop-color="rgb(38.789368%, 40.388489%, 61.58905%)" offset="0.628906"/><stop stop-opacity="1" stop-color="rgb(38.441467%, 40.042114%, 61.329651%)" offset="0.632812"/><stop stop-opacity="1" stop-color="rgb(38.095093%, 39.694214%, 61.071777%)" offset="0.636719"/><stop stop-opacity="1" stop-color="rgb(37.747192%, 39.347839%, 60.812378%)" offset="0.640625"/><stop stop-opacity="1" stop-color="rgb(37.400818%, 38.999939%, 60.554504%)" offset="0.644531"/><stop stop-opacity="1" stop-color="rgb(37.052917%, 38.653564%, 60.295105%)" offset="0.648438"/><stop stop-opacity="1" stop-color="rgb(36.706543%, 38.305664%, 60.037231%)" offset="0.652344"/><stop stop-opacity="1" stop-color="rgb(36.358643%, 37.95929%, 59.777832%)" offset="0.65625"/><stop stop-opacity="1" stop-color="rgb(36.010742%, 37.611389%, 59.518433%)" offset="0.660156"/><stop stop-opacity="1" stop-color="rgb(35.664368%, 37.263489%, 59.260559%)" offset="0.664062"/><stop stop-opacity="1" stop-color="rgb(35.316467%, 36.917114%, 59.00116%)" offset="0.667969"/><stop stop-opacity="1" stop-color="rgb(34.970093%, 36.569214%, 58.743286%)" offset="0.671875"/><stop stop-opacity="1" stop-color="rgb(34.622192%, 36.222839%, 58.483887%)" offset="0.675781"/><stop stop-opacity="1" stop-color="rgb(34.275818%, 35.874939%, 58.226013%)" offset="0.679688"/><stop stop-opacity="1" stop-color="rgb(33.927917%, 35.528564%, 57.966614%)" offset="0.683594"/><stop stop-opacity="1" stop-color="rgb(33.581543%, 35.180664%, 57.70874%)" offset="0.6875"/><stop stop-opacity="1" stop-color="rgb(33.233643%, 34.83429%, 57.449341%)" offset="0.691406"/><stop stop-opacity="1" stop-color="rgb(32.885742%, 34.486389%, 57.191467%)" offset="0.695312"/><stop stop-opacity="1" stop-color="rgb(32.539368%, 34.138489%, 56.932068%)" offset="0.699219"/><stop stop-opacity="1" stop-color="rgb(32.191467%, 33.792114%, 56.674194%)" offset="0.703125"/><stop stop-opacity="1" stop-color="rgb(31.845093%, 33.444214%, 56.414795%)" offset="0.707031"/><stop stop-opacity="1" stop-color="rgb(31.497192%, 33.097839%, 56.156921%)" offset="0.710938"/><stop stop-opacity="1" stop-color="rgb(31.150818%, 32.749939%, 55.897522%)" offset="0.714844"/><stop stop-opacity="1" stop-color="rgb(30.802917%, 32.403564%, 55.639648%)" offset="0.71875"/><stop stop-opacity="1" stop-color="rgb(30.456543%, 32.055664%, 55.380249%)" offset="0.722656"/><stop stop-opacity="1" stop-color="rgb(30.108643%, 31.70929%, 55.122375%)" offset="0.726562"/><stop stop-opacity="1" stop-color="rgb(29.760742%, 31.361389%, 54.862976%)" offset="0.730469"/><stop stop-opacity="1" stop-color="rgb(29.414368%, 31.013489%, 54.603577%)" offset="0.734375"/><stop stop-opacity="1" stop-color="rgb(29.066467%, 30.667114%, 54.345703%)" offset="0.738281"/><stop stop-opacity="1" stop-color="rgb(28.720093%, 30.319214%, 54.086304%)" offset="0.742188"/><stop stop-opacity="1" stop-color="rgb(28.372192%, 29.972839%, 53.82843%)" offset="0.746094"/><stop stop-opacity="1" stop-color="rgb(28.199768%, 29.798889%, 53.69873%)" offset="1"/></radialGradient><clipPath id="b78c4a7fa0"><path d="M 335 327.136719 L 340 327.136719 L 340 332 L 335 332 Z M 335 327.136719 " clip-rule="nonzero"/></clipPath><clipPath id="f4acc914ee"><path d="M 337.613281 355.820312 L 339.933594 355.820312 L 339.933594 357.414062 L 337.613281 357.414062 Z M 337.613281 355.820312 " clip-rule="nonzero"/></clipPath><clipPath id="447b457f10"><path d="M 346.863281 344.246094 L 349.097656 344.246094 L 349.097656 345.488281 L 346.863281 345.488281 Z M 346.863281 344.246094 " clip-rule="nonzero"/></clipPath><clipPath id="147a86d23f"><path d="M 335 355 L 338 355 L 338 357.414062 L 335 357.414062 Z M 335 355 " clip-rule="nonzero"/></clipPath><clipPath id="a6b67d2aff"><path d="M 325.851562 344 L 329 344 L 329 346 L 325.851562 346 Z M 325.851562 344 " clip-rule="nonzero"/></clipPath></defs><rect x="-37.5" width="450" fill="#ffffff" y="-37.499999" height="449.999989" fill-opacity="1"/><rect x="-37.5" width="450" fill="#ffffff" y="-37.499999" height="449.999989" fill-opacity="1"/><g clip-path="url(#5332e7b16e)"><g clip-path="url(#e281471ff2)"><g clip-path="url(#4d0b880510)"><path fill="url(#23a77d5e91)" d="M 13.429688 97.261719 L 13.429688 277.894531 L 362.019531 277.894531 L 362.019531 97.261719 Z M 13.429688 97.261719 " fill-rule="nonzero"/></g></g></g><path fill="#777bb3" d="M 187.726562 271.324219 C 280.226562 271.324219 355.210938 233.859375 355.210938 187.648438 C 355.210938 141.4375 280.226562 103.972656 187.726562 103.972656 C 95.226562 103.972656 20.238281 141.4375 20.238281 187.648438 C 20.238281 233.859375 95.226562 271.324219 187.726562 271.324219 " fill-opacity="1" fill-rule="nonzero"/><path fill="#000000" d="M 108.125 198.019531 C 115.730469 198.019531 121.40625 196.636719 125 193.914062 C 128.554688 191.214844 131.007812 186.542969 132.296875 180.019531 C 133.496094 173.925781 133.039062 169.671875 130.9375 167.375 C 128.789062 165.03125 124.144531 163.839844 117.136719 163.839844 L 104.980469 163.839844 L 98.242188 198.019531 Z M 68.371094 240.128906 C 67.804688 240.128906 67.269531 239.878906 66.910156 239.449219 C 66.535156 238.996094 66.402344 238.480469 66.515625 237.90625 L 84.371094 147.328125 C 84.414062 147.117188 84.492188 146.917969 84.605469 146.730469 C 84.714844 146.546875 84.855469 146.382812 85.027344 146.246094 C 85.195312 146.109375 85.382812 146.003906 85.589844 145.929688 C 85.796875 145.855469 86.007812 145.820312 86.230469 145.820312 L 124.71875 145.820312 C 136.8125 145.820312 145.816406 149.050781 151.476562 155.445312 C 157.167969 161.863281 158.921875 170.839844 156.699219 182.117188 C 155.792969 186.714844 154.234375 190.980469 152.070312 194.800781 C 149.902344 198.628906 147.039062 202.167969 143.554688 205.324219 C 139.382812 209.171875 134.664062 211.960938 129.535156 213.605469 C 124.492188 215.222656 118.011719 216.046875 110.277344 216.046875 L 94.695312 216.046875 L 90.242188 238.621094 C 90.203125 238.832031 90.125 239.03125 90.011719 239.214844 C 89.898438 239.402344 89.757812 239.566406 89.589844 239.703125 C 89.421875 239.839844 89.234375 239.945312 89.027344 240.019531 C 88.820312 240.089844 88.605469 240.128906 88.386719 240.128906 L 68.367188 240.128906 Z M 68.371094 240.128906 " fill-opacity="1" fill-rule="nonzero"/><path fill="#ffffff" d="M 106.542969 165.703125 L 117.136719 165.703125 C 125.597656 165.703125 128.535156 167.535156 129.535156 168.625 C 131.191406 170.4375 131.503906 174.253906 130.441406 179.667969 C 129.242188 185.726562 127.027344 190.023438 123.847656 192.433594 C 120.59375 194.90625 115.300781 196.15625 108.125 196.15625 L 100.542969 196.15625 Z M 124.714844 143.953125 L 86.230469 143.953125 C 85.789062 143.953125 85.363281 144.027344 84.953125 144.171875 C 84.539062 144.320312 84.164062 144.53125 83.824219 144.804688 C 83.484375 145.082031 83.203125 145.402344 82.980469 145.777344 C 82.753906 146.148438 82.601562 146.546875 82.515625 146.96875 L 64.660156 237.554688 C 64.605469 237.824219 64.582031 238.097656 64.589844 238.371094 C 64.597656 238.648438 64.636719 238.917969 64.707031 239.183594 C 64.773438 239.449219 64.871094 239.707031 65 239.953125 C 65.125 240.195312 65.277344 240.425781 65.453125 240.636719 C 65.632812 240.851562 65.832031 241.039062 66.050781 241.210938 C 66.269531 241.378906 66.507812 241.519531 66.757812 241.640625 C 67.011719 241.757812 67.273438 241.84375 67.546875 241.90625 C 67.816406 241.964844 68.09375 241.996094 68.371094 241.996094 L 88.386719 241.996094 C 88.828125 241.996094 89.253906 241.921875 89.664062 241.777344 C 90.078125 241.628906 90.453125 241.417969 90.792969 241.144531 C 91.132812 240.867188 91.414062 240.542969 91.636719 240.171875 C 91.863281 239.800781 92.015625 239.402344 92.101562 238.976562 L 96.253906 217.914062 L 110.28125 217.914062 C 118.210938 217.914062 124.890625 217.0625 130.125 215.378906 C 135.507812 213.65625 140.464844 210.730469 144.847656 206.6875 C 148.472656 203.398438 151.46875 199.707031 153.722656 195.714844 C 155.980469 191.722656 157.613281 187.265625 158.558594 182.476562 C 160.898438 170.605469 158.996094 161.097656 152.902344 154.222656 C 146.867188 147.410156 137.386719 143.957031 124.71875 143.957031 M 95.953125 199.890625 L 108.128906 199.890625 C 116.195312 199.890625 122.207031 198.394531 126.15625 195.394531 C 130.105469 192.398438 132.773438 187.394531 134.15625 180.382812 C 135.480469 173.652344 134.878906 168.898438 132.347656 166.132812 C 129.816406 163.363281 124.746094 161.980469 117.140625 161.980469 L 103.425781 161.980469 L 95.953125 199.890625 M 124.722656 147.6875 C 136.300781 147.6875 144.746094 150.683594 150.054688 156.671875 C 155.363281 162.664062 156.964844 171.027344 154.84375 181.765625 C 153.972656 186.1875 152.5 190.230469 150.421875 193.894531 C 148.347656 197.558594 145.628906 200.914062 142.277344 203.953125 C 138.28125 207.640625 133.839844 210.269531 128.953125 211.835938 C 124.070312 213.402344 117.847656 214.183594 110.28125 214.183594 L 93.136719 214.183594 L 88.390625 238.265625 L 68.375 238.265625 L 86.234375 147.695312 L 124.722656 147.695312 " fill-opacity="1" fill-rule="nonzero"/><path fill="#000000" d="M 202.589844 216.042969 C 202.023438 216.042969 201.488281 215.792969 201.132812 215.363281 C 200.773438 214.933594 200.625 214.371094 200.734375 213.824219 L 208.632812 173.746094 C 209.382812 169.933594 209.199219 167.199219 208.113281 166.042969 C 207.445312 165.335938 205.445312 164.148438 199.535156 164.148438 L 185.222656 164.148438 L 175.289062 214.535156 C 175.25 214.746094 175.171875 214.945312 175.058594 215.132812 C 174.945312 215.316406 174.804688 215.480469 174.636719 215.617188 C 174.46875 215.753906 174.28125 215.859375 174.074219 215.933594 C 173.867188 216.007812 173.652344 216.042969 173.433594 216.042969 L 153.574219 216.042969 C 153.292969 216.042969 153.023438 215.984375 152.769531 215.863281 C 152.515625 215.746094 152.296875 215.578125 152.117188 215.363281 C 151.9375 215.148438 151.8125 214.90625 151.742188 214.636719 C 151.671875 214.367188 151.664062 214.097656 151.71875 213.824219 L 169.578125 123.242188 C 169.621094 123.03125 169.695312 122.832031 169.808594 122.648438 C 169.921875 122.460938 170.0625 122.300781 170.230469 122.160156 C 170.402344 122.023438 170.589844 121.917969 170.796875 121.84375 C 171 121.773438 171.214844 121.734375 171.433594 121.734375 L 191.292969 121.734375 C 191.574219 121.734375 191.84375 121.796875 192.097656 121.914062 C 192.355469 122.03125 192.570312 122.199219 192.75 122.414062 C 192.929688 122.628906 193.054688 122.871094 193.125 123.140625 C 193.195312 123.410156 193.203125 123.683594 193.148438 123.957031 L 188.839844 145.816406 L 204.234375 145.816406 C 215.964844 145.816406 223.917969 147.855469 228.550781 152.050781 C 233.277344 156.328125 234.746094 163.167969 232.929688 172.382812 L 224.621094 214.535156 C 224.578125 214.746094 224.5 214.945312 224.390625 215.132812 C 224.277344 215.320312 224.136719 215.480469 223.96875 215.617188 C 223.796875 215.753906 223.609375 215.859375 223.402344 215.933594 C 223.195312 216.007812 222.984375 216.042969 222.765625 216.042969 Z M 202.589844 216.042969 " fill-opacity="1" fill-rule="nonzero"/><path fill="#ffffff" d="M 191.292969 119.871094 L 171.433594 119.871094 C 170.996094 119.871094 170.570312 119.945312 170.15625 120.089844 C 169.742188 120.238281 169.367188 120.449219 169.03125 120.722656 C 168.691406 121 168.410156 121.320312 168.183594 121.695312 C 167.960938 122.066406 167.804688 122.464844 167.722656 122.886719 L 149.863281 213.46875 C 149.8125 213.738281 149.789062 214.007812 149.796875 214.285156 C 149.804688 214.558594 149.84375 214.828125 149.910156 215.097656 C 149.980469 215.363281 150.078125 215.617188 150.203125 215.863281 C 150.328125 216.109375 150.480469 216.339844 150.660156 216.550781 C 150.835938 216.761719 151.035156 216.953125 151.253906 217.121094 C 151.476562 217.289062 151.710938 217.433594 151.964844 217.550781 C 152.214844 217.667969 152.476562 217.757812 152.75 217.816406 C 153.023438 217.878906 153.296875 217.90625 153.578125 217.90625 L 173.433594 217.90625 C 173.875 217.90625 174.300781 217.832031 174.714844 217.6875 C 175.125 217.542969 175.503906 217.332031 175.839844 217.054688 C 176.179688 216.78125 176.460938 216.457031 176.6875 216.085938 C 176.910156 215.714844 177.0625 215.316406 177.148438 214.890625 L 186.78125 166.015625 L 199.535156 166.015625 C 205.4375 166.015625 206.675781 167.257812 206.726562 167.3125 C 207.085938 167.691406 207.554688 169.449219 206.777344 173.390625 L 198.878906 213.46875 C 198.828125 213.738281 198.804688 214.007812 198.8125 214.285156 C 198.820312 214.558594 198.859375 214.828125 198.925781 215.097656 C 198.996094 215.363281 199.09375 215.617188 199.21875 215.863281 C 199.34375 216.109375 199.496094 216.339844 199.675781 216.550781 C 199.851562 216.761719 200.050781 216.953125 200.269531 217.121094 C 200.492188 217.289062 200.726562 217.433594 200.980469 217.550781 C 201.230469 217.667969 201.492188 217.757812 201.765625 217.816406 C 202.039062 217.878906 202.3125 217.90625 202.59375 217.90625 L 222.765625 217.90625 C 223.203125 217.90625 223.628906 217.832031 224.042969 217.6875 C 224.457031 217.542969 224.832031 217.332031 225.171875 217.054688 C 225.511719 216.78125 225.792969 216.457031 226.015625 216.085938 C 226.242188 215.714844 226.394531 215.316406 226.480469 214.890625 L 234.789062 172.738281 C 236.738281 162.84375 235.070312 155.421875 229.832031 150.675781 C 224.835938 146.152344 216.464844 143.953125 204.238281 143.953125 L 191.136719 143.953125 L 195.007812 124.3125 C 195.0625 124.042969 195.085938 123.769531 195.078125 123.492188 C 195.066406 123.21875 195.03125 122.949219 194.960938 122.683594 C 194.894531 122.414062 194.796875 122.160156 194.667969 121.914062 C 194.542969 121.667969 194.390625 121.441406 194.214844 121.226562 C 194.035156 121.015625 193.835938 120.824219 193.617188 120.65625 C 193.398438 120.488281 193.160156 120.34375 192.910156 120.226562 C 192.65625 120.109375 192.394531 120.019531 192.121094 119.960938 C 191.851562 119.902344 191.574219 119.871094 191.296875 119.871094 M 191.296875 123.597656 L 186.546875 147.679688 L 204.238281 147.679688 C 215.371094 147.679688 223.046875 149.597656 227.273438 153.421875 C 231.5 157.25 232.765625 163.453125 231.078125 172.027344 L 222.769531 214.179688 L 202.59375 214.179688 L 210.492188 174.101562 C 211.390625 169.542969 211.0625 166.433594 209.5 164.773438 C 207.941406 163.117188 204.617188 162.285156 199.539062 162.285156 L 183.664062 162.285156 L 173.433594 214.179688 L 153.578125 214.179688 L 171.433594 123.597656 L 191.292969 123.597656 " fill-opacity="1" fill-rule="nonzero"/><path fill="#000000" d="M 264.351562 198.019531 C 271.957031 198.019531 277.636719 196.636719 281.226562 193.914062 C 284.78125 191.214844 287.234375 186.542969 288.523438 180.019531 C 289.722656 173.925781 289.265625 169.671875 287.164062 167.375 C 285.015625 165.03125 280.375 163.839844 273.363281 163.839844 L 261.210938 163.839844 L 254.46875 198.019531 Z M 224.597656 240.125 C 224.03125 240.125 223.496094 239.875 223.136719 239.445312 C 222.757812 238.996094 222.625 238.480469 222.738281 237.90625 L 240.597656 147.328125 C 240.640625 147.113281 240.71875 146.914062 240.828125 146.730469 C 240.941406 146.542969 241.082031 146.382812 241.25 146.242188 C 241.421875 146.105469 241.609375 146 241.816406 145.925781 C 242.023438 145.855469 242.234375 145.816406 242.457031 145.816406 L 280.945312 145.816406 C 293.042969 145.816406 302.042969 149.050781 307.703125 155.441406 C 313.390625 161.863281 315.148438 170.835938 312.925781 182.117188 C 312.019531 186.710938 310.460938 190.976562 308.296875 194.800781 C 306.128906 198.625 303.261719 202.164062 299.78125 205.320312 C 295.609375 209.167969 290.886719 211.960938 285.761719 213.601562 C 280.714844 215.222656 274.238281 216.042969 266.503906 216.042969 L 250.90625 216.042969 L 246.457031 238.617188 C 246.417969 238.828125 246.339844 239.027344 246.226562 239.214844 C 246.117188 239.402344 245.976562 239.5625 245.804688 239.699219 C 245.636719 239.839844 245.449219 239.945312 245.242188 240.015625 C 245.035156 240.089844 244.820312 240.125 244.601562 240.125 L 224.585938 240.125 Z M 224.597656 240.125 " fill-opacity="1" fill-rule="nonzero"/><path fill="#ffffff" d="M 262.769531 165.703125 L 273.363281 165.703125 C 281.824219 165.703125 284.765625 167.535156 285.761719 168.625 C 287.421875 170.4375 287.734375 174.253906 286.667969 179.667969 C 285.472656 185.726562 283.253906 190.023438 280.074219 192.433594 C 276.820312 194.90625 271.53125 196.15625 264.351562 196.15625 L 256.765625 196.15625 Z M 280.945312 143.953125 L 242.453125 143.953125 C 242.015625 143.953125 241.589844 144.027344 241.175781 144.171875 C 240.761719 144.320312 240.386719 144.53125 240.050781 144.804688 C 239.710938 145.082031 239.429688 145.402344 239.203125 145.777344 C 238.980469 146.148438 238.824219 146.546875 238.742188 146.96875 L 220.882812 237.554688 C 220.828125 237.824219 220.808594 238.097656 220.816406 238.371094 C 220.824219 238.648438 220.859375 238.917969 220.929688 239.183594 C 221 239.449219 221.097656 239.707031 221.222656 239.953125 C 221.347656 240.195312 221.5 240.425781 221.675781 240.636719 C 221.855469 240.851562 222.054688 241.039062 222.273438 241.210938 C 222.492188 241.378906 222.730469 241.519531 222.980469 241.640625 C 223.234375 241.757812 223.496094 241.84375 223.769531 241.90625 C 224.039062 241.964844 224.316406 241.996094 224.59375 241.996094 L 244.609375 241.996094 C 245.050781 241.996094 245.476562 241.921875 245.890625 241.777344 C 246.300781 241.628906 246.679688 241.417969 247.015625 241.144531 C 247.355469 240.867188 247.636719 240.542969 247.863281 240.171875 C 248.085938 239.800781 248.238281 239.402344 248.324219 238.976562 L 252.476562 217.914062 L 266.503906 217.914062 C 274.433594 217.914062 281.113281 217.0625 286.347656 215.378906 C 291.730469 213.65625 296.6875 210.730469 301.070312 206.6875 C 304.699219 203.398438 307.683594 199.707031 309.945312 195.714844 C 312.210938 191.722656 313.835938 187.265625 314.78125 182.476562 C 317.121094 170.605469 315.21875 161.097656 309.125 154.222656 C 303.089844 147.410156 293.609375 143.957031 280.941406 143.957031 M 252.175781 199.890625 L 264.351562 199.890625 C 272.417969 199.890625 278.429688 198.394531 282.378906 195.394531 C 286.328125 192.398438 288.996094 187.394531 290.378906 180.382812 C 291.703125 173.652344 291.101562 168.898438 288.570312 166.132812 C 286.039062 163.363281 280.96875 161.980469 273.363281 161.980469 L 259.648438 161.980469 L 252.175781 199.890625 M 280.945312 147.6875 C 292.523438 147.6875 300.96875 150.683594 306.277344 156.671875 C 311.585938 162.664062 313.1875 171.027344 311.066406 181.765625 C 310.195312 186.1875 308.722656 190.230469 306.644531 193.894531 C 304.570312 197.558594 301.851562 200.914062 298.5 203.953125 C 294.503906 207.640625 290.0625 210.269531 285.175781 211.835938 C 280.292969 213.402344 274.070312 214.183594 266.503906 214.183594 L 249.359375 214.183594 L 244.613281 238.265625 L 224.597656 238.265625 L 242.457031 147.6875 L 280.945312 147.6875 " fill-opacity="1" fill-rule="nonzero"/><g clip-path="url(#b78c4a7fa0)"><path fill="#b3902f" d="M 337.5 330.523438 L 336.042969 331.628906 L 336.640625 329.902344 L 335.144531 328.855469 L 336.96875 328.894531 L 337.5 327.144531 L 338.027344 328.894531 L 339.855469 328.855469 L 338.355469 329.902344 L 338.957031 331.628906 L 337.5 330.523438 " fill-opacity="1" fill-rule="nonzero"/></g><path fill="#b3902f" d="M 338.625 353.585938 C 338.625 353.585938 338.566406 353.617188 338.484375 353.6875 C 338.398438 353.757812 338.292969 353.863281 338.1875 354.015625 C 338.082031 354.164062 337.976562 354.363281 337.882812 354.625 C 337.789062 354.890625 337.714844 355.21875 337.648438 355.644531 C 337.640625 355.703125 337.652344 355.765625 337.679688 355.78125 C 337.894531 355.90625 338.117188 355.8125 338.273438 355.617188 C 338.433594 355.417969 338.539062 355.121094 338.59375 354.816406 C 338.648438 354.511719 338.65625 354.207031 338.652344 353.972656 C 338.644531 353.738281 338.625 353.585938 338.625 353.585938 " fill-opacity="1" fill-rule="nonzero"/><g clip-path="url(#f4acc914ee)"><path fill="#b3902f" d="M 339.902344 357.320312 C 339.902344 357.320312 339.789062 357.363281 339.605469 357.398438 C 339.425781 357.433594 339.167969 357.457031 338.890625 357.414062 C 338.617188 357.367188 338.320312 357.253906 338.082031 357.03125 C 337.847656 356.808594 337.660156 356.480469 337.628906 356.046875 C 337.625 355.988281 337.644531 355.933594 337.675781 355.914062 C 337.902344 355.789062 338.097656 355.820312 338.324219 355.929688 C 338.542969 356.042969 338.78125 356.242188 339.011719 356.445312 C 339.242188 356.652344 339.464844 356.871094 339.628906 357.035156 C 339.796875 357.203125 339.902344 357.320312 339.902344 357.320312 " fill-opacity="1" fill-rule="nonzero"/></g><path fill="#b3902f" d="M 339.550781 353.054688 C 339.550781 353.054688 339.492188 353.101562 339.410156 353.195312 C 339.371094 353.246094 339.328125 353.300781 339.28125 353.367188 C 339.234375 353.4375 339.183594 353.519531 339.140625 353.609375 C 339.09375 353.699219 339.050781 353.804688 339.011719 353.921875 C 338.972656 354.035156 338.941406 354.167969 338.914062 354.3125 C 338.867188 354.597656 338.855469 354.953125 338.925781 355.378906 C 338.9375 355.433594 338.96875 355.484375 339 355.492188 C 339.242188 355.527344 339.429688 355.378906 339.542969 355.144531 C 339.601562 355.027344 339.640625 354.890625 339.667969 354.746094 C 339.695312 354.597656 339.707031 354.4375 339.707031 354.28125 C 339.714844 353.972656 339.671875 353.660156 339.632812 353.433594 C 339.589844 353.203125 339.550781 353.054688 339.550781 353.054688 " fill-opacity="1" fill-rule="nonzero"/><path fill="#b3902f" d="M 341.429688 356.449219 C 341.429688 356.449219 341.332031 356.507812 341.167969 356.578125 C 341.085938 356.613281 340.988281 356.648438 340.875 356.675781 C 340.761719 356.703125 340.640625 356.726562 340.507812 356.730469 C 340.378906 356.738281 340.242188 356.730469 340.105469 356.707031 C 339.964844 356.675781 339.828125 356.625 339.699219 356.554688 C 339.433594 356.402344 339.203125 356.148438 339.039062 355.757812 C 339.015625 355.707031 339.015625 355.644531 339.039062 355.617188 C 339.210938 355.417969 339.417969 355.386719 339.660156 355.4375 C 339.777344 355.460938 339.902344 355.507812 340.035156 355.570312 C 340.164062 355.628906 340.292969 355.695312 340.425781 355.773438 C 340.6875 355.925781 340.933594 356.09375 341.121094 356.222656 C 341.308594 356.355469 341.429688 356.449219 341.429688 356.449219 " fill-opacity="1" fill-rule="nonzero"/><path fill="#b3902f" d="M 340.453125 352.316406 C 340.453125 352.316406 340.398438 352.375 340.324219 352.484375 C 340.289062 352.539062 340.25 352.605469 340.210938 352.6875 C 340.167969 352.765625 340.128906 352.851562 340.089844 352.957031 C 340.023438 353.164062 339.960938 353.402344 339.957031 353.707031 C 339.953125 354 339.996094 354.351562 340.144531 354.753906 C 340.164062 354.804688 340.203125 354.847656 340.238281 354.84375 C 340.359375 354.835938 340.460938 354.789062 340.539062 354.710938 C 340.617188 354.628906 340.675781 354.519531 340.714844 354.394531 C 340.796875 354.144531 340.796875 353.820312 340.761719 353.511719 C 340.683594 352.886719 340.453125 352.316406 340.453125 352.316406 " fill-opacity="1" fill-rule="nonzero"/><path fill="#b3902f" d="M 342.75 355.371094 C 342.75 355.371094 342.664062 355.441406 342.515625 355.53125 C 342.441406 355.574219 342.351562 355.625 342.25 355.667969 C 342.144531 355.710938 342.027344 355.75 341.90625 355.777344 C 341.664062 355.835938 341.371094 355.835938 341.101562 355.742188 C 340.820312 355.640625 340.550781 355.441406 340.320312 355.097656 C 340.289062 355.054688 340.277344 354.992188 340.296875 354.960938 C 340.363281 354.84375 340.449219 354.769531 340.546875 354.722656 C 340.644531 354.671875 340.753906 354.65625 340.875 354.660156 C 341.121094 354.667969 341.398438 354.746094 341.679688 354.859375 C 342.226562 355.066406 342.75 355.371094 342.75 355.371094 " fill-opacity="1" fill-rule="nonzero"/><path fill="#b3902f" d="M 341.308594 351.414062 C 341.308594 351.414062 341.257812 351.480469 341.195312 351.605469 C 341.132812 351.730469 341.050781 351.898438 341 352.117188 C 340.945312 352.335938 340.910156 352.589844 340.941406 352.894531 C 340.972656 353.191406 341.058594 353.527344 341.257812 353.898438 C 341.28125 353.949219 341.328125 353.980469 341.363281 353.972656 C 341.605469 353.917969 341.734375 353.714844 341.78125 353.453125 C 341.835938 353.199219 341.796875 352.871094 341.730469 352.570312 C 341.664062 352.269531 341.558594 351.976562 341.46875 351.761719 C 341.378906 351.550781 341.308594 351.414062 341.308594 351.414062 " fill-opacity="1" fill-rule="nonzero"/><path fill="#b3902f" d="M 343.898438 354.15625 C 343.898438 354.15625 343.824219 354.238281 343.691406 354.34375 C 343.558594 354.445312 343.355469 354.566406 343.125 354.65625 C 342.890625 354.738281 342.613281 354.777344 342.332031 354.726562 C 342.046875 354.667969 341.753906 354.507812 341.476562 354.210938 C 341.441406 354.171875 341.421875 354.113281 341.4375 354.078125 C 341.542969 353.828125 341.730469 353.722656 341.972656 353.691406 C 342.21875 353.664062 342.503906 353.707031 342.789062 353.777344 C 343.074219 353.851562 343.351562 353.945312 343.558594 354.019531 C 343.765625 354.097656 343.898438 354.15625 343.898438 354.15625 " fill-opacity="1" fill-rule="nonzero"/><path fill="#b3902f" d="M 342.105469 350.390625 C 342.105469 350.390625 342.058594 350.464844 342.003906 350.59375 C 341.976562 350.660156 341.945312 350.742188 341.917969 350.835938 C 341.890625 350.925781 341.863281 351.027344 341.84375 351.136719 C 341.808594 351.363281 341.800781 351.632812 341.855469 351.925781 C 341.910156 352.21875 342.03125 352.546875 342.269531 352.886719 C 342.300781 352.933594 342.351562 352.960938 342.382812 352.949219 C 342.609375 352.855469 342.726562 352.644531 342.75 352.378906 C 342.773438 352.113281 342.714844 351.800781 342.621094 351.503906 C 342.429688 350.90625 342.105469 350.390625 342.105469 350.390625 " fill-opacity="1" fill-rule="nonzero"/><path fill="#b3902f" d="M 344.914062 352.859375 C 344.914062 352.859375 344.84375 352.945312 344.722656 353.058594 C 344.660156 353.117188 344.585938 353.179688 344.496094 353.242188 C 344.40625 353.304688 344.304688 353.367188 344.191406 353.417969 C 343.96875 353.523438 343.707031 353.597656 343.417969 353.570312 C 343.132812 353.546875 342.828125 353.429688 342.523438 353.167969 C 342.480469 353.132812 342.457031 353.078125 342.464844 353.042969 C 342.539062 352.777344 342.726562 352.652344 342.960938 352.59375 C 343.195312 352.535156 343.488281 352.550781 343.78125 352.589844 C 344.351562 352.671875 344.914062 352.859375 344.914062 352.859375 " fill-opacity="1" fill-rule="nonzero"/><path fill="#b3902f" d="M 342.847656 349.273438 C 342.847656 349.273438 342.804688 349.351562 342.753906 349.488281 C 342.730469 349.558594 342.707031 349.644531 342.683594 349.738281 C 342.660156 349.832031 342.640625 349.9375 342.628906 350.054688 C 342.589844 350.519531 342.65625 351.128906 343.179688 351.757812 C 343.21875 351.800781 343.269531 351.824219 343.300781 351.808594 C 343.757812 351.585938 343.660156 350.914062 343.433594 350.347656 C 343.199219 349.765625 342.847656 349.273438 342.847656 349.273438 " fill-opacity="1" fill-rule="nonzero"/><path fill="#b3902f" d="M 345.8125 351.5 C 345.8125 351.5 345.75 351.589844 345.636719 351.710938 C 345.582031 351.773438 345.511719 351.84375 345.429688 351.910156 C 345.34375 351.980469 345.246094 352.046875 345.140625 352.109375 C 344.71875 352.355469 344.113281 352.46875 343.457031 352.011719 C 343.414062 351.980469 343.382812 351.929688 343.390625 351.890625 C 343.5 351.363281 344.078125 351.292969 344.667969 351.324219 C 345.242188 351.355469 345.8125 351.5 345.8125 351.5 " fill-opacity="1" fill-rule="nonzero"/><path fill="#b3902f" d="M 343.53125 348.082031 C 343.53125 348.082031 343.375 348.421875 343.351562 348.886719 C 343.339844 349.359375 343.441406 349.964844 344.011719 350.550781 C 344.046875 350.589844 344.101562 350.605469 344.132812 350.585938 C 344.347656 350.457031 344.429688 350.230469 344.414062 349.960938 C 344.402344 349.695312 344.300781 349.394531 344.171875 349.117188 C 344.042969 348.839844 343.882812 348.578125 343.753906 348.390625 C 343.625 348.199219 343.53125 348.082031 343.53125 348.082031 " fill-opacity="1" fill-rule="nonzero"/><path fill="#b3902f" d="M 346.617188 350.101562 C 346.617188 350.101562 346.398438 350.476562 345.984375 350.746094 C 345.582031 351.019531 344.984375 351.171875 344.304688 350.777344 C 344.257812 350.75 344.226562 350.699219 344.230469 350.664062 C 344.261719 350.390625 344.429688 350.234375 344.65625 350.136719 C 344.878906 350.039062 345.171875 350.003906 345.464844 350 C 345.757812 350 346.042969 350.023438 346.257812 350.050781 C 346.472656 350.074219 346.617188 350.101562 346.617188 350.101562 " fill-opacity="1" fill-rule="nonzero"/><path fill="#b3902f" d="M 344.164062 346.839844 C 344.164062 346.839844 344.015625 347.183594 344.019531 347.660156 C 344.023438 348.128906 344.160156 348.738281 344.765625 349.277344 C 344.804688 349.3125 344.859375 349.328125 344.890625 349.308594 C 345.304688 349.011719 345.144531 348.375 344.851562 347.832031 C 344.5625 347.289062 344.164062 346.839844 344.164062 346.839844 " fill-opacity="1" fill-rule="nonzero"/><path fill="#b3902f" d="M 347.34375 348.675781 C 347.34375 348.675781 347.136719 349.050781 346.75 349.34375 C 346.355469 349.636719 345.777344 349.832031 345.074219 349.484375 C 345.023438 349.460938 344.988281 349.414062 344.992188 349.375 C 345.027344 348.832031 345.609375 348.683594 346.183594 348.636719 C 346.761719 348.597656 347.34375 348.675781 347.34375 348.675781 " fill-opacity="1" fill-rule="nonzero"/><path fill="#b3902f" d="M 344.746094 345.546875 C 344.746094 345.546875 344.714844 345.636719 344.683594 345.785156 C 344.65625 345.9375 344.625 346.140625 344.636719 346.378906 C 344.644531 346.617188 344.695312 346.886719 344.820312 347.160156 C 344.941406 347.429688 345.136719 347.707031 345.449219 347.957031 C 345.492188 347.992188 345.546875 348 345.574219 347.980469 C 345.78125 347.824219 345.832031 347.585938 345.792969 347.320312 C 345.757812 347.058594 345.628906 346.773438 345.476562 346.507812 C 345.164062 345.980469 344.746094 345.546875 344.746094 345.546875 " fill-opacity="1" fill-rule="nonzero"/><path fill="#b3902f" d="M 348 347.222656 C 348 347.222656 347.953125 347.316406 347.859375 347.453125 C 347.769531 347.589844 347.625 347.761719 347.433594 347.914062 C 347.246094 348.070312 347.011719 348.203125 346.734375 348.261719 C 346.453125 348.320312 346.128906 348.296875 345.765625 348.144531 C 345.71875 348.125 345.679688 348.078125 345.679688 348.042969 C 345.691406 347.769531 345.835938 347.589844 346.050781 347.464844 C 346.265625 347.34375 346.554688 347.277344 346.84375 347.242188 C 347.421875 347.171875 348 347.222656 348 347.222656 " fill-opacity="1" fill-rule="nonzero"/><path fill="#b3902f" d="M 345.289062 344.21875 C 345.289062 344.21875 345.164062 344.585938 345.207031 345.0625 C 345.242188 345.539062 345.429688 346.132812 346.082031 346.601562 C 346.125 346.632812 346.179688 346.640625 346.207031 346.617188 C 346.59375 346.277344 346.382812 345.664062 346.046875 345.148438 C 345.71875 344.632812 345.289062 344.21875 345.289062 344.21875 " fill-opacity="1" fill-rule="nonzero"/><path fill="#b3902f" d="M 348.597656 345.753906 C 348.597656 345.753906 348.421875 346.140625 348.0625 346.46875 C 347.695312 346.789062 347.140625 347.039062 346.40625 346.773438 C 346.355469 346.753906 346.316406 346.710938 346.3125 346.675781 C 346.300781 346.128906 346.875 345.921875 347.441406 345.820312 C 348.015625 345.726562 348.597656 345.753906 348.597656 345.753906 " fill-opacity="1" fill-rule="nonzero"/><path fill="#b3902f" d="M 345.789062 342.867188 C 345.789062 342.867188 345.675781 343.234375 345.730469 343.714844 C 345.789062 344.195312 345.988281 344.777344 346.65625 345.214844 C 346.699219 345.246094 346.757812 345.25 346.78125 345.226562 C 346.972656 345.050781 347.011719 344.8125 346.953125 344.550781 C 346.898438 344.292969 346.75 344.015625 346.578125 343.765625 C 346.230469 343.265625 345.789062 342.867188 345.789062 342.867188 " fill-opacity="1" fill-rule="nonzero"/><g clip-path="url(#447b457f10)"><path fill="#b3902f" d="M 349.148438 344.273438 C 349.148438 344.273438 348.984375 344.664062 348.632812 345 C 348.285156 345.335938 347.730469 345.605469 346.984375 345.371094 C 346.9375 345.355469 346.894531 345.316406 346.894531 345.277344 C 346.867188 344.738281 347.421875 344.5 347.992188 344.382812 C 348.5625 344.265625 349.148438 344.273438 349.148438 344.273438 " fill-opacity="1" fill-rule="nonzero"/></g><path fill="#b3902f" d="M 348.0625 342.164062 C 348.0625 342.164062 348.21875 342.5625 348.195312 343.046875 C 348.183594 343.53125 347.96875 344.109375 347.269531 344.457031 C 347.222656 344.480469 347.164062 344.480469 347.136719 344.457031 C 346.746094 344.082031 346.980469 343.527344 347.308594 343.046875 C 347.636719 342.566406 348.0625 342.164062 348.0625 342.164062 " fill-opacity="1" fill-rule="nonzero"/><path fill="#b3902f" d="M 336.371094 353.519531 C 336.371094 353.519531 336.429688 353.550781 336.515625 353.621094 C 336.597656 353.691406 336.707031 353.796875 336.8125 353.949219 C 336.917969 354.101562 337.023438 354.296875 337.117188 354.558594 C 337.210938 354.824219 337.28125 355.152344 337.347656 355.578125 C 337.359375 355.636719 337.34375 355.699219 337.316406 355.714844 C 337.105469 355.839844 336.882812 355.746094 336.726562 355.550781 C 336.566406 355.355469 336.460938 355.054688 336.40625 354.753906 C 336.351562 354.445312 336.339844 354.140625 336.347656 353.90625 C 336.351562 353.671875 336.371094 353.519531 336.371094 353.519531 " fill-opacity="1" fill-rule="nonzero"/><g clip-path="url(#147a86d23f)"><path fill="#b3902f" d="M 335.09375 357.253906 C 335.09375 357.253906 335.210938 357.296875 335.390625 357.332031 C 335.574219 357.367188 335.832031 357.390625 336.105469 357.347656 C 336.382812 357.300781 336.675781 357.1875 336.914062 356.964844 C 337.152344 356.742188 337.335938 356.414062 337.371094 355.980469 C 337.375 355.925781 337.351562 355.867188 337.320312 355.847656 C 337.097656 355.722656 336.898438 355.753906 336.675781 355.863281 C 336.453125 355.976562 336.214844 356.175781 335.984375 356.378906 C 335.753906 356.585938 335.53125 356.804688 335.367188 356.96875 C 335.203125 357.136719 335.09375 357.253906 335.09375 357.253906 " fill-opacity="1" fill-rule="nonzero"/></g><path fill="#b3902f" d="M 335.449219 352.988281 C 335.449219 352.988281 335.507812 353.035156 335.585938 353.128906 C 335.625 353.179688 335.671875 353.234375 335.71875 353.304688 C 335.765625 353.371094 335.8125 353.453125 335.859375 353.542969 C 335.90625 353.632812 335.949219 353.738281 335.988281 353.855469 C 336.027344 353.96875 336.058594 354.101562 336.082031 354.246094 C 336.128906 354.535156 336.144531 354.886719 336.070312 355.3125 C 336.0625 355.367188 336.027344 355.417969 335.996094 355.425781 C 335.757812 355.460938 335.570312 355.3125 335.457031 355.078125 C 335.398438 354.960938 335.355469 354.824219 335.328125 354.679688 C 335.304688 354.53125 335.292969 354.371094 335.289062 354.214844 C 335.285156 353.90625 335.324219 353.59375 335.367188 353.367188 C 335.40625 353.140625 335.449219 352.988281 335.449219 352.988281 " fill-opacity="1" fill-rule="nonzero"/><path fill="#b3902f" d="M 333.570312 356.382812 C 333.570312 356.382812 333.667969 356.441406 333.832031 356.511719 C 333.910156 356.546875 334.011719 356.582031 334.125 356.609375 C 334.238281 356.636719 334.355469 356.660156 334.488281 356.667969 C 334.621094 356.671875 334.757812 356.664062 334.894531 356.640625 C 335.03125 356.609375 335.167969 356.5625 335.300781 356.488281 C 335.5625 356.335938 335.792969 356.082031 335.960938 355.691406 C 335.984375 355.640625 335.980469 355.578125 335.957031 355.550781 C 335.785156 355.351562 335.578125 355.320312 335.339844 355.371094 C 335.21875 355.394531 335.09375 355.441406 334.964844 355.503906 C 334.835938 355.5625 334.703125 355.628906 334.574219 355.707031 C 334.3125 355.859375 334.0625 356.027344 333.875 356.15625 C 333.691406 356.289062 333.570312 356.382812 333.570312 356.382812 " fill-opacity="1" fill-rule="nonzero"/><path fill="#b3902f" d="M 334.542969 352.25 C 334.542969 352.25 334.601562 352.308594 334.671875 352.417969 C 334.710938 352.472656 334.75 352.539062 334.789062 352.621094 C 334.828125 352.699219 334.871094 352.789062 334.90625 352.890625 C 334.976562 353.101562 335.035156 353.335938 335.039062 353.640625 C 335.046875 353.9375 335 354.285156 334.855469 354.6875 C 334.835938 354.738281 334.792969 354.78125 334.761719 354.777344 C 334.640625 354.769531 334.539062 354.722656 334.460938 354.644531 C 334.378906 354.5625 334.324219 354.453125 334.28125 354.328125 C 334.203125 354.078125 334.203125 353.753906 334.238281 353.449219 C 334.3125 352.820312 334.542969 352.25 334.542969 352.25 " fill-opacity="1" fill-rule="nonzero"/><path fill="#b3902f" d="M 332.246094 355.304688 C 332.246094 355.304688 332.335938 355.375 332.484375 355.464844 C 332.558594 355.507812 332.648438 355.558594 332.75 355.601562 C 332.851562 355.644531 332.96875 355.683594 333.09375 355.710938 C 333.335938 355.769531 333.625 355.769531 333.898438 355.675781 C 334.179688 355.574219 334.445312 355.375 334.679688 355.035156 C 334.710938 354.988281 334.71875 354.925781 334.703125 354.894531 C 334.636719 354.777344 334.550781 354.703125 334.453125 354.65625 C 334.355469 354.605469 334.246094 354.589844 334.121094 354.59375 C 333.878906 354.601562 333.597656 354.679688 333.320312 354.792969 C 332.773438 355 332.246094 355.304688 332.246094 355.304688 " fill-opacity="1" fill-rule="nonzero"/><path fill="#b3902f" d="M 333.691406 351.347656 C 333.691406 351.347656 333.742188 351.414062 333.804688 351.539062 C 333.867188 351.664062 333.949219 351.832031 334 352.050781 C 334.050781 352.269531 334.085938 352.523438 334.054688 352.828125 C 334.027344 353.125 333.941406 353.460938 333.742188 353.832031 C 333.714844 353.882812 333.667969 353.914062 333.636719 353.90625 C 333.394531 353.855469 333.265625 353.648438 333.214844 353.386719 C 333.164062 353.132812 333.199219 352.804688 333.269531 352.503906 C 333.335938 352.203125 333.441406 351.910156 333.53125 351.695312 C 333.621094 351.484375 333.691406 351.347656 333.691406 351.347656 " fill-opacity="1" fill-rule="nonzero"/><path fill="#b3902f" d="M 331.097656 354.089844 C 331.097656 354.089844 331.175781 354.171875 331.308594 354.277344 C 331.441406 354.378906 331.644531 354.5 331.875 354.589844 C 332.109375 354.675781 332.386719 354.710938 332.667969 354.660156 C 332.953125 354.601562 333.242188 354.441406 333.519531 354.144531 C 333.558594 354.105469 333.574219 354.046875 333.5625 354.011719 C 333.457031 353.761719 333.265625 353.65625 333.023438 353.625 C 332.78125 353.601562 332.496094 353.640625 332.210938 353.710938 C 331.921875 353.785156 331.644531 353.878906 331.441406 353.953125 C 331.234375 354.03125 331.097656 354.089844 331.097656 354.089844 " fill-opacity="1" fill-rule="nonzero"/><path fill="#b3902f" d="M 332.890625 350.324219 C 332.890625 350.324219 332.9375 350.398438 332.996094 350.53125 C 333.023438 350.59375 333.050781 350.675781 333.078125 350.769531 C 333.109375 350.859375 333.132812 350.960938 333.152344 351.074219 C 333.191406 351.296875 333.199219 351.566406 333.144531 351.859375 C 333.089844 352.152344 332.964844 352.480469 332.730469 352.820312 C 332.699219 352.867188 332.648438 352.894531 332.617188 352.882812 C 332.386719 352.789062 332.273438 352.578125 332.25 352.3125 C 332.226562 352.046875 332.285156 351.734375 332.378906 351.441406 C 332.570312 350.84375 332.890625 350.324219 332.890625 350.324219 " fill-opacity="1" fill-rule="nonzero"/><path fill="#b3902f" d="M 330.085938 352.792969 C 330.085938 352.792969 330.152344 352.878906 330.277344 352.992188 C 330.339844 353.050781 330.414062 353.113281 330.5 353.175781 C 330.589844 353.238281 330.691406 353.300781 330.804688 353.351562 C 331.027344 353.457031 331.289062 353.53125 331.578125 353.503906 C 331.867188 353.480469 332.167969 353.363281 332.476562 353.101562 C 332.515625 353.066406 332.542969 353.011719 332.53125 352.976562 C 332.460938 352.710938 332.273438 352.585938 332.035156 352.527344 C 331.800781 352.46875 331.507812 352.484375 331.21875 352.523438 C 330.644531 352.605469 330.085938 352.792969 330.085938 352.792969 " fill-opacity="1" fill-rule="nonzero"/><path fill="#b3902f" d="M 332.152344 349.207031 C 332.152344 349.207031 332.195312 349.285156 332.242188 349.421875 C 332.265625 349.492188 332.292969 349.578125 332.3125 349.671875 C 332.335938 349.765625 332.355469 349.871094 332.367188 349.988281 C 332.410156 350.453125 332.34375 351.0625 331.816406 351.691406 C 331.78125 351.734375 331.730469 351.757812 331.699219 351.742188 C 331.242188 351.519531 331.339844 350.847656 331.566406 350.28125 C 331.796875 349.699219 332.152344 349.207031 332.152344 349.207031 " fill-opacity="1" fill-rule="nonzero"/><path fill="#b3902f" d="M 329.1875 351.4375 C 329.1875 351.4375 329.246094 351.523438 329.359375 351.648438 C 329.417969 351.707031 329.488281 351.777344 329.570312 351.84375 C 329.652344 351.914062 329.75 351.980469 329.859375 352.042969 C 330.28125 352.292969 330.886719 352.402344 331.539062 351.945312 C 331.582031 351.914062 331.613281 351.863281 331.605469 351.824219 C 331.496094 351.296875 330.917969 351.226562 330.332031 351.257812 C 329.753906 351.289062 329.1875 351.4375 329.1875 351.4375 " fill-opacity="1" fill-rule="nonzero"/><path fill="#b3902f" d="M 331.46875 348.015625 C 331.46875 348.015625 331.621094 348.355469 331.644531 348.820312 C 331.660156 349.292969 331.558594 349.898438 330.988281 350.484375 C 330.949219 350.523438 330.894531 350.539062 330.867188 350.523438 C 330.652344 350.390625 330.566406 350.164062 330.582031 349.894531 C 330.597656 349.628906 330.695312 349.328125 330.824219 349.050781 C 330.953125 348.773438 331.117188 348.511719 331.246094 348.324219 C 331.375 348.132812 331.46875 348.015625 331.46875 348.015625 " fill-opacity="1" fill-rule="nonzero"/><path fill="#b3902f" d="M 328.382812 350.035156 C 328.382812 350.035156 328.597656 350.410156 329.011719 350.679688 C 329.414062 350.953125 330.011719 351.109375 330.695312 350.710938 C 330.738281 350.683594 330.773438 350.632812 330.769531 350.597656 C 330.734375 350.324219 330.566406 350.167969 330.34375 350.070312 C 330.117188 349.972656 329.824219 349.9375 329.535156 349.9375 C 329.242188 349.933594 328.957031 349.957031 328.738281 349.984375 C 328.523438 350.007812 328.382812 350.035156 328.382812 350.035156 " fill-opacity="1" fill-rule="nonzero"/><path fill="#b3902f" d="M 330.832031 346.773438 C 330.832031 346.773438 330.980469 347.117188 330.976562 347.59375 C 330.976562 348.066406 330.835938 348.671875 330.234375 349.210938 C 330.191406 349.25 330.136719 349.261719 330.109375 349.242188 C 329.691406 348.945312 329.855469 348.308594 330.148438 347.765625 C 330.4375 347.222656 330.832031 346.773438 330.832031 346.773438 " fill-opacity="1" fill-rule="nonzero"/><path fill="#b3902f" d="M 327.652344 348.609375 C 327.652344 348.609375 327.863281 348.984375 328.25 349.277344 C 328.644531 349.570312 329.222656 349.765625 329.925781 349.417969 C 329.972656 349.394531 330.007812 349.347656 330.007812 349.308594 C 329.972656 348.765625 329.386719 348.617188 328.8125 348.570312 C 328.234375 348.53125 327.652344 348.609375 327.652344 348.609375 " fill-opacity="1" fill-rule="nonzero"/><path fill="#b3902f" d="M 330.253906 345.480469 C 330.253906 345.480469 330.285156 345.570312 330.3125 345.71875 C 330.339844 345.871094 330.371094 346.078125 330.363281 346.3125 C 330.351562 346.550781 330.304688 346.820312 330.179688 347.09375 C 330.058594 347.367188 329.863281 347.640625 329.546875 347.890625 C 329.503906 347.925781 329.449219 347.933594 329.421875 347.914062 C 329.214844 347.757812 329.164062 347.519531 329.203125 347.253906 C 329.242188 346.992188 329.367188 346.707031 329.523438 346.441406 C 329.832031 345.914062 330.253906 345.480469 330.253906 345.480469 " fill-opacity="1" fill-rule="nonzero"/><path fill="#b3902f" d="M 327 347.15625 C 327 347.15625 327.046875 347.253906 327.136719 347.386719 C 327.230469 347.523438 327.375 347.695312 327.5625 347.851562 C 327.753906 348.003906 327.988281 348.136719 328.265625 348.195312 C 328.542969 348.253906 328.867188 348.230469 329.230469 348.078125 C 329.28125 348.058594 329.316406 348.011719 329.316406 347.976562 C 329.304688 347.703125 329.164062 347.523438 328.949219 347.398438 C 328.734375 347.277344 328.445312 347.210938 328.152344 347.175781 C 327.578125 347.105469 327 347.15625 327 347.15625 " fill-opacity="1" fill-rule="nonzero"/><path fill="#b3902f" d="M 329.710938 344.152344 C 329.710938 344.152344 329.832031 344.519531 329.792969 344.996094 C 329.757812 345.472656 329.566406 346.066406 328.917969 346.535156 C 328.875 346.566406 328.816406 346.574219 328.792969 346.550781 C 328.402344 346.210938 328.613281 345.601562 328.949219 345.085938 C 329.28125 344.570312 329.710938 344.152344 329.710938 344.152344 " fill-opacity="1" fill-rule="nonzero"/><path fill="#b3902f" d="M 326.398438 345.6875 C 326.398438 345.6875 326.574219 346.074219 326.933594 346.402344 C 327.304688 346.722656 327.859375 346.972656 328.59375 346.707031 C 328.644531 346.6875 328.683594 346.644531 328.683594 346.609375 C 328.699219 346.0625 328.125 345.855469 327.554688 345.753906 C 326.984375 345.660156 326.398438 345.6875 326.398438 345.6875 " fill-opacity="1" fill-rule="nonzero"/><path fill="#b3902f" d="M 329.207031 342.800781 C 329.207031 342.800781 329.324219 343.167969 329.269531 343.648438 C 329.210938 344.128906 329.007812 344.710938 328.34375 345.148438 C 328.296875 345.179688 328.242188 345.183594 328.214844 345.160156 C 328.027344 344.984375 327.984375 344.746094 328.042969 344.484375 C 328.101562 344.226562 328.25 343.949219 328.421875 343.699219 C 328.765625 343.199219 329.207031 342.800781 329.207031 342.800781 " fill-opacity="1" fill-rule="nonzero"/><g clip-path="url(#a6b67d2aff)"><path fill="#b3902f" d="M 325.851562 344.207031 C 325.851562 344.207031 326.015625 344.597656 326.367188 344.933594 C 326.714844 345.273438 327.269531 345.539062 328.011719 345.304688 C 328.0625 345.289062 328.105469 345.25 328.105469 345.210938 C 328.128906 344.671875 327.578125 344.433594 327.003906 344.316406 C 326.433594 344.199219 325.851562 344.207031 325.851562 344.207031 " fill-opacity="1" fill-rule="nonzero"/></g><path fill="#b3902f" d="M 326.933594 342.101562 C 326.933594 342.101562 326.78125 342.496094 326.800781 342.980469 C 326.816406 343.464844 327.03125 344.042969 327.726562 344.390625 C 327.773438 344.414062 327.832031 344.414062 327.859375 344.390625 C 328.253906 344.015625 328.019531 343.460938 327.691406 342.980469 C 327.359375 342.5 326.933594 342.101562 326.933594 342.101562 " fill-opacity="1" fill-rule="nonzero"/><path fill="#1c263b" d="M 345.644531 337.980469 L 346.265625 335.21875 L 337.5 331.871094 L 328.730469 335.179688 L 329.363281 338.027344 L 327.667969 335.441406 C 327.667969 335.441406 328.796875 347.800781 337.5 353.96875 C 346.203125 347.800781 347.332031 335.441406 347.332031 335.441406 L 345.644531 337.980469 " fill-opacity="1" fill-rule="nonzero"/><path fill="#eceff1" d="M 337.800781 348.101562 C 337.828125 348.078125 337.855469 348.046875 337.886719 348.023438 L 337.980469 347.953125 L 338.078125 347.890625 C 338.144531 347.851562 338.207031 347.8125 338.277344 347.78125 C 338.347656 347.746094 338.421875 347.71875 338.492188 347.691406 C 338.566406 347.664062 338.636719 347.640625 338.710938 347.621094 C 338.785156 347.597656 338.859375 347.582031 338.9375 347.566406 C 339.011719 347.546875 339.085938 347.535156 339.164062 347.523438 C 339.46875 347.480469 339.78125 347.464844 340.089844 347.472656 C 340.246094 347.476562 340.398438 347.484375 340.554688 347.496094 C 340.628906 347.503906 340.707031 347.511719 340.785156 347.519531 C 340.859375 347.53125 340.9375 347.539062 341.011719 347.554688 L 341.160156 347.578125 L 341.164062 347.425781 C 341.167969 347.0625 341.167969 346.699219 341.171875 346.339844 L 341.171875 345.253906 C 341.167969 344.890625 341.167969 344.527344 341.160156 344.167969 C 341.15625 343.804688 341.148438 343.441406 341.140625 343.082031 L 341.136719 342.949219 L 341.011719 342.972656 C 340.804688 343.015625 340.59375 343.058594 340.386719 343.101562 L 339.761719 343.234375 C 339.34375 343.328125 338.929688 343.417969 338.511719 343.519531 C 338.9375 343.476562 339.363281 343.421875 339.785156 343.367188 L 340.417969 343.277344 C 340.585938 343.253906 340.753906 343.230469 340.921875 343.203125 C 340.914062 343.523438 340.90625 343.84375 340.902344 344.167969 C 340.898438 344.527344 340.894531 344.890625 340.894531 345.253906 L 340.890625 345.796875 L 340.890625 346.339844 C 340.894531 346.652344 340.894531 346.964844 340.898438 347.277344 C 340.871094 347.273438 340.839844 347.269531 340.8125 347.269531 C 340.730469 347.261719 340.648438 347.253906 340.570312 347.25 C 340.410156 347.242188 340.25 347.238281 340.089844 347.242188 C 339.769531 347.25 339.445312 347.28125 339.132812 347.347656 C 339.054688 347.367188 338.976562 347.386719 338.898438 347.40625 C 338.820312 347.429688 338.742188 347.453125 338.667969 347.480469 C 338.589844 347.507812 338.515625 347.539062 338.441406 347.574219 C 338.371094 347.609375 338.296875 347.644531 338.230469 347.6875 C 338.160156 347.726562 338.09375 347.773438 338.027344 347.824219 L 337.933594 347.898438 L 337.847656 347.984375 C 337.820312 348.007812 337.792969 348.042969 337.765625 348.070312 C 337.742188 348.101562 337.714844 348.132812 337.695312 348.167969 C 337.644531 348.230469 337.609375 348.300781 337.570312 348.367188 C 337.617188 348.304688 337.664062 348.242188 337.71875 348.183594 C 337.742188 348.15625 337.769531 348.128906 337.800781 348.101562 " fill-opacity="1" fill-rule="nonzero"/><path fill="#eceff1" d="M 341.777344 345.589844 L 341.335938 345.582031 L 341.335938 345.867188 L 341.648438 345.859375 L 341.6875 348.019531 C 341.527344 348 341.371094 347.988281 341.210938 347.976562 C 341.019531 347.964844 340.824219 347.957031 340.632812 347.957031 C 340.246094 347.953125 339.855469 347.96875 339.472656 348.019531 C 339.378906 348.03125 339.28125 348.046875 339.1875 348.066406 C 339.089844 348.082031 338.996094 348.105469 338.902344 348.125 L 338.761719 348.164062 L 338.625 348.210938 C 338.53125 348.242188 338.441406 348.273438 338.355469 348.316406 C 338.308594 348.335938 338.265625 348.359375 338.226562 348.382812 C 338.183594 348.40625 338.140625 348.429688 338.101562 348.457031 C 338.019531 348.511719 337.941406 348.570312 337.871094 348.636719 C 337.839844 348.671875 337.804688 348.707031 337.773438 348.746094 C 337.746094 348.785156 337.714844 348.820312 337.691406 348.863281 C 337.667969 348.90625 337.640625 348.945312 337.621094 348.988281 L 337.570312 349.125 L 337.625 348.992188 C 337.648438 348.949219 337.675781 348.910156 337.699219 348.867188 C 337.726562 348.828125 337.757812 348.792969 337.785156 348.753906 C 337.816406 348.71875 337.855469 348.6875 337.886719 348.652344 C 337.960938 348.589844 338.035156 348.535156 338.117188 348.484375 C 338.15625 348.460938 338.199219 348.441406 338.242188 348.417969 C 338.285156 348.394531 338.328125 348.375 338.371094 348.359375 C 338.460938 348.320312 338.550781 348.289062 338.640625 348.261719 L 338.777344 348.222656 L 338.917969 348.191406 C 339.011719 348.171875 339.105469 348.152344 339.199219 348.140625 C 339.292969 348.125 339.386719 348.117188 339.484375 348.105469 C 339.863281 348.070312 340.246094 348.070312 340.628906 348.085938 C 340.816406 348.097656 341.007812 348.109375 341.199219 348.128906 C 341.386719 348.148438 341.578125 348.171875 341.765625 348.203125 L 341.863281 348.21875 L 341.863281 348.117188 L 341.910156 345.722656 L 341.914062 345.59375 L 341.777344 345.589844 " fill-opacity="1" fill-rule="nonzero"/><path fill="#eceff1" d="M 337.199219 348.101562 C 337.167969 348.078125 337.144531 348.046875 337.109375 348.023438 L 337.019531 347.953125 L 336.921875 347.890625 C 336.855469 347.851562 336.789062 347.8125 336.71875 347.78125 C 336.652344 347.746094 336.578125 347.71875 336.507812 347.691406 C 336.433594 347.664062 336.359375 347.640625 336.285156 347.621094 C 336.210938 347.597656 336.136719 347.582031 336.0625 347.566406 C 335.988281 347.546875 335.910156 347.535156 335.835938 347.523438 C 335.527344 347.480469 335.21875 347.464844 334.910156 347.472656 C 334.753906 347.476562 334.597656 347.484375 334.445312 347.496094 C 334.367188 347.503906 334.289062 347.511719 334.214844 347.519531 C 334.136719 347.53125 334.058594 347.539062 333.988281 347.554688 L 333.839844 347.578125 L 333.835938 347.425781 C 333.828125 347.0625 333.828125 346.699219 333.828125 346.339844 L 333.824219 345.796875 L 333.828125 345.253906 C 333.828125 344.890625 333.832031 344.527344 333.839844 344.167969 C 333.84375 343.804688 333.847656 343.441406 333.859375 343.082031 L 333.863281 342.949219 L 333.984375 342.972656 C 334.195312 343.015625 334.402344 343.058594 334.613281 343.101562 L 335.238281 343.234375 C 335.652344 343.328125 336.070312 343.417969 336.484375 343.519531 C 336.058594 343.476562 335.636719 343.421875 335.214844 343.367188 L 334.582031 343.277344 C 334.414062 343.253906 334.246094 343.230469 334.078125 343.203125 C 334.085938 343.523438 334.089844 343.84375 334.09375 344.167969 C 334.101562 344.527344 334.105469 344.890625 334.105469 345.253906 L 334.109375 345.796875 L 334.105469 346.339844 C 334.105469 346.652344 334.101562 346.964844 334.097656 347.277344 C 334.128906 347.273438 334.15625 347.269531 334.1875 347.269531 C 334.269531 347.261719 334.347656 347.253906 334.429688 347.25 C 334.589844 347.242188 334.75 347.238281 334.910156 347.242188 C 335.230469 347.25 335.550781 347.28125 335.867188 347.347656 C 335.945312 347.367188 336.023438 347.386719 336.101562 347.40625 C 336.179688 347.429688 336.253906 347.453125 336.332031 347.480469 C 336.40625 347.507812 336.480469 347.539062 336.554688 347.574219 C 336.628906 347.609375 336.699219 347.644531 336.769531 347.6875 C 336.839844 347.726562 336.90625 347.773438 336.96875 347.824219 L 337.0625 347.898438 L 337.148438 347.984375 C 337.179688 348.007812 337.203125 348.042969 337.230469 348.070312 C 337.257812 348.101562 337.28125 348.132812 337.304688 348.167969 C 337.351562 348.230469 337.390625 348.300781 337.429688 348.367188 C 337.382812 348.304688 337.335938 348.242188 337.28125 348.183594 C 337.253906 348.15625 337.226562 348.128906 337.199219 348.101562 " fill-opacity="1" fill-rule="nonzero"/><path fill="#eceff1" d="M 333.222656 345.589844 L 333.660156 345.582031 L 333.660156 345.867188 L 333.351562 345.859375 L 333.3125 348.019531 C 333.46875 348 333.628906 347.988281 333.789062 347.976562 C 333.980469 347.964844 334.175781 347.957031 334.367188 347.957031 C 334.753906 347.953125 335.140625 347.96875 335.523438 348.019531 C 335.621094 348.03125 335.714844 348.046875 335.8125 348.066406 C 335.90625 348.082031 336 348.105469 336.09375 348.125 L 336.234375 348.164062 L 336.375 348.210938 C 336.464844 348.242188 336.554688 348.273438 336.644531 348.316406 C 336.6875 348.335938 336.730469 348.359375 336.773438 348.382812 C 336.816406 348.40625 336.859375 348.429688 336.898438 348.457031 C 336.980469 348.511719 337.054688 348.570312 337.125 348.636719 C 337.15625 348.671875 337.195312 348.707031 337.222656 348.746094 C 337.253906 348.785156 337.28125 348.820312 337.308594 348.863281 C 337.332031 348.90625 337.355469 348.945312 337.378906 348.988281 L 337.429688 349.125 L 337.371094 348.992188 C 337.351562 348.949219 337.324219 348.910156 337.300781 348.867188 C 337.273438 348.828125 337.242188 348.792969 337.210938 348.753906 C 337.179688 348.71875 337.144531 348.6875 337.109375 348.652344 C 337.039062 348.589844 336.960938 348.535156 336.878906 348.484375 C 336.839844 348.460938 336.796875 348.441406 336.753906 348.417969 C 336.714844 348.394531 336.667969 348.375 336.625 348.359375 C 336.539062 348.320312 336.449219 348.289062 336.355469 348.261719 L 336.21875 348.222656 L 336.082031 348.191406 C 335.988281 348.171875 335.894531 348.152344 335.800781 348.140625 C 335.703125 348.125 335.609375 348.117188 335.515625 348.105469 C 335.136719 348.070312 334.753906 348.070312 334.371094 348.085938 C 334.179688 348.097656 333.988281 348.109375 333.800781 348.128906 C 333.609375 348.148438 333.417969 348.171875 333.234375 348.203125 L 333.136719 348.21875 L 333.132812 348.117188 L 333.085938 345.722656 L 333.085938 345.59375 L 333.222656 345.589844 " fill-opacity="1" fill-rule="nonzero"/><path fill="#eceff1" d="M 339.300781 340.273438 C 337.722656 340.273438 337.5 341.054688 337.5 341.054688 C 337.5 341.054688 337.273438 340.273438 335.695312 340.273438 C 335.695312 340.273438 336.710938 342.394531 336.597656 344.070312 L 338.398438 344.070312 C 338.289062 342.394531 339.300781 340.273438 339.300781 340.273438 " fill-opacity="1" fill-rule="nonzero"/><path fill="#eceff1" d="M 336.597656 339.324219 L 336.597656 340.046875 L 337.5 340.550781 L 338.398438 340.046875 L 338.398438 339.324219 C 338.398438 339.324219 338.570312 339.203125 338.734375 339.015625 C 338.921875 338.792969 339.019531 338.507812 339.019531 338.214844 L 339.019531 336.976562 L 335.980469 336.976562 L 335.980469 338.257812 C 335.980469 338.488281 336.042969 338.714844 336.175781 338.902344 C 336.359375 339.15625 336.597656 339.324219 336.597656 339.324219 " fill-opacity="1" fill-rule="nonzero"/><path fill="#eceff1" d="M 337.5 335.457031 L 334.824219 336.703125 L 335.4375 337.121094 L 335.4375 337.902344 C 335.417969 337.9375 335.402344 337.996094 335.402344 338.066406 C 335.402344 338.171875 335.4375 338.261719 335.480469 338.261719 C 335.519531 338.261719 335.554688 338.171875 335.554688 338.066406 C 335.554688 337.996094 335.542969 337.9375 335.519531 337.902344 L 335.519531 337.175781 L 335.65625 337.269531 C 336.113281 336.960938 337.496094 337.011719 337.5 337.011719 C 337.5 337.011719 338.886719 336.960938 339.34375 337.269531 L 340.175781 336.703125 L 337.5 335.457031 " fill-opacity="1" fill-rule="nonzero"/><g fill="#000000" fill-opacity="1"><g transform="translate(314.71732, 328.580519)"><g><path d="M 3.140625 -6.734375 L 4.234375 -3.40625 C 4.347656 -3.050781 4.367188 -2.707031 4.296875 -2.375 C 4.234375 -2.039062 4.070312 -1.734375 3.8125 -1.453125 C 3.5625 -1.179688 3.203125 -0.96875 2.734375 -0.8125 C 2.046875 -0.582031 1.46875 -0.582031 1 -0.8125 C 0.53125 -1.050781 0.195312 -1.457031 0 -2.03125 L -1.078125 -5.34375 L 0 -5.703125 L 1.03125 -2.546875 C 1.175781 -2.117188 1.363281 -1.847656 1.59375 -1.734375 C 1.820312 -1.628906 2.101562 -1.628906 2.4375 -1.734375 C 2.675781 -1.816406 2.859375 -1.921875 2.984375 -2.046875 C 3.109375 -2.179688 3.175781 -2.347656 3.1875 -2.546875 C 3.195312 -2.742188 3.160156 -2.96875 3.078125 -3.21875 L 2.046875 -6.375 Z M 3.140625 -6.734375 "/></g></g></g><g fill="#000000" fill-opacity="1"><g transform="translate(319.970085, 326.855249)"><g><path d="M 0.921875 -5.78125 C 1.398438 -5.894531 1.804688 -5.929688 2.140625 -5.890625 C 2.472656 -5.847656 2.742188 -5.726562 2.953125 -5.53125 C 3.160156 -5.332031 3.304688 -5.054688 3.390625 -4.703125 C 3.453125 -4.460938 3.457031 -4.242188 3.40625 -4.046875 C 3.363281 -3.847656 3.28125 -3.664062 3.15625 -3.5 C 3.039062 -3.34375 2.910156 -3.207031 2.765625 -3.09375 L 4.859375 -1.171875 L 3.609375 -0.875 L 1.890625 -2.59375 L 1.296875 -2.4375 L 1.78125 -0.421875 L 0.65625 -0.15625 L -0.609375 -5.40625 Z M 1.0625 -4.84375 L 0.734375 -4.75 L 1.078125 -3.34375 L 1.421875 -3.4375 C 1.796875 -3.53125 2.046875 -3.65625 2.171875 -3.8125 C 2.296875 -3.96875 2.332031 -4.164062 2.28125 -4.40625 C 2.21875 -4.664062 2.085938 -4.820312 1.890625 -4.875 C 1.691406 -4.9375 1.414062 -4.925781 1.0625 -4.84375 Z M 1.0625 -4.84375 "/></g></g></g><g fill="#000000" fill-opacity="1"><g transform="translate(324.646429, 325.713434)"><g><path d="M 3.9375 -0.640625 L 3.34375 -1.84375 L 1.40625 -1.53125 L 1.21875 -0.203125 L 0 0 L 1.015625 -5.65625 L 2.40625 -5.890625 L 5.15625 -0.828125 Z M 2.90625 -2.75 L 2.328125 -3.921875 C 2.296875 -3.992188 2.25 -4.09375 2.1875 -4.21875 C 2.125 -4.34375 2.0625 -4.46875 2 -4.59375 C 1.9375 -4.726562 1.882812 -4.84375 1.84375 -4.9375 C 1.84375 -4.832031 1.828125 -4.703125 1.796875 -4.546875 C 1.773438 -4.398438 1.757812 -4.253906 1.75 -4.109375 C 1.738281 -3.972656 1.722656 -3.875 1.703125 -3.8125 L 1.515625 -2.515625 Z M 2.90625 -2.75 "/></g></g></g><g fill="#000000" fill-opacity="1"><g transform="translate(329.624236, 324.913157)"><g><path d="M 2.578125 -4.765625 C 2.359375 -4.742188 2.171875 -4.679688 2.015625 -4.578125 C 1.859375 -4.472656 1.726562 -4.335938 1.625 -4.171875 C 1.53125 -4.003906 1.460938 -3.804688 1.421875 -3.578125 C 1.378906 -3.347656 1.375 -3.09375 1.40625 -2.8125 C 1.4375 -2.4375 1.507812 -2.113281 1.625 -1.84375 C 1.738281 -1.582031 1.894531 -1.390625 2.09375 -1.265625 C 2.300781 -1.140625 2.5625 -1.09375 2.875 -1.125 C 3.09375 -1.144531 3.3125 -1.1875 3.53125 -1.25 C 3.757812 -1.320312 3.992188 -1.410156 4.234375 -1.515625 L 4.3125 -0.5625 C 4.082031 -0.445312 3.851562 -0.359375 3.625 -0.296875 C 3.394531 -0.234375 3.132812 -0.1875 2.84375 -0.15625 C 2.300781 -0.113281 1.84375 -0.191406 1.46875 -0.390625 C 1.09375 -0.585938 0.800781 -0.882812 0.59375 -1.28125 C 0.382812 -1.6875 0.257812 -2.160156 0.21875 -2.703125 C 0.175781 -3.117188 0.195312 -3.5 0.28125 -3.84375 C 0.363281 -4.195312 0.503906 -4.503906 0.703125 -4.765625 C 0.898438 -5.035156 1.144531 -5.25 1.4375 -5.40625 C 1.738281 -5.570312 2.09375 -5.671875 2.5 -5.703125 C 2.769531 -5.722656 3.039062 -5.707031 3.3125 -5.65625 C 3.59375 -5.613281 3.859375 -5.546875 4.109375 -5.453125 L 3.828125 -4.5 C 3.609375 -4.582031 3.394531 -4.648438 3.1875 -4.703125 C 2.976562 -4.753906 2.773438 -4.773438 2.578125 -4.765625 Z M 2.578125 -4.765625 "/></g></g></g><g fill="#000000" fill-opacity="1"><g transform="translate(334.250083, 324.511915)"><g><path d="M 3.984375 -0.03125 L 3.578125 -1.3125 L 1.609375 -1.296875 L 1.234375 -0.015625 L 0 0 L 1.875 -5.4375 L 3.28125 -5.453125 L 5.21875 -0.03125 Z M 3.296875 -2.28125 L 2.890625 -3.515625 C 2.867188 -3.597656 2.835938 -3.703125 2.796875 -3.828125 C 2.753906 -3.960938 2.710938 -4.097656 2.671875 -4.234375 C 2.628906 -4.378906 2.597656 -4.5 2.578125 -4.59375 C 2.554688 -4.5 2.519531 -4.375 2.46875 -4.21875 C 2.425781 -4.070312 2.382812 -3.929688 2.34375 -3.796875 C 2.3125 -3.660156 2.285156 -3.566406 2.265625 -3.515625 L 1.890625 -2.265625 Z M 3.296875 -2.28125 "/></g></g></g><g fill="#000000" fill-opacity="1"><g transform="translate(339.278655, 324.46014)"><g><path d="M 5.34375 -2.359375 C 5.300781 -1.753906 5.144531 -1.253906 4.875 -0.859375 C 4.613281 -0.472656 4.253906 -0.191406 3.796875 -0.015625 C 3.347656 0.148438 2.816406 0.210938 2.203125 0.171875 L 0.671875 0.046875 L 1.078125 -5.34375 L 2.78125 -5.21875 C 3.332031 -5.175781 3.804688 -5.035156 4.203125 -4.796875 C 4.609375 -4.566406 4.910156 -4.242188 5.109375 -3.828125 C 5.304688 -3.421875 5.382812 -2.929688 5.34375 -2.359375 Z M 4.15625 -2.421875 C 4.1875 -2.804688 4.15625 -3.132812 4.0625 -3.40625 C 3.96875 -3.675781 3.804688 -3.878906 3.578125 -4.015625 C 3.359375 -4.148438 3.085938 -4.226562 2.765625 -4.25 L 2.15625 -4.296875 L 1.90625 -0.8125 L 2.390625 -0.78125 C 2.941406 -0.738281 3.363281 -0.851562 3.65625 -1.125 C 3.945312 -1.40625 4.113281 -1.835938 4.15625 -2.421875 Z M 4.15625 -2.421875 "/></g></g></g><g fill="#000000" fill-opacity="1"><g transform="translate(344.687349, 324.885098)"><g><path d="M 3.734375 0.5625 L 0.671875 0.09375 L 1.484375 -5.25 L 4.546875 -4.78125 L 4.40625 -3.84375 L 2.484375 -4.140625 L 2.296875 -2.984375 L 4.09375 -2.703125 L 3.953125 -1.765625 L 2.15625 -2.046875 L 1.953125 -0.671875 L 3.875 -0.375 Z M 3.734375 0.5625 "/></g></g></g><g fill="#000000" fill-opacity="1"><g transform="translate(348.691437, 325.416618)"><g><path d="M 2.890625 0.6875 L 2.609375 -3.71875 L 2.5625 -3.734375 C 2.550781 -3.628906 2.523438 -3.476562 2.484375 -3.28125 C 2.453125 -3.082031 2.414062 -2.867188 2.375 -2.640625 C 2.332031 -2.421875 2.289062 -2.226562 2.25 -2.0625 L 1.65625 0.390625 L 0.65625 0.15625 L 1.921875 -5.09375 L 3.4375 -4.734375 L 3.71875 -0.40625 L 3.734375 -0.40625 L 6.015625 -4.109375 L 7.546875 -3.734375 L 6.28125 1.515625 L 5.234375 1.265625 L 5.828125 -1.21875 C 5.867188 -1.382812 5.914062 -1.570312 5.96875 -1.78125 C 6.03125 -2 6.085938 -2.207031 6.140625 -2.40625 C 6.203125 -2.601562 6.242188 -2.75 6.265625 -2.84375 L 6.234375 -2.84375 L 3.90625 0.9375 Z M 2.890625 0.6875 "/></g></g></g><g fill="#000000" fill-opacity="1"><g transform="translate(355.411894, 327.078734)"><g><path d="M 3.25 -2.25 L 5.03125 -4.015625 L 6.203125 -3.609375 L 3.4375 -1.046875 L 2.765625 0.9375 L 1.703125 0.578125 L 2.359375 -1.375 L 1.734375 -5.125 L 2.90625 -4.734375 Z M 3.25 -2.25 "/></g></g></g></svg>