<svg xmlns="http://www.w3.org/2000/svg" xmlns:xlink="http://www.w3.org/1999/xlink" width="500" zoomAndPan="magnify" viewBox="0 0 375 374.999991" height="500" preserveAspectRatio="xMidYMid meet" version="1.0"><defs><g/><clipPath id="b70f70d1db"><path d="M 17.914062 30 L 356.914062 30 L 356.914062 336 L 17.914062 336 Z M 17.914062 30 " clip-rule="nonzero"/></clipPath><clipPath id="a25cbdbb08"><path d="M 335 327.136719 L 340 327.136719 L 340 332 L 335 332 Z M 335 327.136719 " clip-rule="nonzero"/></clipPath><clipPath id="5e002f28b9"><path d="M 337.613281 355.820312 L 339.933594 355.820312 L 339.933594 357.414062 L 337.613281 357.414062 Z M 337.613281 355.820312 " clip-rule="nonzero"/></clipPath><clipPath id="d7dd8afcb7"><path d="M 346.863281 344.25 L 349.097656 344.25 L 349.097656 345.488281 L 346.863281 345.488281 Z M 346.863281 344.25 " clip-rule="nonzero"/></clipPath><clipPath id="d9b1e7dcd2"><path d="M 335 355 L 338 355 L 338 357.414062 L 335 357.414062 Z M 335 355 " clip-rule="nonzero"/></clipPath><clipPath id="af642611d1"><path d="M 325.851562 344 L 329 344 L 329 346 L 325.851562 346 Z M 325.851562 344 " clip-rule="nonzero"/></clipPath></defs><rect x="-37.5" width="450" fill="#ffffff" y="-37.499999" height="449.999989" fill-opacity="1"/><rect x="-37.5" width="450" fill="#ffffff" y="-37.499999" height="449.999989" fill-opacity="1"/><path fill="#39c1d7" d="M 217.835938 183.351562 C 217.835938 184.351562 217.789062 185.34375 217.691406 186.339844 C 217.59375 187.332031 217.445312 188.316406 217.25 189.296875 C 217.058594 190.277344 216.816406 191.242188 216.527344 192.199219 C 216.238281 193.152344 215.902344 194.089844 215.519531 195.011719 C 215.140625 195.933594 214.714844 196.835938 214.242188 197.71875 C 213.773438 198.597656 213.261719 199.453125 212.707031 200.28125 C 212.15625 201.113281 211.5625 201.914062 210.929688 202.683594 C 210.296875 203.457031 209.628906 204.195312 208.925781 204.898438 C 208.222656 205.605469 207.484375 206.273438 206.714844 206.90625 C 205.941406 207.542969 205.144531 208.136719 204.316406 208.691406 C 203.488281 209.242188 202.632812 209.757812 201.753906 210.226562 C 200.875 210.699219 199.976562 211.125 199.054688 211.503906 C 198.136719 211.886719 197.199219 212.222656 196.246094 212.511719 C 195.289062 212.804688 194.324219 213.046875 193.347656 213.238281 C 192.371094 213.433594 191.386719 213.582031 190.394531 213.679688 C 189.402344 213.777344 188.410156 213.824219 187.414062 213.824219 C 186.417969 213.824219 185.421875 213.777344 184.429688 213.679688 C 183.4375 213.582031 182.453125 213.433594 181.476562 213.238281 C 180.5 213.046875 179.535156 212.804688 178.582031 212.511719 C 177.628906 212.222656 176.691406 211.886719 175.769531 211.503906 C 174.851562 211.125 173.949219 210.699219 173.070312 210.226562 C 172.191406 209.757812 171.339844 209.242188 170.511719 208.691406 C 169.683594 208.136719 168.882812 207.542969 168.113281 206.90625 C 167.34375 206.273438 166.605469 205.605469 165.902344 204.898438 C 165.195312 204.195312 164.527344 203.457031 163.894531 202.683594 C 163.261719 201.914062 162.671875 201.113281 162.117188 200.28125 C 161.5625 199.453125 161.050781 198.597656 160.582031 197.71875 C 160.113281 196.835938 159.6875 195.933594 159.304688 195.011719 C 158.925781 194.089844 158.589844 193.152344 158.300781 192.199219 C 158.011719 191.242188 157.769531 190.277344 157.574219 189.296875 C 157.378906 188.316406 157.234375 187.332031 157.136719 186.339844 C 157.039062 185.34375 156.988281 184.351562 156.988281 183.351562 C 156.988281 182.355469 157.039062 181.359375 157.136719 180.363281 C 157.234375 179.371094 157.378906 178.386719 157.574219 177.40625 C 157.769531 176.425781 158.011719 175.460938 158.300781 174.503906 C 158.589844 173.550781 158.925781 172.613281 159.304688 171.691406 C 159.6875 170.769531 160.113281 169.867188 160.582031 168.988281 C 161.050781 168.105469 161.5625 167.25 162.117188 166.421875 C 162.671875 165.589844 163.261719 164.789062 163.894531 164.019531 C 164.527344 163.246094 165.195312 162.507812 165.902344 161.804688 C 166.605469 161.097656 167.34375 160.429688 168.113281 159.796875 C 168.882812 159.160156 169.683594 158.566406 170.511719 158.015625 C 171.339844 157.460938 172.191406 156.945312 173.070312 156.476562 C 173.949219 156.003906 174.851562 155.578125 175.769531 155.199219 C 176.691406 154.816406 177.628906 154.480469 178.582031 154.191406 C 179.535156 153.902344 180.5 153.660156 181.476562 153.464844 C 182.453125 153.269531 183.4375 153.121094 184.429688 153.023438 C 185.421875 152.925781 186.417969 152.878906 187.414062 152.878906 C 188.410156 152.878906 189.402344 152.925781 190.394531 153.023438 C 191.386719 153.121094 192.371094 153.269531 193.347656 153.464844 C 194.324219 153.660156 195.289062 153.902344 196.246094 154.191406 C 197.199219 154.480469 198.136719 154.816406 199.054688 155.199219 C 199.976562 155.578125 200.875 156.003906 201.753906 156.476562 C 202.632812 156.945312 203.488281 157.460938 204.316406 158.015625 C 205.144531 158.566406 205.941406 159.160156 206.714844 159.796875 C 207.484375 160.429688 208.222656 161.097656 208.925781 161.804688 C 209.628906 162.507812 210.296875 163.246094 210.929688 164.019531 C 211.5625 164.789062 212.15625 165.589844 212.707031 166.421875 C 213.261719 167.25 213.773438 168.105469 214.242188 168.988281 C 214.714844 169.867188 215.140625 170.769531 215.519531 171.691406 C 215.902344 172.613281 216.238281 173.550781 216.527344 174.503906 C 216.816406 175.460938 217.058594 176.425781 217.25 177.40625 C 217.445312 178.386719 217.59375 179.371094 217.691406 180.363281 C 217.789062 181.359375 217.835938 182.355469 217.835938 183.351562 Z M 217.835938 183.351562 " fill-opacity="1" fill-rule="nonzero"/><path fill="#1f212b" d="M 187.414062 218.179688 C 168.242188 218.179688 152.644531 202.554688 152.644531 183.351562 C 152.644531 164.148438 168.242188 148.523438 187.414062 148.523438 C 206.582031 148.523438 222.183594 164.148438 222.183594 183.351562 C 222.183594 202.554688 206.582031 218.179688 187.414062 218.179688 Z M 187.414062 157.230469 C 173.03125 157.230469 161.335938 168.945312 161.335938 183.351562 C 161.335938 197.757812 173.03125 209.472656 187.414062 209.472656 C 201.792969 209.472656 213.488281 197.757812 213.488281 183.351562 C 213.488281 168.945312 201.792969 157.230469 187.414062 157.230469 Z M 187.414062 157.230469 " fill-opacity="1" fill-rule="nonzero"/><path fill="#39c1d7" d="M 354.738281 183.351562 C 354.738281 159.949219 326.601562 139.691406 282.949219 127.636719 C 294.171875 83.683594 290.714844 49.125 270.664062 37.394531 C 262.753906 32.769531 253.15625 31.925781 242.144531 34.875 C 225.550781 39.324219 206.535156 52.332031 187.414062 71.441406 C 168.289062 52.332031 149.277344 39.328125 132.683594 34.875 C 121.667969 31.917969 112.074219 32.769531 104.164062 37.394531 C 84.109375 49.125 80.652344 83.679688 91.875 127.636719 C 48.222656 139.691406 20.085938 159.949219 20.085938 183.351562 C 20.085938 206.753906 48.222656 227.011719 91.875 239.070312 C 80.652344 283.023438 84.109375 317.582031 104.164062 329.3125 C 108.996094 332.136719 114.453125 333.558594 120.488281 333.554688 C 124.324219 333.554688 128.398438 332.980469 132.683594 331.832031 C 149.277344 327.378906 168.289062 314.375 187.414062 295.269531 C 206.535156 314.375 225.550781 327.378906 242.144531 331.832031 C 246.429688 332.980469 250.5 333.554688 254.339844 333.554688 C 260.371094 333.554688 265.832031 332.140625 270.664062 329.3125 C 290.714844 317.582031 294.167969 283.023438 282.949219 239.070312 C 326.601562 227.011719 354.738281 206.753906 354.738281 183.351562 Z M 245.515625 47.488281 C 248.667969 46.648438 251.589844 46.21875 254.277344 46.21875 C 258.015625 46.21875 261.300781 47.039062 264.085938 48.671875 C 277.527344 56.535156 280.269531 85.328125 270.257812 124.46875 C 256.46875 121.359375 241.421875 119.023438 225.433594 117.578125 C 216.050781 104.023438 206.289062 91.6875 196.453125 80.882812 C 213.914062 63.351562 231.046875 51.371094 245.515625 47.488281 Z M 234.15625 210.773438 C 229.03125 219.769531 223.636719 228.382812 218.105469 236.628906 C 208.28125 237.363281 198.042969 237.769531 187.414062 237.769531 C 176.78125 237.769531 166.542969 237.363281 156.726562 236.628906 C 151.191406 228.382812 145.796875 219.769531 140.675781 210.773438 C 135.375 201.476562 130.621094 192.316406 126.363281 183.355469 C 130.621094 174.398438 135.375 165.238281 140.675781 155.933594 C 145.804688 146.9375 151.191406 138.320312 156.730469 130.074219 C 166.546875 129.339844 176.78125 128.933594 187.414062 128.933594 C 198.042969 128.933594 208.277344 129.339844 218.101562 130.074219 C 223.632812 138.320312 229.027344 146.941406 234.15625 155.933594 C 239.453125 165.234375 244.207031 174.390625 248.46875 183.355469 C 244.207031 192.316406 239.453125 201.476562 234.15625 210.773438 Z M 255.402344 198.785156 C 259.929688 209.496094 263.667969 219.8125 266.691406 229.613281 C 256.804688 231.820312 246.128906 233.664062 234.730469 235.027344 C 238.390625 229.253906 241.996094 223.351562 245.476562 217.242188 C 249.003906 211.066406 252.292969 204.90625 255.402344 198.785156 Z M 187.414062 276.328125 C 180.300781 268.453125 173.207031 259.730469 166.273438 250.296875 C 173.191406 250.632812 180.234375 250.828125 187.414062 250.828125 C 194.59375 250.828125 201.632812 250.632812 208.550781 250.296875 C 201.621094 259.726562 194.523438 268.445312 187.414062 276.328125 Z M 140.09375 235.027344 C 128.695312 233.664062 118.019531 231.820312 108.128906 229.613281 C 111.15625 219.8125 114.894531 209.492188 119.417969 198.785156 C 122.527344 204.90625 125.824219 211.066406 129.34375 217.242188 C 132.828125 223.355469 136.433594 229.257812 140.09375 235.027344 Z M 119.421875 167.921875 C 114.898438 157.210938 111.15625 146.890625 108.136719 137.085938 C 118.023438 134.875 128.699219 133.035156 140.101562 131.671875 C 136.4375 137.445312 132.832031 143.351562 129.351562 149.460938 C 125.824219 155.640625 122.535156 161.800781 119.421875 167.921875 Z M 187.414062 90.382812 C 194.523438 98.257812 201.621094 106.976562 208.550781 116.410156 C 201.632812 116.070312 194.59375 115.875 187.414062 115.875 C 180.234375 115.875 173.191406 116.070312 166.273438 116.40625 C 173.207031 106.976562 180.300781 98.257812 187.414062 90.382812 Z M 245.476562 149.464844 C 241.996094 143.351562 238.390625 137.449219 234.730469 131.675781 C 246.128906 133.039062 256.804688 134.882812 266.695312 137.089844 C 263.671875 146.898438 259.933594 157.210938 255.410156 167.925781 C 252.292969 161.800781 249.003906 155.640625 245.476562 149.464844 Z M 110.738281 48.671875 C 113.527344 47.039062 116.804688 46.21875 120.546875 46.21875 C 123.234375 46.21875 126.164062 46.648438 129.308594 47.488281 C 143.777344 51.371094 160.910156 63.347656 178.371094 80.878906 C 168.539062 91.683594 158.777344 104.023438 149.394531 117.570312 C 133.402344 119.015625 118.351562 121.355469 104.566406 124.464844 C 94.558594 85.324219 97.300781 56.527344 110.738281 48.671875 Z M 33.125 183.351562 C 33.125 167.695312 56.597656 150.960938 95.425781 140.25 C 99.636719 154 105.167969 168.484375 111.96875 183.351562 C 105.167969 198.21875 99.636719 212.703125 95.425781 226.453125 C 56.597656 215.742188 33.125 199.007812 33.125 183.351562 Z M 129.308594 319.214844 C 121.777344 321.226562 115.53125 320.832031 110.738281 318.035156 C 97.300781 310.175781 94.5625 281.382812 104.566406 242.238281 C 118.351562 245.347656 133.402344 247.6875 149.386719 249.132812 C 158.773438 262.683594 168.535156 275.019531 178.367188 285.832031 C 160.910156 303.355469 143.777344 315.332031 129.308594 319.214844 Z M 264.085938 318.035156 C 259.292969 320.839844 253.054688 321.230469 245.515625 319.214844 C 231.046875 315.332031 213.914062 303.355469 196.453125 285.824219 C 206.289062 275.019531 216.050781 262.679688 225.433594 249.125 C 241.421875 247.679688 256.46875 245.34375 270.253906 242.234375 C 280.269531 281.382812 277.527344 310.175781 264.085938 318.035156 Z M 279.398438 226.453125 C 275.1875 212.703125 269.660156 198.21875 262.859375 183.351562 C 269.660156 168.484375 275.1875 153.996094 279.398438 140.25 C 318.226562 150.960938 341.703125 167.695312 341.703125 183.351562 C 341.703125 199.007812 318.226562 215.742188 279.398438 226.453125 Z M 279.398438 226.453125 " fill-opacity="1" fill-rule="nonzero"/><g clip-path="url(#b70f70d1db)"><path fill="#1f212b" d="M 120.460938 335.730469 C 114.066406 335.730469 108.21875 334.199219 103.070312 331.1875 C 82.941406 319.410156 77.9375 286.453125 89.257812 240.589844 C 43.882812 227.664062 17.914062 206.859375 17.914062 183.351562 C 17.914062 159.84375 43.882812 139.039062 89.253906 126.113281 C 77.9375 80.25 82.941406 47.292969 103.070312 35.515625 C 111.496094 30.578125 121.644531 29.65625 133.246094 32.773438 C 149.40625 37.109375 168.101562 49.402344 187.414062 68.378906 C 206.726562 49.402344 225.425781 37.109375 241.578125 32.773438 C 253.179688 29.664062 263.332031 30.585938 271.757812 35.515625 C 291.886719 47.292969 296.886719 80.25 285.570312 126.113281 C 330.945312 139.039062 356.914062 159.84375 356.914062 183.351562 C 356.914062 206.859375 330.945312 227.664062 285.570312 240.589844 C 296.886719 286.453125 291.890625 319.40625 271.757812 331.1875 C 263.382812 336.085938 253.132812 337.03125 241.582031 333.929688 C 225.421875 329.59375 206.722656 317.300781 187.414062 298.328125 C 168.101562 317.300781 149.40625 329.597656 133.246094 333.929688 C 128.800781 335.125 124.507812 335.730469 120.488281 335.730469 C 120.476562 335.730469 120.46875 335.730469 120.460938 335.730469 Z M 120.5 35.332031 C 114.84375 35.332031 109.746094 36.648438 105.257812 39.277344 C 86.898438 50.015625 82.683594 82.84375 93.980469 127.097656 C 94.269531 128.246094 93.59375 129.421875 92.449219 129.734375 C 48.5 141.871094 22.257812 161.921875 22.257812 183.351562 C 22.257812 204.785156 48.5 224.832031 92.453125 236.96875 C 93.597656 237.28125 94.273438 238.457031 93.984375 239.605469 C 82.683594 283.859375 86.898438 316.691406 105.257812 327.425781 C 109.734375 330.042969 114.847656 331.371094 120.460938 331.371094 C 120.46875 331.371094 120.476562 331.371094 120.488281 331.371094 C 124.128906 331.371094 128.039062 330.816406 132.121094 329.726562 C 147.972656 325.472656 166.566406 313.027344 185.878906 293.722656 C 186.726562 292.878906 188.101562 292.878906 188.945312 293.722656 C 208.261719 313.019531 226.855469 325.46875 242.703125 329.726562 C 253.109375 332.507812 262.195312 331.730469 269.566406 327.425781 C 287.925781 316.6875 292.140625 283.859375 280.84375 239.605469 C 280.550781 238.457031 281.230469 237.28125 282.371094 236.96875 C 326.324219 224.832031 352.566406 204.785156 352.566406 183.351562 C 352.566406 161.921875 326.324219 141.871094 282.371094 129.734375 C 281.230469 129.421875 280.550781 128.246094 280.84375 127.097656 C 292.136719 82.84375 287.921875 50.011719 269.5625 39.277344 C 262.179688 34.953125 253.140625 34.183594 242.699219 36.976562 C 226.851562 41.230469 208.261719 53.675781 188.941406 72.980469 C 188.09375 73.824219 186.722656 73.824219 185.875 72.980469 C 166.554688 53.675781 147.96875 41.230469 132.117188 36.976562 C 128.027344 35.882812 124.148438 35.332031 120.5 35.332031 Z M 254.28125 322.65625 C 251.402344 322.65625 248.289062 322.210938 244.957031 321.320312 C 230.480469 317.429688 213.175781 305.695312 194.914062 287.363281 C 194.097656 286.539062 194.066406 285.214844 194.84375 284.359375 C 204.6875 273.542969 214.375 261.273438 223.648438 247.886719 C 224.011719 247.355469 224.59375 247.015625 225.238281 246.957031 C 240.9375 245.539062 255.921875 243.238281 269.78125 240.109375 C 270.914062 239.855469 272.070312 240.550781 272.363281 241.695312 C 282.515625 281.410156 279.765625 311.382812 265.183594 319.914062 C 262.058594 321.742188 258.410156 322.65625 254.28125 322.65625 Z M 199.457031 285.746094 C 216.628906 302.699219 232.71875 313.527344 246.078125 317.113281 C 253.027344 318.972656 258.71875 318.648438 262.992188 316.15625 C 275.402344 308.894531 277.582031 281.011719 268.667969 244.816406 C 255.507812 247.6875 241.386719 249.832031 226.640625 251.203125 C 217.878906 263.792969 208.742188 275.398438 199.457031 285.746094 Z M 120.542969 322.65625 C 116.414062 322.65625 112.769531 321.742188 109.644531 319.917969 C 95.0625 311.382812 92.304688 281.410156 102.464844 241.695312 C 102.753906 240.554688 103.910156 239.871094 105.042969 240.109375 C 118.898438 243.238281 133.886719 245.539062 149.589844 246.957031 C 150.226562 247.015625 150.8125 247.355469 151.179688 247.886719 C 160.449219 261.273438 170.136719 273.542969 179.980469 284.359375 C 180.761719 285.214844 180.734375 286.539062 179.910156 287.363281 C 161.648438 305.691406 144.347656 317.429688 129.875 321.320312 C 126.535156 322.207031 123.421875 322.65625 120.542969 322.65625 Z M 106.15625 244.816406 C 97.242188 281.007812 99.425781 308.894531 111.832031 316.15625 C 116.101562 318.644531 121.792969 318.972656 128.75 317.113281 C 142.109375 313.527344 158.199219 302.695312 175.371094 285.746094 C 166.085938 275.398438 156.949219 263.792969 148.1875 251.203125 C 133.441406 249.832031 119.316406 247.6875 106.15625 244.816406 Z M 187.414062 278.5 C 186.800781 278.5 186.214844 278.238281 185.800781 277.78125 C 178.574219 269.773438 171.414062 260.960938 164.523438 251.582031 C 164.027344 250.90625 163.960938 250 164.355469 249.261719 C 164.753906 248.523438 165.492188 248.070312 166.378906 248.117188 C 180.746094 248.816406 194.078125 248.816406 208.449219 248.117188 C 209.316406 248.066406 210.074219 248.523438 210.46875 249.261719 C 210.863281 250 210.804688 250.902344 210.304688 251.582031 C 203.410156 260.953125 196.253906 269.769531 189.027344 277.78125 C 188.613281 278.238281 188.027344 278.5 187.414062 278.5 Z M 170.753906 252.675781 C 176.191406 259.878906 181.78125 266.71875 187.414062 273.066406 C 193.050781 266.71875 198.632812 259.882812 204.070312 252.675781 C 192.71875 253.109375 182.105469 253.109375 170.753906 252.675781 Z M 187.414062 239.945312 C 177.117188 239.945312 166.738281 239.5625 156.558594 238.800781 C 155.894531 238.753906 155.289062 238.398438 154.917969 237.84375 C 149.105469 229.183594 143.675781 220.4375 138.785156 211.851562 C 133.65625 202.851562 128.8125 193.578125 124.398438 184.289062 C 124.117188 183.695312 124.117188 183.007812 124.398438 182.414062 C 128.8125 173.125 133.65625 163.851562 138.785156 154.851562 C 143.671875 146.273438 149.101562 137.527344 154.921875 128.855469 C 155.289062 128.304688 155.898438 127.949219 156.5625 127.898438 C 176.921875 126.375 197.910156 126.375 218.261719 127.898438 C 218.925781 127.945312 219.53125 128.300781 219.90625 128.855469 C 225.722656 137.527344 231.152344 146.273438 236.042969 154.851562 C 241.171875 163.851562 246.011719 173.125 250.429688 182.414062 C 250.710938 183.007812 250.710938 183.695312 250.429688 184.289062 C 246.011719 193.578125 241.171875 202.851562 236.042969 211.851562 C 231.148438 220.4375 225.71875 229.183594 219.910156 237.84375 C 219.539062 238.394531 218.929688 238.75 218.265625 238.800781 C 208.085938 239.5625 197.710938 239.945312 187.414062 239.945312 Z M 157.9375 234.535156 C 177.402344 235.9375 197.421875 235.9375 216.882812 234.535156 C 222.417969 226.25 227.589844 217.894531 232.265625 209.691406 C 237.167969 201.082031 241.804688 192.226562 246.054688 183.351562 C 241.804688 174.476562 237.167969 165.617188 232.265625 157.015625 C 227.59375 148.816406 222.421875 140.460938 216.878906 132.164062 C 197.414062 130.761719 177.398438 130.761719 157.933594 132.164062 C 152.394531 140.460938 147.21875 148.816406 142.546875 157.015625 C 137.644531 165.621094 133.007812 174.476562 128.757812 183.351562 C 133.007812 192.226562 137.644531 201.085938 142.546875 209.691406 C 147.234375 217.898438 152.40625 226.25 157.9375 234.535156 Z M 234.734375 237.207031 C 233.996094 237.207031 233.296875 236.828125 232.894531 236.191406 C 232.449219 235.480469 232.453125 234.574219 232.898438 233.863281 C 236.933594 227.503906 240.433594 221.714844 243.589844 216.167969 C 246.910156 210.34375 250.230469 204.160156 253.46875 197.800781 C 253.851562 197.046875 254.65625 196.597656 255.480469 196.617188 C 256.324219 196.648438 257.078125 197.160156 257.40625 197.945312 C 261.820312 208.386719 265.640625 218.832031 268.769531 228.980469 C 268.949219 229.558594 268.878906 230.191406 268.574219 230.710938 C 268.269531 231.238281 267.757812 231.613281 267.164062 231.742188 C 256.953125 234.03125 246.125 235.863281 234.992188 237.195312 C 234.902344 237.203125 234.816406 237.207031 234.734375 237.207031 Z M 255.195312 203.949219 C 252.613281 208.902344 249.988281 213.722656 247.367188 218.324219 C 244.835938 222.769531 242.082031 227.371094 239.023438 232.292969 C 247.585938 231.152344 255.929688 229.710938 263.914062 227.996094 C 261.40625 220.097656 258.484375 212.039062 255.195312 203.949219 Z M 140.09375 237.207031 C 140.003906 237.207031 139.917969 237.203125 139.832031 237.195312 C 128.699219 235.859375 117.875 234.023438 107.660156 231.738281 C 107.070312 231.609375 106.5625 231.234375 106.253906 230.707031 C 105.949219 230.179688 105.878906 229.554688 106.058594 228.976562 C 109.1875 218.824219 113.007812 208.382812 117.417969 197.941406 C 117.75 197.160156 118.5 196.640625 119.34375 196.613281 C 120.132812 196.53125 120.972656 197.042969 121.355469 197.796875 C 124.59375 204.15625 127.914062 210.339844 131.234375 216.164062 C 134.398438 221.710938 137.898438 227.5 141.925781 233.859375 C 142.378906 234.570312 142.378906 235.476562 141.929688 236.1875 C 141.53125 236.828125 140.835938 237.207031 140.09375 237.207031 Z M 110.917969 227.996094 C 118.898438 229.710938 127.246094 231.152344 135.808594 232.292969 C 132.742188 227.371094 129.996094 222.773438 127.460938 218.324219 C 124.835938 213.722656 122.214844 208.898438 119.632812 203.949219 C 116.339844 212.039062 113.417969 220.097656 110.917969 227.996094 Z M 279.398438 228.632812 C 278.464844 228.632812 277.609375 228.027344 277.320312 227.089844 C 273.085938 213.25 267.550781 198.839844 260.882812 184.261719 C 260.621094 183.6875 260.621094 183.019531 260.882812 182.445312 C 267.550781 167.867188 273.085938 153.453125 277.328125 139.609375 C 277.675781 138.480469 278.863281 137.851562 279.980469 138.152344 C 319.394531 149.03125 343.875 166.347656 343.875 183.351562 C 343.875 200.355469 319.386719 217.671875 279.972656 228.554688 C 279.78125 228.605469 279.585938 228.632812 279.398438 228.632812 Z M 265.25 183.351562 C 271.488281 197.085938 276.734375 210.679688 280.847656 223.785156 C 316.566406 213.585938 339.527344 197.8125 339.527344 183.351562 C 339.527344 168.890625 316.566406 153.117188 280.847656 142.917969 C 276.730469 156.03125 271.484375 169.621094 265.25 183.351562 Z M 95.425781 228.632812 C 95.234375 228.632812 95.042969 228.605469 94.847656 228.554688 C 55.4375 217.671875 30.953125 200.355469 30.953125 183.351562 C 30.953125 166.347656 55.433594 149.03125 94.847656 138.152344 C 95.96875 137.851562 97.15625 138.480469 97.503906 139.609375 C 101.746094 153.453125 107.277344 167.867188 113.945312 182.445312 C 114.210938 183.019531 114.210938 183.683594 113.945312 184.261719 C 107.273438 198.84375 101.746094 213.253906 97.507812 227.089844 C 97.222656 228.027344 96.359375 228.632812 95.425781 228.632812 Z M 93.980469 142.917969 C 58.257812 153.117188 35.296875 168.890625 35.296875 183.351562 C 35.296875 197.8125 58.257812 213.585938 93.980469 223.785156 C 98.09375 210.679688 103.335938 197.089844 109.578125 183.351562 C 103.339844 169.621094 98.09375 156.03125 93.980469 142.917969 Z M 255.410156 170.105469 C 254.589844 170.105469 253.84375 169.648438 253.46875 168.914062 C 250.179688 162.4375 246.945312 156.425781 243.59375 150.542969 C 240.441406 145.007812 236.941406 139.21875 232.898438 132.84375 C 232.449219 132.132812 232.449219 131.230469 232.894531 130.515625 C 233.34375 129.804688 234.144531 129.414062 234.996094 129.511719 C 246.132812 130.851562 256.960938 132.683594 267.171875 134.964844 C 267.765625 135.09375 268.273438 135.46875 268.582031 135.996094 C 268.886719 136.523438 268.957031 137.148438 268.777344 137.726562 C 265.644531 147.898438 261.820312 158.339844 257.417969 168.773438 C 257.085938 169.550781 256.335938 170.070312 255.492188 170.101562 C 255.457031 170.105469 255.429688 170.105469 255.410156 170.105469 Z M 247.363281 148.386719 C 250.019531 153.042969 252.601562 157.78125 255.191406 162.761719 C 258.476562 154.679688 261.398438 146.613281 263.90625 138.707031 C 255.921875 136.992188 247.578125 135.550781 239.011719 134.410156 C 242.085938 139.339844 244.835938 143.941406 247.363281 148.386719 Z M 119.417969 170.105469 C 119.390625 170.105469 119.367188 170.105469 119.339844 170.105469 C 118.496094 170.074219 117.742188 169.558594 117.414062 168.777344 C 113.011719 158.347656 109.1875 147.902344 106.054688 137.734375 C 105.871094 137.152344 105.945312 136.523438 106.25 136 C 106.554688 135.472656 107.066406 135.097656 107.65625 134.96875 C 117.871094 132.683594 128.695312 130.851562 139.835938 129.519531 C 140.683594 129.429688 141.488281 129.808594 141.933594 130.519531 C 142.382812 131.234375 142.378906 132.136719 141.929688 132.847656 C 137.886719 139.222656 134.390625 145.011719 131.234375 150.550781 C 127.882812 156.429688 124.648438 162.4375 121.359375 168.921875 C 120.980469 169.648438 120.234375 170.105469 119.417969 170.105469 Z M 110.917969 138.707031 C 113.425781 146.613281 116.347656 154.679688 119.628906 162.761719 C 122.226562 157.78125 124.800781 153.042969 127.457031 148.386719 C 129.992188 143.941406 132.738281 139.339844 135.808594 134.410156 C 127.246094 135.550781 118.898438 136.992188 110.917969 138.707031 Z M 270.265625 126.644531 C 270.101562 126.644531 269.945312 126.628906 269.785156 126.59375 C 255.929688 123.464844 240.941406 121.164062 225.238281 119.746094 C 224.597656 119.6875 224.011719 119.347656 223.648438 118.816406 C 214.375 105.425781 204.683594 93.160156 194.84375 82.347656 C 194.0625 81.492188 194.09375 80.167969 194.914062 79.34375 C 213.171875 61.015625 230.480469 49.273438 244.957031 45.390625 C 253.078125 43.210938 259.898438 43.703125 265.183594 46.789062 C 279.765625 55.324219 282.519531 85.296875 272.367188 125.011719 C 272.113281 125.988281 271.238281 126.644531 270.265625 126.644531 Z M 226.636719 115.5 C 241.382812 116.871094 255.507812 119.015625 268.667969 121.886719 C 277.582031 85.695312 275.402344 57.808594 262.988281 50.546875 C 258.734375 48.0625 253.03125 47.734375 246.078125 49.589844 C 232.71875 53.175781 216.625 64.007812 199.453125 80.960938 C 208.738281 91.300781 217.875 102.90625 226.636719 115.5 Z M 104.5625 126.644531 C 103.589844 126.644531 102.710938 125.988281 102.457031 125.007812 C 92.304688 85.292969 95.058594 55.324219 109.636719 46.789062 C 109.636719 46.789062 109.636719 46.789062 109.644531 46.789062 C 114.929688 43.703125 121.753906 43.210938 129.867188 45.390625 C 144.347656 49.277344 161.648438 61.015625 179.90625 79.34375 C 180.722656 80.167969 180.753906 81.492188 179.976562 82.347656 C 170.136719 93.160156 160.445312 105.429688 151.175781 118.816406 C 150.808594 119.347656 150.226562 119.6875 149.585938 119.746094 C 133.886719 121.164062 118.894531 123.464844 105.035156 126.59375 C 104.878906 126.628906 104.722656 126.644531 104.5625 126.644531 Z M 111.832031 50.546875 C 99.425781 57.808594 97.242188 85.695312 106.152344 121.886719 C 119.3125 119.015625 133.4375 116.871094 148.183594 115.5 C 156.949219 102.90625 166.082031 91.300781 175.367188 80.957031 C 158.195312 64.003906 142.105469 53.171875 128.738281 49.585938 C 121.816406 47.734375 116.105469 48.058594 111.832031 50.546875 Z M 208.550781 118.582031 C 208.519531 118.582031 208.484375 118.582031 208.449219 118.582031 C 194.078125 117.882812 180.75 117.882812 166.382812 118.582031 C 165.488281 118.605469 164.757812 118.171875 164.359375 117.4375 C 163.964844 116.695312 164.027344 115.796875 164.527344 115.117188 C 171.421875 105.734375 178.582031 96.917969 185.804688 88.917969 C 186.628906 88.007812 188.203125 88.007812 189.03125 88.917969 C 196.25 96.914062 203.40625 105.730469 210.308594 115.117188 C 210.804688 115.792969 210.871094 116.695312 210.472656 117.4375 C 210.085938 118.140625 209.347656 118.582031 208.550781 118.582031 Z M 187.414062 113.699219 C 192.8125 113.699219 198.394531 113.8125 204.070312 114.03125 C 198.628906 106.820312 193.042969 99.980469 187.414062 93.640625 C 181.785156 99.984375 176.195312 106.820312 170.753906 114.03125 C 176.429688 113.8125 182.015625 113.699219 187.414062 113.699219 Z M 187.414062 113.699219 " fill-opacity="1" fill-rule="nonzero"/></g><g clip-path="url(#a25cbdbb08)"><path fill="#b3902f" d="M 337.5 330.523438 L 336.042969 331.628906 L 336.640625 329.902344 L 335.144531 328.855469 L 336.96875 328.894531 L 337.5 327.144531 L 338.027344 328.894531 L 339.855469 328.855469 L 338.355469 329.902344 L 338.957031 331.628906 L 337.5 330.523438 " fill-opacity="1" fill-rule="nonzero"/></g><path fill="#b3902f" d="M 338.625 353.585938 C 338.625 353.585938 338.566406 353.617188 338.484375 353.6875 C 338.398438 353.757812 338.292969 353.863281 338.1875 354.015625 C 338.082031 354.164062 337.976562 354.363281 337.882812 354.625 C 337.789062 354.890625 337.714844 355.21875 337.648438 355.644531 C 337.640625 355.703125 337.652344 355.765625 337.679688 355.78125 C 337.894531 355.90625 338.117188 355.8125 338.273438 355.617188 C 338.433594 355.417969 338.539062 355.121094 338.59375 354.816406 C 338.648438 354.511719 338.65625 354.207031 338.652344 353.972656 C 338.644531 353.738281 338.625 353.585938 338.625 353.585938 " fill-opacity="1" fill-rule="nonzero"/><g clip-path="url(#5e002f28b9)"><path fill="#b3902f" d="M 339.902344 357.320312 C 339.902344 357.320312 339.789062 357.363281 339.605469 357.398438 C 339.425781 357.433594 339.167969 357.457031 338.890625 357.414062 C 338.617188 357.367188 338.320312 357.253906 338.082031 357.03125 C 337.847656 356.808594 337.660156 356.480469 337.628906 356.046875 C 337.625 355.988281 337.644531 355.933594 337.675781 355.914062 C 337.902344 355.789062 338.097656 355.820312 338.324219 355.929688 C 338.542969 356.042969 338.78125 356.242188 339.011719 356.445312 C 339.242188 356.652344 339.464844 356.871094 339.628906 357.035156 C 339.796875 357.203125 339.902344 357.320312 339.902344 357.320312 " fill-opacity="1" fill-rule="nonzero"/></g><path fill="#b3902f" d="M 339.550781 353.054688 C 339.550781 353.054688 339.492188 353.101562 339.410156 353.195312 C 339.371094 353.246094 339.328125 353.300781 339.28125 353.367188 C 339.234375 353.4375 339.183594 353.519531 339.140625 353.609375 C 339.09375 353.699219 339.050781 353.804688 339.011719 353.921875 C 338.972656 354.035156 338.941406 354.167969 338.914062 354.3125 C 338.867188 354.597656 338.855469 354.953125 338.925781 355.378906 C 338.9375 355.433594 338.96875 355.484375 339 355.492188 C 339.242188 355.527344 339.429688 355.378906 339.542969 355.144531 C 339.601562 355.027344 339.640625 354.890625 339.667969 354.746094 C 339.695312 354.597656 339.707031 354.4375 339.707031 354.28125 C 339.714844 353.972656 339.671875 353.660156 339.632812 353.433594 C 339.589844 353.203125 339.550781 353.054688 339.550781 353.054688 " fill-opacity="1" fill-rule="nonzero"/><path fill="#b3902f" d="M 341.429688 356.449219 C 341.429688 356.449219 341.332031 356.507812 341.167969 356.578125 C 341.085938 356.613281 340.988281 356.648438 340.875 356.675781 C 340.761719 356.703125 340.640625 356.726562 340.507812 356.730469 C 340.378906 356.738281 340.242188 356.730469 340.105469 356.707031 C 339.964844 356.675781 339.828125 356.625 339.699219 356.554688 C 339.433594 356.402344 339.203125 356.148438 339.039062 355.757812 C 339.015625 355.707031 339.015625 355.644531 339.039062 355.617188 C 339.210938 355.417969 339.417969 355.386719 339.660156 355.4375 C 339.777344 355.460938 339.902344 355.507812 340.035156 355.570312 C 340.164062 355.628906 340.292969 355.695312 340.425781 355.773438 C 340.6875 355.925781 340.933594 356.09375 341.121094 356.222656 C 341.308594 356.355469 341.429688 356.449219 341.429688 356.449219 " fill-opacity="1" fill-rule="nonzero"/><path fill="#b3902f" d="M 340.453125 352.316406 C 340.453125 352.316406 340.398438 352.375 340.324219 352.484375 C 340.289062 352.539062 340.25 352.605469 340.210938 352.6875 C 340.167969 352.765625 340.128906 352.851562 340.089844 352.957031 C 340.023438 353.164062 339.960938 353.402344 339.957031 353.707031 C 339.953125 354 339.996094 354.351562 340.144531 354.753906 C 340.164062 354.804688 340.203125 354.847656 340.238281 354.84375 C 340.359375 354.835938 340.460938 354.789062 340.539062 354.710938 C 340.617188 354.628906 340.675781 354.519531 340.714844 354.394531 C 340.796875 354.144531 340.796875 353.820312 340.761719 353.511719 C 340.683594 352.886719 340.453125 352.316406 340.453125 352.316406 " fill-opacity="1" fill-rule="nonzero"/><path fill="#b3902f" d="M 342.75 355.371094 C 342.75 355.371094 342.664062 355.441406 342.515625 355.53125 C 342.441406 355.574219 342.351562 355.625 342.25 355.667969 C 342.144531 355.710938 342.027344 355.75 341.90625 355.777344 C 341.664062 355.835938 341.371094 355.835938 341.101562 355.742188 C 340.820312 355.640625 340.550781 355.441406 340.320312 355.097656 C 340.289062 355.054688 340.277344 354.992188 340.296875 354.960938 C 340.363281 354.84375 340.449219 354.769531 340.546875 354.722656 C 340.644531 354.671875 340.753906 354.65625 340.875 354.660156 C 341.121094 354.667969 341.398438 354.746094 341.679688 354.859375 C 342.226562 355.066406 342.75 355.371094 342.75 355.371094 " fill-opacity="1" fill-rule="nonzero"/><path fill="#b3902f" d="M 341.308594 351.414062 C 341.308594 351.414062 341.257812 351.480469 341.195312 351.605469 C 341.132812 351.730469 341.050781 351.898438 341 352.117188 C 340.945312 352.335938 340.910156 352.589844 340.941406 352.894531 C 340.972656 353.191406 341.058594 353.527344 341.257812 353.898438 C 341.28125 353.949219 341.328125 353.980469 341.363281 353.972656 C 341.605469 353.917969 341.734375 353.714844 341.78125 353.453125 C 341.835938 353.199219 341.796875 352.871094 341.730469 352.570312 C 341.664062 352.269531 341.558594 351.976562 341.46875 351.761719 C 341.378906 351.550781 341.308594 351.414062 341.308594 351.414062 " fill-opacity="1" fill-rule="nonzero"/><path fill="#b3902f" d="M 343.898438 354.15625 C 343.898438 354.15625 343.824219 354.238281 343.691406 354.34375 C 343.558594 354.445312 343.355469 354.566406 343.125 354.65625 C 342.890625 354.738281 342.613281 354.777344 342.332031 354.726562 C 342.046875 354.667969 341.753906 354.507812 341.476562 354.210938 C 341.441406 354.171875 341.421875 354.113281 341.4375 354.078125 C 341.542969 353.828125 341.730469 353.722656 341.972656 353.691406 C 342.21875 353.664062 342.503906 353.707031 342.789062 353.777344 C 343.074219 353.851562 343.351562 353.945312 343.558594 354.019531 C 343.765625 354.097656 343.898438 354.15625 343.898438 354.15625 " fill-opacity="1" fill-rule="nonzero"/><path fill="#b3902f" d="M 342.105469 350.390625 C 342.105469 350.390625 342.058594 350.464844 342.003906 350.59375 C 341.976562 350.660156 341.945312 350.742188 341.917969 350.835938 C 341.890625 350.925781 341.863281 351.027344 341.84375 351.136719 C 341.808594 351.363281 341.800781 351.632812 341.855469 351.925781 C 341.910156 352.21875 342.03125 352.546875 342.269531 352.886719 C 342.300781 352.933594 342.351562 352.960938 342.382812 352.949219 C 342.609375 352.855469 342.726562 352.644531 342.75 352.378906 C 342.773438 352.113281 342.714844 351.800781 342.621094 351.503906 C 342.429688 350.90625 342.105469 350.390625 342.105469 350.390625 " fill-opacity="1" fill-rule="nonzero"/><path fill="#b3902f" d="M 344.914062 352.859375 C 344.914062 352.859375 344.84375 352.945312 344.722656 353.058594 C 344.660156 353.117188 344.585938 353.179688 344.496094 353.242188 C 344.40625 353.304688 344.304688 353.367188 344.191406 353.417969 C 343.96875 353.523438 343.707031 353.597656 343.417969 353.570312 C 343.132812 353.546875 342.828125 353.429688 342.523438 353.167969 C 342.480469 353.132812 342.457031 353.078125 342.464844 353.042969 C 342.539062 352.777344 342.726562 352.652344 342.960938 352.59375 C 343.195312 352.535156 343.488281 352.550781 343.78125 352.589844 C 344.351562 352.671875 344.914062 352.859375 344.914062 352.859375 " fill-opacity="1" fill-rule="nonzero"/><path fill="#b3902f" d="M 342.847656 349.273438 C 342.847656 349.273438 342.804688 349.351562 342.753906 349.488281 C 342.730469 349.558594 342.707031 349.644531 342.683594 349.738281 C 342.660156 349.832031 342.640625 349.9375 342.628906 350.054688 C 342.589844 350.519531 342.65625 351.128906 343.179688 351.757812 C 343.21875 351.800781 343.269531 351.824219 343.300781 351.808594 C 343.757812 351.585938 343.660156 350.914062 343.433594 350.347656 C 343.199219 349.765625 342.847656 349.273438 342.847656 349.273438 " fill-opacity="1" fill-rule="nonzero"/><path fill="#b3902f" d="M 345.8125 351.5 C 345.8125 351.5 345.75 351.589844 345.636719 351.710938 C 345.582031 351.773438 345.511719 351.84375 345.429688 351.910156 C 345.34375 351.980469 345.246094 352.046875 345.140625 352.109375 C 344.71875 352.355469 344.113281 352.46875 343.457031 352.011719 C 343.414062 351.980469 343.382812 351.929688 343.390625 351.890625 C 343.5 351.363281 344.078125 351.292969 344.667969 351.324219 C 345.242188 351.355469 345.8125 351.5 345.8125 351.5 " fill-opacity="1" fill-rule="nonzero"/><path fill="#b3902f" d="M 343.53125 348.082031 C 343.53125 348.082031 343.375 348.421875 343.351562 348.886719 C 343.339844 349.359375 343.441406 349.964844 344.011719 350.550781 C 344.046875 350.589844 344.101562 350.605469 344.132812 350.589844 C 344.347656 350.457031 344.429688 350.230469 344.414062 349.960938 C 344.402344 349.695312 344.300781 349.394531 344.171875 349.117188 C 344.042969 348.839844 343.882812 348.578125 343.753906 348.390625 C 343.625 348.199219 343.53125 348.082031 343.53125 348.082031 " fill-opacity="1" fill-rule="nonzero"/><path fill="#b3902f" d="M 346.617188 350.101562 C 346.617188 350.101562 346.398438 350.476562 345.984375 350.746094 C 345.582031 351.019531 344.984375 351.171875 344.304688 350.777344 C 344.257812 350.75 344.226562 350.699219 344.230469 350.664062 C 344.261719 350.390625 344.429688 350.234375 344.65625 350.136719 C 344.878906 350.039062 345.171875 350.003906 345.464844 350 C 345.757812 350 346.042969 350.023438 346.257812 350.050781 C 346.472656 350.074219 346.617188 350.101562 346.617188 350.101562 " fill-opacity="1" fill-rule="nonzero"/><path fill="#b3902f" d="M 344.164062 346.839844 C 344.164062 346.839844 344.015625 347.183594 344.019531 347.660156 C 344.023438 348.128906 344.160156 348.738281 344.765625 349.277344 C 344.804688 349.3125 344.859375 349.328125 344.890625 349.308594 C 345.304688 349.011719 345.144531 348.375 344.851562 347.832031 C 344.5625 347.289062 344.164062 346.839844 344.164062 346.839844 " fill-opacity="1" fill-rule="nonzero"/><path fill="#b3902f" d="M 347.34375 348.675781 C 347.34375 348.675781 347.136719 349.050781 346.75 349.34375 C 346.355469 349.636719 345.777344 349.832031 345.074219 349.484375 C 345.023438 349.460938 344.988281 349.414062 344.992188 349.375 C 345.027344 348.832031 345.609375 348.683594 346.183594 348.636719 C 346.761719 348.597656 347.34375 348.675781 347.34375 348.675781 " fill-opacity="1" fill-rule="nonzero"/><path fill="#b3902f" d="M 344.746094 345.546875 C 344.746094 345.546875 344.714844 345.636719 344.683594 345.785156 C 344.65625 345.9375 344.625 346.140625 344.636719 346.378906 C 344.644531 346.617188 344.695312 346.886719 344.820312 347.160156 C 344.941406 347.429688 345.136719 347.707031 345.449219 347.957031 C 345.492188 347.992188 345.546875 348 345.574219 347.980469 C 345.78125 347.824219 345.832031 347.585938 345.792969 347.320312 C 345.757812 347.058594 345.628906 346.773438 345.476562 346.507812 C 345.164062 345.980469 344.746094 345.546875 344.746094 345.546875 " fill-opacity="1" fill-rule="nonzero"/><path fill="#b3902f" d="M 348 347.222656 C 348 347.222656 347.953125 347.316406 347.859375 347.453125 C 347.769531 347.589844 347.625 347.761719 347.433594 347.917969 C 347.246094 348.070312 347.011719 348.203125 346.734375 348.261719 C 346.453125 348.320312 346.128906 348.296875 345.765625 348.144531 C 345.71875 348.125 345.679688 348.078125 345.679688 348.042969 C 345.691406 347.769531 345.835938 347.589844 346.050781 347.464844 C 346.265625 347.34375 346.554688 347.277344 346.84375 347.242188 C 347.421875 347.171875 348 347.222656 348 347.222656 " fill-opacity="1" fill-rule="nonzero"/><path fill="#b3902f" d="M 345.289062 344.21875 C 345.289062 344.21875 345.164062 344.585938 345.207031 345.0625 C 345.242188 345.539062 345.429688 346.132812 346.082031 346.601562 C 346.125 346.632812 346.179688 346.640625 346.207031 346.617188 C 346.59375 346.277344 346.382812 345.664062 346.046875 345.148438 C 345.71875 344.636719 345.289062 344.21875 345.289062 344.21875 " fill-opacity="1" fill-rule="nonzero"/><path fill="#b3902f" d="M 348.597656 345.753906 C 348.597656 345.753906 348.421875 346.140625 348.0625 346.46875 C 347.695312 346.789062 347.140625 347.039062 346.40625 346.773438 C 346.355469 346.753906 346.316406 346.710938 346.3125 346.675781 C 346.300781 346.128906 346.875 345.921875 347.441406 345.820312 C 348.015625 345.726562 348.597656 345.753906 348.597656 345.753906 " fill-opacity="1" fill-rule="nonzero"/><path fill="#b3902f" d="M 345.789062 342.867188 C 345.789062 342.867188 345.675781 343.234375 345.730469 343.714844 C 345.789062 344.195312 345.988281 344.777344 346.65625 345.214844 C 346.699219 345.246094 346.757812 345.25 346.78125 345.226562 C 346.972656 345.050781 347.011719 344.8125 346.953125 344.550781 C 346.898438 344.292969 346.75 344.015625 346.578125 343.765625 C 346.230469 343.265625 345.789062 342.867188 345.789062 342.867188 " fill-opacity="1" fill-rule="nonzero"/><g clip-path="url(#d7dd8afcb7)"><path fill="#b3902f" d="M 349.148438 344.273438 C 349.148438 344.273438 348.984375 344.664062 348.632812 345 C 348.285156 345.339844 347.730469 345.605469 346.984375 345.371094 C 346.9375 345.355469 346.894531 345.316406 346.894531 345.277344 C 346.867188 344.738281 347.421875 344.5 347.992188 344.382812 C 348.5625 344.265625 349.148438 344.273438 349.148438 344.273438 " fill-opacity="1" fill-rule="nonzero"/></g><path fill="#b3902f" d="M 348.0625 342.164062 C 348.0625 342.164062 348.21875 342.5625 348.195312 343.046875 C 348.183594 343.53125 347.96875 344.109375 347.269531 344.457031 C 347.222656 344.480469 347.164062 344.480469 347.136719 344.457031 C 346.746094 344.082031 346.980469 343.527344 347.308594 343.046875 C 347.636719 342.566406 348.0625 342.164062 348.0625 342.164062 " fill-opacity="1" fill-rule="nonzero"/><path fill="#b3902f" d="M 336.371094 353.519531 C 336.371094 353.519531 336.429688 353.550781 336.515625 353.621094 C 336.597656 353.691406 336.707031 353.796875 336.8125 353.949219 C 336.917969 354.101562 337.023438 354.296875 337.117188 354.558594 C 337.210938 354.824219 337.28125 355.152344 337.347656 355.578125 C 337.359375 355.636719 337.34375 355.699219 337.316406 355.714844 C 337.105469 355.839844 336.882812 355.746094 336.726562 355.550781 C 336.566406 355.355469 336.460938 355.054688 336.40625 354.753906 C 336.351562 354.445312 336.339844 354.140625 336.347656 353.90625 C 336.351562 353.671875 336.371094 353.519531 336.371094 353.519531 " fill-opacity="1" fill-rule="nonzero"/><g clip-path="url(#d9b1e7dcd2)"><path fill="#b3902f" d="M 335.09375 357.253906 C 335.09375 357.253906 335.210938 357.296875 335.390625 357.332031 C 335.574219 357.367188 335.832031 357.390625 336.105469 357.347656 C 336.382812 357.300781 336.675781 357.1875 336.914062 356.964844 C 337.152344 356.742188 337.335938 356.414062 337.371094 355.980469 C 337.375 355.925781 337.351562 355.867188 337.320312 355.847656 C 337.097656 355.722656 336.898438 355.753906 336.675781 355.867188 C 336.453125 355.976562 336.214844 356.175781 335.984375 356.382812 C 335.753906 356.585938 335.53125 356.804688 335.367188 356.96875 C 335.203125 357.136719 335.09375 357.253906 335.09375 357.253906 " fill-opacity="1" fill-rule="nonzero"/></g><path fill="#b3902f" d="M 335.449219 352.988281 C 335.449219 352.988281 335.507812 353.035156 335.585938 353.128906 C 335.625 353.179688 335.671875 353.234375 335.71875 353.304688 C 335.765625 353.371094 335.8125 353.453125 335.859375 353.542969 C 335.90625 353.632812 335.949219 353.738281 335.988281 353.855469 C 336.027344 353.96875 336.058594 354.101562 336.082031 354.246094 C 336.128906 354.535156 336.144531 354.890625 336.070312 355.3125 C 336.0625 355.367188 336.027344 355.417969 335.996094 355.425781 C 335.757812 355.460938 335.570312 355.3125 335.457031 355.078125 C 335.398438 354.960938 335.355469 354.824219 335.328125 354.679688 C 335.304688 354.53125 335.292969 354.371094 335.289062 354.214844 C 335.285156 353.90625 335.324219 353.59375 335.367188 353.367188 C 335.40625 353.140625 335.449219 352.988281 335.449219 352.988281 " fill-opacity="1" fill-rule="nonzero"/><path fill="#b3902f" d="M 333.570312 356.382812 C 333.570312 356.382812 333.667969 356.441406 333.832031 356.511719 C 333.910156 356.546875 334.011719 356.582031 334.125 356.609375 C 334.238281 356.636719 334.355469 356.660156 334.488281 356.667969 C 334.621094 356.671875 334.757812 356.664062 334.894531 356.640625 C 335.03125 356.609375 335.167969 356.5625 335.300781 356.488281 C 335.5625 356.335938 335.792969 356.082031 335.960938 355.691406 C 335.984375 355.640625 335.980469 355.578125 335.957031 355.550781 C 335.785156 355.351562 335.578125 355.320312 335.339844 355.371094 C 335.21875 355.394531 335.09375 355.441406 334.964844 355.503906 C 334.835938 355.5625 334.703125 355.628906 334.574219 355.707031 C 334.3125 355.859375 334.0625 356.027344 333.875 356.15625 C 333.691406 356.289062 333.570312 356.382812 333.570312 356.382812 " fill-opacity="1" fill-rule="nonzero"/><path fill="#b3902f" d="M 334.542969 352.25 C 334.542969 352.25 334.601562 352.308594 334.671875 352.417969 C 334.710938 352.472656 334.75 352.539062 334.789062 352.621094 C 334.828125 352.699219 334.871094 352.789062 334.90625 352.890625 C 334.976562 353.101562 335.035156 353.335938 335.039062 353.640625 C 335.046875 353.9375 335 354.285156 334.855469 354.6875 C 334.835938 354.738281 334.792969 354.78125 334.761719 354.777344 C 334.640625 354.769531 334.539062 354.722656 334.460938 354.644531 C 334.378906 354.5625 334.324219 354.453125 334.28125 354.328125 C 334.203125 354.078125 334.203125 353.753906 334.238281 353.449219 C 334.3125 352.820312 334.542969 352.25 334.542969 352.25 " fill-opacity="1" fill-rule="nonzero"/><path fill="#b3902f" d="M 332.246094 355.304688 C 332.246094 355.304688 332.335938 355.375 332.484375 355.464844 C 332.558594 355.507812 332.648438 355.558594 332.75 355.601562 C 332.851562 355.644531 332.96875 355.683594 333.09375 355.710938 C 333.335938 355.769531 333.625 355.769531 333.898438 355.675781 C 334.179688 355.578125 334.445312 355.375 334.679688 355.035156 C 334.710938 354.988281 334.71875 354.925781 334.703125 354.894531 C 334.636719 354.777344 334.550781 354.703125 334.453125 354.65625 C 334.355469 354.605469 334.246094 354.589844 334.121094 354.59375 C 333.878906 354.601562 333.597656 354.679688 333.320312 354.792969 C 332.773438 355 332.246094 355.304688 332.246094 355.304688 " fill-opacity="1" fill-rule="nonzero"/><path fill="#b3902f" d="M 333.691406 351.347656 C 333.691406 351.347656 333.742188 351.414062 333.804688 351.539062 C 333.867188 351.664062 333.949219 351.832031 334 352.050781 C 334.050781 352.269531 334.085938 352.523438 334.054688 352.828125 C 334.027344 353.125 333.941406 353.460938 333.742188 353.832031 C 333.714844 353.882812 333.667969 353.914062 333.636719 353.90625 C 333.394531 353.855469 333.265625 353.648438 333.214844 353.386719 C 333.164062 353.132812 333.199219 352.804688 333.269531 352.503906 C 333.335938 352.203125 333.441406 351.910156 333.53125 351.695312 C 333.621094 351.484375 333.691406 351.347656 333.691406 351.347656 " fill-opacity="1" fill-rule="nonzero"/><path fill="#b3902f" d="M 331.097656 354.089844 C 331.097656 354.089844 331.175781 354.171875 331.308594 354.277344 C 331.441406 354.378906 331.644531 354.5 331.875 354.589844 C 332.109375 354.675781 332.386719 354.710938 332.667969 354.660156 C 332.953125 354.601562 333.242188 354.441406 333.519531 354.144531 C 333.558594 354.105469 333.574219 354.046875 333.5625 354.011719 C 333.457031 353.761719 333.265625 353.65625 333.023438 353.625 C 332.78125 353.601562 332.496094 353.640625 332.210938 353.710938 C 331.921875 353.785156 331.644531 353.878906 331.441406 353.953125 C 331.234375 354.03125 331.097656 354.089844 331.097656 354.089844 " fill-opacity="1" fill-rule="nonzero"/><path fill="#b3902f" d="M 332.890625 350.324219 C 332.890625 350.324219 332.9375 350.398438 332.996094 350.53125 C 333.023438 350.59375 333.050781 350.675781 333.078125 350.769531 C 333.109375 350.859375 333.132812 350.960938 333.152344 351.074219 C 333.191406 351.296875 333.199219 351.566406 333.144531 351.859375 C 333.089844 352.152344 332.964844 352.480469 332.730469 352.820312 C 332.699219 352.867188 332.648438 352.894531 332.617188 352.882812 C 332.386719 352.789062 332.273438 352.578125 332.25 352.3125 C 332.226562 352.046875 332.285156 351.734375 332.378906 351.441406 C 332.570312 350.84375 332.890625 350.324219 332.890625 350.324219 " fill-opacity="1" fill-rule="nonzero"/><path fill="#b3902f" d="M 330.085938 352.792969 C 330.085938 352.792969 330.152344 352.878906 330.277344 352.992188 C 330.339844 353.050781 330.414062 353.113281 330.5 353.175781 C 330.589844 353.238281 330.691406 353.300781 330.804688 353.351562 C 331.027344 353.457031 331.289062 353.53125 331.578125 353.503906 C 331.867188 353.480469 332.167969 353.363281 332.476562 353.101562 C 332.515625 353.066406 332.542969 353.011719 332.53125 352.976562 C 332.460938 352.710938 332.273438 352.585938 332.035156 352.527344 C 331.800781 352.46875 331.507812 352.484375 331.21875 352.523438 C 330.644531 352.605469 330.085938 352.792969 330.085938 352.792969 " fill-opacity="1" fill-rule="nonzero"/><path fill="#b3902f" d="M 332.152344 349.207031 C 332.152344 349.207031 332.195312 349.285156 332.242188 349.425781 C 332.265625 349.492188 332.292969 349.578125 332.3125 349.671875 C 332.335938 349.765625 332.355469 349.871094 332.367188 349.988281 C 332.410156 350.453125 332.34375 351.0625 331.816406 351.691406 C 331.78125 351.734375 331.730469 351.757812 331.699219 351.742188 C 331.242188 351.519531 331.339844 350.847656 331.566406 350.28125 C 331.796875 349.699219 332.152344 349.207031 332.152344 349.207031 " fill-opacity="1" fill-rule="nonzero"/><path fill="#b3902f" d="M 329.1875 351.4375 C 329.1875 351.4375 329.246094 351.523438 329.359375 351.648438 C 329.417969 351.707031 329.488281 351.777344 329.570312 351.84375 C 329.652344 351.914062 329.75 351.980469 329.859375 352.042969 C 330.28125 352.292969 330.886719 352.402344 331.539062 351.945312 C 331.582031 351.914062 331.613281 351.863281 331.605469 351.824219 C 331.496094 351.296875 330.917969 351.226562 330.332031 351.257812 C 329.753906 351.289062 329.1875 351.4375 329.1875 351.4375 " fill-opacity="1" fill-rule="nonzero"/><path fill="#b3902f" d="M 331.46875 348.015625 C 331.46875 348.015625 331.621094 348.355469 331.644531 348.820312 C 331.660156 349.292969 331.558594 349.898438 330.988281 350.484375 C 330.949219 350.523438 330.894531 350.539062 330.867188 350.523438 C 330.652344 350.390625 330.566406 350.164062 330.582031 349.894531 C 330.597656 349.628906 330.695312 349.328125 330.824219 349.050781 C 330.953125 348.773438 331.117188 348.511719 331.246094 348.324219 C 331.375 348.132812 331.46875 348.015625 331.46875 348.015625 " fill-opacity="1" fill-rule="nonzero"/><path fill="#b3902f" d="M 328.382812 350.035156 C 328.382812 350.035156 328.597656 350.410156 329.011719 350.679688 C 329.414062 350.953125 330.011719 351.109375 330.695312 350.710938 C 330.738281 350.683594 330.773438 350.632812 330.769531 350.597656 C 330.734375 350.324219 330.566406 350.167969 330.34375 350.070312 C 330.117188 349.972656 329.824219 349.9375 329.535156 349.9375 C 329.242188 349.933594 328.957031 349.957031 328.738281 349.984375 C 328.523438 350.007812 328.382812 350.035156 328.382812 350.035156 " fill-opacity="1" fill-rule="nonzero"/><path fill="#b3902f" d="M 330.832031 346.773438 C 330.832031 346.773438 330.980469 347.117188 330.976562 347.59375 C 330.976562 348.066406 330.835938 348.671875 330.234375 349.210938 C 330.191406 349.25 330.136719 349.261719 330.109375 349.242188 C 329.691406 348.945312 329.855469 348.308594 330.148438 347.765625 C 330.4375 347.222656 330.832031 346.773438 330.832031 346.773438 " fill-opacity="1" fill-rule="nonzero"/><path fill="#b3902f" d="M 327.652344 348.609375 C 327.652344 348.609375 327.863281 348.984375 328.25 349.28125 C 328.644531 349.570312 329.222656 349.765625 329.925781 349.417969 C 329.972656 349.394531 330.007812 349.347656 330.007812 349.308594 C 329.972656 348.765625 329.386719 348.617188 328.8125 348.570312 C 328.234375 348.53125 327.652344 348.609375 327.652344 348.609375 " fill-opacity="1" fill-rule="nonzero"/><path fill="#b3902f" d="M 330.253906 345.480469 C 330.253906 345.480469 330.285156 345.570312 330.3125 345.71875 C 330.339844 345.871094 330.371094 346.078125 330.363281 346.3125 C 330.351562 346.550781 330.304688 346.820312 330.179688 347.09375 C 330.058594 347.367188 329.863281 347.640625 329.546875 347.890625 C 329.503906 347.925781 329.449219 347.933594 329.421875 347.914062 C 329.214844 347.757812 329.164062 347.519531 329.203125 347.257812 C 329.242188 346.992188 329.367188 346.707031 329.523438 346.441406 C 329.832031 345.914062 330.253906 345.480469 330.253906 345.480469 " fill-opacity="1" fill-rule="nonzero"/><path fill="#b3902f" d="M 327 347.15625 C 327 347.15625 327.046875 347.253906 327.136719 347.386719 C 327.230469 347.523438 327.375 347.695312 327.5625 347.851562 C 327.753906 348.003906 327.988281 348.140625 328.265625 348.195312 C 328.542969 348.253906 328.867188 348.230469 329.230469 348.078125 C 329.28125 348.058594 329.316406 348.011719 329.316406 347.976562 C 329.304688 347.703125 329.164062 347.523438 328.949219 347.398438 C 328.734375 347.277344 328.445312 347.210938 328.152344 347.175781 C 327.578125 347.105469 327 347.15625 327 347.15625 " fill-opacity="1" fill-rule="nonzero"/><path fill="#b3902f" d="M 329.710938 344.152344 C 329.710938 344.152344 329.832031 344.519531 329.792969 344.996094 C 329.757812 345.472656 329.566406 346.066406 328.917969 346.535156 C 328.875 346.566406 328.816406 346.574219 328.792969 346.550781 C 328.402344 346.210938 328.613281 345.601562 328.949219 345.085938 C 329.28125 344.570312 329.710938 344.152344 329.710938 344.152344 " fill-opacity="1" fill-rule="nonzero"/><path fill="#b3902f" d="M 326.398438 345.6875 C 326.398438 345.6875 326.574219 346.074219 326.933594 346.402344 C 327.304688 346.722656 327.859375 346.972656 328.59375 346.707031 C 328.644531 346.6875 328.683594 346.644531 328.683594 346.609375 C 328.699219 346.0625 328.125 345.855469 327.554688 345.753906 C 326.984375 345.660156 326.398438 345.6875 326.398438 345.6875 " fill-opacity="1" fill-rule="nonzero"/><path fill="#b3902f" d="M 329.207031 342.800781 C 329.207031 342.800781 329.324219 343.167969 329.269531 343.648438 C 329.210938 344.128906 329.007812 344.710938 328.34375 345.148438 C 328.296875 345.179688 328.242188 345.183594 328.214844 345.160156 C 328.027344 344.984375 327.984375 344.746094 328.042969 344.484375 C 328.101562 344.226562 328.25 343.949219 328.421875 343.699219 C 328.765625 343.199219 329.207031 342.800781 329.207031 342.800781 " fill-opacity="1" fill-rule="nonzero"/><g clip-path="url(#af642611d1)"><path fill="#b3902f" d="M 325.851562 344.207031 C 325.851562 344.207031 326.015625 344.597656 326.367188 344.933594 C 326.714844 345.273438 327.269531 345.539062 328.011719 345.304688 C 328.0625 345.289062 328.105469 345.25 328.105469 345.210938 C 328.128906 344.671875 327.578125 344.433594 327.003906 344.316406 C 326.433594 344.199219 325.851562 344.207031 325.851562 344.207031 " fill-opacity="1" fill-rule="nonzero"/></g><path fill="#b3902f" d="M 326.933594 342.101562 C 326.933594 342.101562 326.78125 342.496094 326.800781 342.980469 C 326.816406 343.464844 327.03125 344.042969 327.726562 344.390625 C 327.773438 344.414062 327.832031 344.414062 327.859375 344.390625 C 328.253906 344.015625 328.019531 343.460938 327.691406 342.980469 C 327.359375 342.5 326.933594 342.101562 326.933594 342.101562 " fill-opacity="1" fill-rule="nonzero"/><path fill="#1c263b" d="M 345.644531 337.980469 L 346.265625 335.21875 L 337.5 331.871094 L 328.730469 335.179688 L 329.363281 338.027344 L 327.667969 335.441406 C 327.667969 335.441406 328.796875 347.800781 337.5 353.96875 C 346.203125 347.800781 347.332031 335.441406 347.332031 335.441406 L 345.644531 337.980469 " fill-opacity="1" fill-rule="nonzero"/><path fill="#eceff1" d="M 337.800781 348.101562 C 337.828125 348.078125 337.855469 348.046875 337.886719 348.027344 L 337.980469 347.953125 L 338.078125 347.890625 C 338.144531 347.851562 338.207031 347.8125 338.277344 347.78125 C 338.347656 347.746094 338.421875 347.71875 338.492188 347.691406 C 338.566406 347.664062 338.636719 347.640625 338.710938 347.621094 C 338.785156 347.597656 338.859375 347.582031 338.9375 347.566406 C 339.011719 347.546875 339.085938 347.535156 339.164062 347.523438 C 339.46875 347.480469 339.78125 347.464844 340.089844 347.472656 C 340.246094 347.476562 340.398438 347.484375 340.554688 347.496094 C 340.628906 347.503906 340.707031 347.511719 340.785156 347.519531 C 340.859375 347.53125 340.9375 347.539062 341.011719 347.554688 L 341.160156 347.578125 L 341.164062 347.425781 C 341.167969 347.0625 341.167969 346.699219 341.171875 346.339844 L 341.171875 345.253906 C 341.167969 344.890625 341.167969 344.527344 341.160156 344.167969 C 341.15625 343.804688 341.148438 343.441406 341.140625 343.082031 L 341.136719 342.949219 L 341.011719 342.972656 C 340.804688 343.015625 340.59375 343.058594 340.386719 343.101562 L 339.761719 343.234375 C 339.34375 343.328125 338.929688 343.417969 338.511719 343.519531 C 338.9375 343.476562 339.363281 343.421875 339.785156 343.367188 L 340.417969 343.277344 C 340.585938 343.253906 340.753906 343.230469 340.921875 343.203125 C 340.914062 343.523438 340.90625 343.847656 340.902344 344.167969 C 340.898438 344.527344 340.894531 344.890625 340.894531 345.253906 L 340.890625 345.796875 L 340.890625 346.339844 C 340.894531 346.652344 340.894531 346.964844 340.898438 347.277344 C 340.871094 347.273438 340.839844 347.269531 340.8125 347.269531 C 340.730469 347.261719 340.648438 347.253906 340.570312 347.25 C 340.410156 347.242188 340.25 347.238281 340.089844 347.242188 C 339.769531 347.25 339.445312 347.28125 339.132812 347.347656 C 339.054688 347.367188 338.976562 347.386719 338.898438 347.40625 C 338.820312 347.429688 338.742188 347.453125 338.667969 347.480469 C 338.589844 347.507812 338.515625 347.539062 338.441406 347.574219 C 338.371094 347.609375 338.296875 347.644531 338.230469 347.6875 C 338.160156 347.726562 338.09375 347.773438 338.027344 347.824219 L 337.933594 347.898438 L 337.847656 347.984375 C 337.820312 348.007812 337.792969 348.042969 337.765625 348.070312 C 337.742188 348.101562 337.714844 348.132812 337.695312 348.167969 C 337.644531 348.230469 337.609375 348.300781 337.570312 348.367188 C 337.617188 348.304688 337.664062 348.242188 337.71875 348.183594 C 337.742188 348.15625 337.769531 348.128906 337.800781 348.101562 " fill-opacity="1" fill-rule="nonzero"/><path fill="#eceff1" d="M 341.777344 345.589844 L 341.335938 345.582031 L 341.335938 345.867188 L 341.648438 345.859375 L 341.6875 348.019531 C 341.527344 348 341.371094 347.988281 341.210938 347.976562 C 341.019531 347.964844 340.824219 347.957031 340.632812 347.957031 C 340.246094 347.953125 339.855469 347.96875 339.472656 348.019531 C 339.378906 348.03125 339.28125 348.046875 339.1875 348.066406 C 339.089844 348.082031 338.996094 348.105469 338.902344 348.125 L 338.761719 348.164062 L 338.625 348.210938 C 338.53125 348.242188 338.441406 348.273438 338.355469 348.316406 C 338.308594 348.335938 338.265625 348.359375 338.226562 348.382812 C 338.183594 348.40625 338.140625 348.429688 338.101562 348.457031 C 338.019531 348.511719 337.941406 348.570312 337.871094 348.636719 C 337.839844 348.671875 337.804688 348.707031 337.773438 348.746094 C 337.746094 348.785156 337.714844 348.820312 337.691406 348.863281 C 337.667969 348.90625 337.640625 348.945312 337.621094 348.988281 L 337.570312 349.125 L 337.625 348.992188 C 337.648438 348.949219 337.675781 348.910156 337.699219 348.867188 C 337.726562 348.828125 337.757812 348.792969 337.785156 348.753906 C 337.816406 348.71875 337.855469 348.6875 337.886719 348.652344 C 337.960938 348.589844 338.035156 348.535156 338.117188 348.484375 C 338.15625 348.460938 338.199219 348.441406 338.242188 348.417969 C 338.285156 348.394531 338.328125 348.375 338.371094 348.359375 C 338.460938 348.320312 338.550781 348.289062 338.640625 348.261719 L 338.777344 348.222656 L 338.917969 348.191406 C 339.011719 348.171875 339.105469 348.152344 339.199219 348.140625 C 339.292969 348.125 339.386719 348.117188 339.484375 348.105469 C 339.863281 348.070312 340.246094 348.070312 340.628906 348.085938 C 340.816406 348.097656 341.007812 348.109375 341.199219 348.128906 C 341.386719 348.148438 341.578125 348.171875 341.765625 348.203125 L 341.863281 348.21875 L 341.863281 348.117188 L 341.910156 345.722656 L 341.914062 345.59375 L 341.777344 345.589844 " fill-opacity="1" fill-rule="nonzero"/><path fill="#eceff1" d="M 337.199219 348.101562 C 337.167969 348.078125 337.144531 348.046875 337.109375 348.027344 L 337.019531 347.953125 L 336.921875 347.890625 C 336.855469 347.851562 336.789062 347.8125 336.71875 347.78125 C 336.652344 347.746094 336.578125 347.71875 336.507812 347.691406 C 336.433594 347.664062 336.359375 347.640625 336.285156 347.621094 C 336.210938 347.597656 336.136719 347.582031 336.0625 347.566406 C 335.988281 347.546875 335.910156 347.535156 335.835938 347.523438 C 335.527344 347.480469 335.21875 347.464844 334.910156 347.472656 C 334.753906 347.476562 334.597656 347.484375 334.445312 347.496094 C 334.367188 347.503906 334.289062 347.511719 334.214844 347.519531 C 334.136719 347.53125 334.058594 347.539062 333.988281 347.554688 L 333.839844 347.578125 L 333.835938 347.425781 C 333.828125 347.0625 333.828125 346.699219 333.828125 346.339844 L 333.824219 345.796875 L 333.828125 345.253906 C 333.828125 344.890625 333.832031 344.527344 333.839844 344.167969 C 333.84375 343.804688 333.847656 343.441406 333.859375 343.082031 L 333.863281 342.949219 L 333.984375 342.972656 C 334.195312 343.015625 334.402344 343.058594 334.613281 343.101562 L 335.238281 343.234375 C 335.652344 343.328125 336.070312 343.417969 336.484375 343.519531 C 336.058594 343.476562 335.636719 343.421875 335.214844 343.367188 L 334.582031 343.277344 C 334.414062 343.253906 334.246094 343.230469 334.078125 343.203125 C 334.085938 343.523438 334.089844 343.847656 334.09375 344.167969 C 334.101562 344.527344 334.105469 344.890625 334.105469 345.253906 L 334.109375 345.796875 L 334.105469 346.339844 C 334.105469 346.652344 334.101562 346.964844 334.097656 347.277344 C 334.128906 347.273438 334.15625 347.269531 334.1875 347.269531 C 334.269531 347.261719 334.347656 347.253906 334.429688 347.25 C 334.589844 347.242188 334.75 347.238281 334.910156 347.242188 C 335.230469 347.25 335.550781 347.28125 335.867188 347.347656 C 335.945312 347.367188 336.023438 347.386719 336.101562 347.40625 C 336.179688 347.429688 336.253906 347.453125 336.332031 347.480469 C 336.40625 347.507812 336.480469 347.539062 336.554688 347.574219 C 336.628906 347.609375 336.699219 347.644531 336.769531 347.6875 C 336.839844 347.726562 336.90625 347.773438 336.96875 347.824219 L 337.0625 347.898438 L 337.148438 347.984375 C 337.179688 348.007812 337.203125 348.042969 337.230469 348.070312 C 337.257812 348.101562 337.28125 348.132812 337.304688 348.167969 C 337.351562 348.230469 337.390625 348.300781 337.429688 348.367188 C 337.382812 348.304688 337.335938 348.242188 337.28125 348.183594 C 337.253906 348.15625 337.226562 348.128906 337.199219 348.101562 " fill-opacity="1" fill-rule="nonzero"/><path fill="#eceff1" d="M 333.222656 345.589844 L 333.660156 345.582031 L 333.660156 345.867188 L 333.351562 345.859375 L 333.3125 348.019531 C 333.46875 348 333.628906 347.988281 333.789062 347.976562 C 333.980469 347.964844 334.175781 347.957031 334.367188 347.957031 C 334.753906 347.953125 335.140625 347.96875 335.523438 348.019531 C 335.621094 348.03125 335.714844 348.046875 335.8125 348.066406 C 335.90625 348.082031 336 348.105469 336.09375 348.125 L 336.234375 348.164062 L 336.375 348.210938 C 336.464844 348.242188 336.554688 348.273438 336.644531 348.316406 C 336.6875 348.335938 336.730469 348.359375 336.773438 348.382812 C 336.816406 348.40625 336.859375 348.429688 336.898438 348.457031 C 336.980469 348.511719 337.054688 348.570312 337.125 348.636719 C 337.15625 348.671875 337.195312 348.707031 337.222656 348.746094 C 337.253906 348.785156 337.28125 348.820312 337.308594 348.863281 C 337.332031 348.90625 337.355469 348.945312 337.378906 348.988281 L 337.429688 349.125 L 337.371094 348.992188 C 337.351562 348.949219 337.324219 348.910156 337.300781 348.867188 C 337.273438 348.828125 337.242188 348.792969 337.210938 348.753906 C 337.179688 348.71875 337.144531 348.6875 337.109375 348.652344 C 337.039062 348.589844 336.960938 348.535156 336.878906 348.484375 C 336.839844 348.460938 336.796875 348.441406 336.753906 348.417969 C 336.714844 348.394531 336.667969 348.375 336.625 348.359375 C 336.539062 348.320312 336.449219 348.289062 336.355469 348.261719 L 336.21875 348.222656 L 336.082031 348.191406 C 335.988281 348.171875 335.894531 348.152344 335.800781 348.140625 C 335.703125 348.125 335.609375 348.117188 335.515625 348.105469 C 335.136719 348.070312 334.753906 348.070312 334.371094 348.085938 C 334.179688 348.097656 333.988281 348.109375 333.800781 348.128906 C 333.609375 348.148438 333.417969 348.171875 333.234375 348.203125 L 333.136719 348.21875 L 333.132812 348.117188 L 333.085938 345.722656 L 333.085938 345.59375 L 333.222656 345.589844 " fill-opacity="1" fill-rule="nonzero"/><path fill="#eceff1" d="M 339.300781 340.273438 C 337.722656 340.273438 337.5 341.054688 337.5 341.054688 C 337.5 341.054688 337.273438 340.273438 335.695312 340.273438 C 335.695312 340.273438 336.710938 342.394531 336.597656 344.070312 L 338.398438 344.070312 C 338.289062 342.394531 339.300781 340.273438 339.300781 340.273438 " fill-opacity="1" fill-rule="nonzero"/><path fill="#eceff1" d="M 336.597656 339.324219 L 336.597656 340.046875 L 337.5 340.550781 L 338.398438 340.046875 L 338.398438 339.324219 C 338.398438 339.324219 338.570312 339.203125 338.734375 339.015625 C 338.921875 338.792969 339.019531 338.507812 339.019531 338.214844 L 339.019531 336.976562 L 335.980469 336.976562 L 335.980469 338.257812 C 335.980469 338.488281 336.042969 338.714844 336.175781 338.902344 C 336.359375 339.15625 336.597656 339.324219 336.597656 339.324219 " fill-opacity="1" fill-rule="nonzero"/><path fill="#eceff1" d="M 337.5 335.457031 L 334.824219 336.703125 L 335.4375 337.121094 L 335.4375 337.902344 C 335.417969 337.9375 335.402344 337.996094 335.402344 338.066406 C 335.402344 338.175781 335.4375 338.261719 335.480469 338.261719 C 335.519531 338.261719 335.554688 338.175781 335.554688 338.066406 C 335.554688 337.996094 335.542969 337.9375 335.519531 337.902344 L 335.519531 337.175781 L 335.65625 337.269531 C 336.113281 336.960938 337.496094 337.011719 337.5 337.011719 C 337.5 337.011719 338.886719 336.960938 339.34375 337.269531 L 340.175781 336.703125 L 337.5 335.457031 " fill-opacity="1" fill-rule="nonzero"/><g fill="#000000" fill-opacity="1"><g transform="translate(314.71732, 328.580462)"><g><path d="M 3.140625 -6.734375 L 4.234375 -3.40625 C 4.347656 -3.050781 4.367188 -2.707031 4.296875 -2.375 C 4.234375 -2.039062 4.070312 -1.734375 3.8125 -1.453125 C 3.5625 -1.179688 3.203125 -0.96875 2.734375 -0.8125 C 2.046875 -0.582031 1.46875 -0.582031 1 -0.8125 C 0.53125 -1.050781 0.195312 -1.457031 0 -2.03125 L -1.078125 -5.34375 L 0 -5.703125 L 1.03125 -2.546875 C 1.175781 -2.117188 1.363281 -1.847656 1.59375 -1.734375 C 1.820312 -1.628906 2.101562 -1.628906 2.4375 -1.734375 C 2.675781 -1.816406 2.859375 -1.921875 2.984375 -2.046875 C 3.109375 -2.179688 3.175781 -2.347656 3.1875 -2.546875 C 3.195312 -2.742188 3.160156 -2.96875 3.078125 -3.21875 L 2.046875 -6.375 Z M 3.140625 -6.734375 "/></g></g></g><g fill="#000000" fill-opacity="1"><g transform="translate(319.970085, 326.855249)"><g><path d="M 0.921875 -5.78125 C 1.398438 -5.894531 1.804688 -5.929688 2.140625 -5.890625 C 2.472656 -5.847656 2.742188 -5.726562 2.953125 -5.53125 C 3.160156 -5.332031 3.304688 -5.054688 3.390625 -4.703125 C 3.453125 -4.460938 3.457031 -4.242188 3.40625 -4.046875 C 3.363281 -3.847656 3.28125 -3.664062 3.15625 -3.5 C 3.039062 -3.34375 2.910156 -3.207031 2.765625 -3.09375 L 4.859375 -1.171875 L 3.609375 -0.875 L 1.890625 -2.59375 L 1.296875 -2.4375 L 1.78125 -0.421875 L 0.65625 -0.15625 L -0.609375 -5.40625 Z M 1.0625 -4.84375 L 0.734375 -4.75 L 1.078125 -3.34375 L 1.421875 -3.4375 C 1.796875 -3.53125 2.046875 -3.65625 2.171875 -3.8125 C 2.296875 -3.96875 2.332031 -4.164062 2.28125 -4.40625 C 2.21875 -4.664062 2.085938 -4.820312 1.890625 -4.875 C 1.691406 -4.9375 1.414062 -4.925781 1.0625 -4.84375 Z M 1.0625 -4.84375 "/></g></g></g><g fill="#000000" fill-opacity="1"><g transform="translate(324.646429, 325.713434)"><g><path d="M 3.9375 -0.640625 L 3.34375 -1.84375 L 1.40625 -1.53125 L 1.21875 -0.203125 L 0 0 L 1.015625 -5.65625 L 2.40625 -5.890625 L 5.15625 -0.828125 Z M 2.90625 -2.75 L 2.328125 -3.921875 C 2.296875 -3.992188 2.25 -4.09375 2.1875 -4.21875 C 2.125 -4.34375 2.0625 -4.46875 2 -4.59375 C 1.9375 -4.726562 1.882812 -4.84375 1.84375 -4.9375 C 1.84375 -4.832031 1.828125 -4.703125 1.796875 -4.546875 C 1.773438 -4.398438 1.757812 -4.253906 1.75 -4.109375 C 1.738281 -3.972656 1.722656 -3.875 1.703125 -3.8125 L 1.515625 -2.515625 Z M 2.90625 -2.75 "/></g></g></g><g fill="#000000" fill-opacity="1"><g transform="translate(329.624236, 324.913246)"><g><path d="M 2.578125 -4.765625 C 2.359375 -4.742188 2.171875 -4.679688 2.015625 -4.578125 C 1.859375 -4.472656 1.726562 -4.335938 1.625 -4.171875 C 1.53125 -4.003906 1.460938 -3.804688 1.421875 -3.578125 C 1.378906 -3.347656 1.375 -3.09375 1.40625 -2.8125 C 1.4375 -2.4375 1.507812 -2.113281 1.625 -1.84375 C 1.738281 -1.582031 1.894531 -1.390625 2.09375 -1.265625 C 2.300781 -1.140625 2.5625 -1.09375 2.875 -1.125 C 3.09375 -1.144531 3.3125 -1.1875 3.53125 -1.25 C 3.757812 -1.320312 3.992188 -1.410156 4.234375 -1.515625 L 4.3125 -0.5625 C 4.082031 -0.445312 3.851562 -0.359375 3.625 -0.296875 C 3.394531 -0.234375 3.132812 -0.1875 2.84375 -0.15625 C 2.300781 -0.113281 1.84375 -0.191406 1.46875 -0.390625 C 1.09375 -0.585938 0.800781 -0.882812 0.59375 -1.28125 C 0.382812 -1.6875 0.257812 -2.160156 0.21875 -2.703125 C 0.175781 -3.117188 0.195312 -3.5 0.28125 -3.84375 C 0.363281 -4.195312 0.503906 -4.503906 0.703125 -4.765625 C 0.898438 -5.035156 1.144531 -5.25 1.4375 -5.40625 C 1.738281 -5.570312 2.09375 -5.671875 2.5 -5.703125 C 2.769531 -5.722656 3.039062 -5.707031 3.3125 -5.65625 C 3.59375 -5.613281 3.859375 -5.546875 4.109375 -5.453125 L 3.828125 -4.5 C 3.609375 -4.582031 3.394531 -4.648438 3.1875 -4.703125 C 2.976562 -4.753906 2.773438 -4.773438 2.578125 -4.765625 Z M 2.578125 -4.765625 "/></g></g></g><g fill="#000000" fill-opacity="1"><g transform="translate(334.250083, 324.512001)"><g><path d="M 3.984375 -0.03125 L 3.578125 -1.3125 L 1.609375 -1.296875 L 1.234375 -0.015625 L 0 0 L 1.875 -5.4375 L 3.28125 -5.453125 L 5.21875 -0.03125 Z M 3.296875 -2.28125 L 2.890625 -3.515625 C 2.867188 -3.597656 2.835938 -3.703125 2.796875 -3.828125 C 2.753906 -3.960938 2.710938 -4.097656 2.671875 -4.234375 C 2.628906 -4.378906 2.597656 -4.5 2.578125 -4.59375 C 2.554688 -4.5 2.519531 -4.375 2.46875 -4.21875 C 2.425781 -4.070312 2.382812 -3.929688 2.34375 -3.796875 C 2.3125 -3.660156 2.285156 -3.566406 2.265625 -3.515625 L 1.890625 -2.265625 Z M 3.296875 -2.28125 "/></g></g></g><g fill="#000000" fill-opacity="1"><g transform="translate(339.278655, 324.460083)"><g><path d="M 5.34375 -2.359375 C 5.300781 -1.753906 5.144531 -1.253906 4.875 -0.859375 C 4.613281 -0.472656 4.253906 -0.191406 3.796875 -0.015625 C 3.347656 0.148438 2.816406 0.210938 2.203125 0.171875 L 0.671875 0.046875 L 1.078125 -5.34375 L 2.78125 -5.21875 C 3.332031 -5.175781 3.804688 -5.035156 4.203125 -4.796875 C 4.609375 -4.566406 4.910156 -4.242188 5.109375 -3.828125 C 5.304688 -3.421875 5.382812 -2.929688 5.34375 -2.359375 Z M 4.15625 -2.421875 C 4.1875 -2.804688 4.15625 -3.132812 4.0625 -3.40625 C 3.96875 -3.675781 3.804688 -3.878906 3.578125 -4.015625 C 3.359375 -4.148438 3.085938 -4.226562 2.765625 -4.25 L 2.15625 -4.296875 L 1.90625 -0.8125 L 2.390625 -0.78125 C 2.941406 -0.738281 3.363281 -0.851562 3.65625 -1.125 C 3.945312 -1.40625 4.113281 -1.835938 4.15625 -2.421875 Z M 4.15625 -2.421875 "/></g></g></g><g fill="#000000" fill-opacity="1"><g transform="translate(344.687349, 324.88504)"><g><path d="M 3.734375 0.5625 L 0.671875 0.09375 L 1.484375 -5.25 L 4.546875 -4.78125 L 4.40625 -3.84375 L 2.484375 -4.140625 L 2.296875 -2.984375 L 4.09375 -2.703125 L 3.953125 -1.765625 L 2.15625 -2.046875 L 1.953125 -0.671875 L 3.875 -0.375 Z M 3.734375 0.5625 "/></g></g></g><g fill="#000000" fill-opacity="1"><g transform="translate(348.691437, 325.416678)"><g><path d="M 2.890625 0.6875 L 2.609375 -3.71875 L 2.5625 -3.734375 C 2.550781 -3.628906 2.523438 -3.476562 2.484375 -3.28125 C 2.453125 -3.082031 2.414062 -2.867188 2.375 -2.640625 C 2.332031 -2.421875 2.289062 -2.226562 2.25 -2.0625 L 1.65625 0.390625 L 0.65625 0.15625 L 1.921875 -5.09375 L 3.4375 -4.734375 L 3.71875 -0.40625 L 3.734375 -0.40625 L 6.015625 -4.109375 L 7.546875 -3.734375 L 6.28125 1.515625 L 5.234375 1.265625 L 5.828125 -1.21875 C 5.867188 -1.382812 5.914062 -1.570312 5.96875 -1.78125 C 6.03125 -2 6.085938 -2.207031 6.140625 -2.40625 C 6.203125 -2.601562 6.242188 -2.75 6.265625 -2.84375 L 6.234375 -2.84375 L 3.90625 0.9375 Z M 2.890625 0.6875 "/></g></g></g><g fill="#000000" fill-opacity="1"><g transform="translate(355.411894, 327.078823)"><g><path d="M 3.25 -2.25 L 5.03125 -4.015625 L 6.203125 -3.609375 L 3.4375 -1.046875 L 2.765625 0.9375 L 1.703125 0.578125 L 2.359375 -1.375 L 1.734375 -5.125 L 2.90625 -4.734375 Z M 3.25 -2.25 "/></g></g></g></svg>