<svg xmlns="http://www.w3.org/2000/svg" xmlns:xlink="http://www.w3.org/1999/xlink" width="500" zoomAndPan="magnify" viewBox="0 0 375 374.999991" height="500" preserveAspectRatio="xMidYMid meet" version="1.0"><defs><g/><clipPath id="cecd6cbf0a"><path d="M 60.859375 84.21875 L 314.359375 84.21875 L 314.359375 337.71875 L 60.859375 337.71875 Z M 60.859375 84.21875 " clip-rule="nonzero"/></clipPath><clipPath id="eb7b6087de"><path d="M 347 327.136719 L 353 327.136719 L 353 332 L 347 332 Z M 347 327.136719 " clip-rule="nonzero"/></clipPath><clipPath id="807fd3110b"><path d="M 350.324219 355.820312 L 352.648438 355.820312 L 352.648438 357.414062 L 350.324219 357.414062 Z M 350.324219 355.820312 " clip-rule="nonzero"/></clipPath><clipPath id="1f3cd28e45"><path d="M 359 345 L 361.8125 345 L 361.8125 347 L 359 347 Z M 359 345 " clip-rule="nonzero"/></clipPath><clipPath id="a4b681d4e4"><path d="M 359.578125 344.246094 L 361.8125 344.246094 L 361.8125 345.488281 L 359.578125 345.488281 Z M 359.578125 344.246094 " clip-rule="nonzero"/></clipPath><clipPath id="71e7940630"><path d="M 347 355 L 351 355 L 351 357.414062 L 347 357.414062 Z M 347 355 " clip-rule="nonzero"/></clipPath><clipPath id="1e3dda9ab5"><path d="M 338.5625 344 L 341 344 L 341 346 L 338.5625 346 Z M 338.5625 344 " clip-rule="nonzero"/></clipPath></defs><rect x="-37.5" width="450" fill="#ffffff" y="-37.499999" height="449.999989" fill-opacity="1"/><rect x="-37.5" width="450" fill="#ffffff" y="-37.499999" height="449.999989" fill-opacity="1"/><g clip-path="url(#cecd6cbf0a)"><path fill="#007acc" d="M 60.859375 337.71875 L 314.359375 337.71875 L 314.359375 84.21875 L 60.859375 84.21875 Z M 60.859375 337.71875 " fill-opacity="1" fill-rule="nonzero"/></g><path fill="#ffffff" d="M 116.90625 211.800781 L 116.828125 222.1875 L 149.824219 222.1875 L 149.824219 315.945312 L 173.160156 315.945312 L 173.160156 222.1875 L 206.15625 222.1875 L 206.15625 212.007812 C 206.15625 206.375 206.035156 201.660156 205.875 201.542969 C 205.753906 201.382812 185.675781 201.304688 161.328125 201.34375 L 117.027344 201.464844 Z M 116.90625 211.800781 " fill-opacity="1" fill-rule="nonzero"/><path fill="#ffffff" d="M 265.414062 201.175781 C 271.847656 202.78125 276.761719 205.640625 281.265625 210.304688 C 283.59375 212.800781 287.058594 217.347656 287.335938 218.4375 C 287.414062 218.761719 276.394531 226.160156 269.710938 230.308594 C 269.472656 230.46875 268.511719 229.417969 267.421875 227.8125 C 264.164062 223.0625 260.738281 221.011719 255.511719 220.65625 C 247.824219 220.128906 242.875 224.148438 242.914062 230.875 C 242.914062 232.84375 243.203125 234.011719 244.003906 235.617188 C 245.695312 239.121094 248.835938 241.210938 258.6875 245.480469 C 276.839844 253.28125 284.601562 258.433594 289.4375 265.757812 C 294.824219 273.929688 296.03125 286.960938 292.367188 296.65625 C 288.347656 307.199219 278.363281 314.359375 264.324219 316.738281 C 259.976562 317.5 249.679688 317.378906 245.003906 316.539062 C 234.824219 314.726562 225.167969 309.695312 219.21875 303.101562 C 216.882812 300.527344 212.335938 293.804688 212.613281 293.316406 C 212.742188 293.160156 213.78125 292.515625 214.949219 291.832031 C 216.078125 291.1875 220.347656 288.734375 224.367188 286.394531 L 231.644531 282.175781 L 233.179688 284.425781 C 235.308594 287.683594 239.984375 292.148438 242.796875 293.644531 C 250.886719 297.902344 261.988281 297.296875 267.460938 292.398438 C 269.800781 290.257812 270.761719 288.050781 270.761719 284.792969 C 270.761719 281.851562 270.402344 280.5625 268.867188 278.355469 C 266.898438 275.53125 262.878906 273.15625 251.449219 268.214844 C 238.371094 262.582031 232.734375 259.074219 227.585938 253.519531 C 224.605469 250.300781 221.792969 245.152344 220.625 240.84375 C 219.652344 237.269531 219.417969 228.300781 220.179688 224.675781 C 222.882812 212.039062 232.417969 203.226562 246.171875 200.613281 C 250.636719 199.769531 261.027344 200.085938 265.414062 201.175781 Z M 265.414062 201.175781 " fill-opacity="1" fill-rule="nonzero"/><g clip-path="url(#eb7b6087de)"><path fill="#b3902f" d="M 350.210938 330.523438 L 348.757812 331.628906 L 349.355469 329.902344 L 347.855469 328.855469 L 349.683594 328.894531 L 350.210938 327.144531 L 350.742188 328.894531 L 352.570312 328.855469 L 351.070312 329.902344 L 351.667969 331.628906 L 350.210938 330.523438 " fill-opacity="1" fill-rule="nonzero"/></g><path fill="#b3902f" d="M 351.339844 353.585938 C 351.339844 353.585938 351.28125 353.617188 351.195312 353.6875 C 351.113281 353.757812 351.007812 353.863281 350.898438 354.015625 C 350.792969 354.164062 350.6875 354.363281 350.597656 354.625 C 350.503906 354.890625 350.429688 355.21875 350.363281 355.644531 C 350.351562 355.703125 350.367188 355.765625 350.394531 355.78125 C 350.605469 355.90625 350.828125 355.8125 350.988281 355.617188 C 351.148438 355.417969 351.25 355.121094 351.304688 354.816406 C 351.363281 354.511719 351.371094 354.207031 351.363281 353.972656 C 351.359375 353.738281 351.339844 353.585938 351.339844 353.585938 " fill-opacity="1" fill-rule="nonzero"/><g clip-path="url(#807fd3110b)"><path fill="#b3902f" d="M 352.617188 357.320312 C 352.617188 357.320312 352.503906 357.363281 352.320312 357.398438 C 352.136719 357.433594 351.878906 357.457031 351.605469 357.414062 C 351.328125 357.367188 351.035156 357.253906 350.796875 357.03125 C 350.558594 356.808594 350.375 356.480469 350.339844 356.046875 C 350.335938 355.988281 350.359375 355.933594 350.390625 355.914062 C 350.613281 355.789062 350.8125 355.820312 351.035156 355.929688 C 351.257812 356.042969 351.496094 356.242188 351.726562 356.445312 C 351.957031 356.652344 352.179688 356.871094 352.34375 357.035156 C 352.507812 357.203125 352.617188 357.320312 352.617188 357.320312 " fill-opacity="1" fill-rule="nonzero"/></g><path fill="#b3902f" d="M 352.265625 353.054688 C 352.265625 353.054688 352.203125 353.101562 352.125 353.195312 C 352.085938 353.246094 352.039062 353.300781 351.992188 353.367188 C 351.945312 353.4375 351.898438 353.519531 351.851562 353.609375 C 351.804688 353.699219 351.761719 353.804688 351.722656 353.921875 C 351.6875 354.035156 351.652344 354.167969 351.628906 354.3125 C 351.582031 354.597656 351.570312 354.953125 351.640625 355.378906 C 351.648438 355.433594 351.683594 355.484375 351.714844 355.492188 C 351.957031 355.527344 352.140625 355.378906 352.257812 355.144531 C 352.3125 355.027344 352.355469 354.890625 352.382812 354.746094 C 352.410156 354.597656 352.421875 354.4375 352.421875 354.28125 C 352.425781 353.972656 352.386719 353.660156 352.34375 353.433594 C 352.304688 353.203125 352.265625 353.054688 352.265625 353.054688 " fill-opacity="1" fill-rule="nonzero"/><path fill="#b3902f" d="M 354.144531 356.449219 C 354.144531 356.449219 354.042969 356.507812 353.878906 356.578125 C 353.800781 356.613281 353.699219 356.648438 353.585938 356.675781 C 353.476562 356.703125 353.355469 356.726562 353.222656 356.730469 C 353.089844 356.738281 352.953125 356.730469 352.816406 356.707031 C 352.679688 356.675781 352.542969 356.625 352.410156 356.554688 C 352.148438 356.402344 351.917969 356.148438 351.75 355.757812 C 351.726562 355.707031 351.730469 355.644531 351.753906 355.617188 C 351.925781 355.417969 352.132812 355.386719 352.371094 355.4375 C 352.492188 355.460938 352.617188 355.507812 352.746094 355.570312 C 352.875 355.628906 353.007812 355.695312 353.136719 355.773438 C 353.398438 355.925781 353.648438 356.09375 353.835938 356.222656 C 354.019531 356.355469 354.144531 356.449219 354.144531 356.449219 " fill-opacity="1" fill-rule="nonzero"/><path fill="#b3902f" d="M 353.167969 352.316406 C 353.167969 352.316406 353.109375 352.375 353.039062 352.484375 C 353.003906 352.539062 352.960938 352.605469 352.921875 352.6875 C 352.882812 352.765625 352.839844 352.851562 352.804688 352.957031 C 352.734375 353.164062 352.675781 353.402344 352.671875 353.707031 C 352.667969 354 352.710938 354.351562 352.855469 354.753906 C 352.875 354.804688 352.917969 354.847656 352.949219 354.84375 C 353.070312 354.835938 353.171875 354.789062 353.253906 354.710938 C 353.332031 354.628906 353.390625 354.519531 353.429688 354.394531 C 353.511719 354.144531 353.511719 353.820312 353.476562 353.511719 C 353.398438 352.886719 353.167969 352.316406 353.167969 352.316406 " fill-opacity="1" fill-rule="nonzero"/><path fill="#b3902f" d="M 355.464844 355.371094 C 355.464844 355.371094 355.375 355.441406 355.226562 355.53125 C 355.152344 355.574219 355.0625 355.625 354.960938 355.667969 C 354.859375 355.710938 354.742188 355.75 354.617188 355.777344 C 354.375 355.835938 354.085938 355.835938 353.8125 355.742188 C 353.53125 355.640625 353.265625 355.441406 353.03125 355.097656 C 353 355.054688 352.992188 354.992188 353.007812 354.960938 C 353.078125 354.84375 353.160156 354.769531 353.257812 354.722656 C 353.355469 354.671875 353.46875 354.65625 353.589844 354.660156 C 353.832031 354.667969 354.113281 354.746094 354.390625 354.859375 C 354.9375 355.066406 355.464844 355.371094 355.464844 355.371094 " fill-opacity="1" fill-rule="nonzero"/><path fill="#b3902f" d="M 354.023438 351.414062 C 354.023438 351.414062 353.96875 351.480469 353.90625 351.605469 C 353.84375 351.730469 353.765625 351.898438 353.710938 352.117188 C 353.660156 352.335938 353.625 352.589844 353.65625 352.894531 C 353.683594 353.191406 353.769531 353.527344 353.96875 353.898438 C 353.996094 353.949219 354.042969 353.980469 354.074219 353.972656 C 354.316406 353.917969 354.445312 353.714844 354.496094 353.453125 C 354.550781 353.199219 354.511719 352.871094 354.445312 352.570312 C 354.375 352.269531 354.269531 351.976562 354.179688 351.761719 C 354.09375 351.550781 354.023438 351.414062 354.023438 351.414062 " fill-opacity="1" fill-rule="nonzero"/><path fill="#b3902f" d="M 356.613281 354.15625 C 356.613281 354.15625 356.539062 354.238281 356.402344 354.34375 C 356.269531 354.445312 356.070312 354.566406 355.835938 354.65625 C 355.605469 354.738281 355.324219 354.777344 355.046875 354.726562 C 354.761719 354.667969 354.46875 354.507812 354.191406 354.210938 C 354.15625 354.171875 354.136719 354.113281 354.148438 354.078125 C 354.253906 353.828125 354.445312 353.722656 354.6875 353.691406 C 354.929688 353.664062 355.214844 353.707031 355.503906 353.777344 C 355.789062 353.851562 356.066406 353.945312 356.269531 354.019531 C 356.476562 354.097656 356.613281 354.15625 356.613281 354.15625 " fill-opacity="1" fill-rule="nonzero"/><path fill="#b3902f" d="M 354.820312 350.390625 C 354.820312 350.390625 354.773438 350.464844 354.714844 350.59375 C 354.6875 350.660156 354.660156 350.742188 354.632812 350.835938 C 354.605469 350.925781 354.578125 351.027344 354.558594 351.136719 C 354.523438 351.363281 354.515625 351.632812 354.566406 351.925781 C 354.621094 352.21875 354.746094 352.546875 354.980469 352.886719 C 355.011719 352.933594 355.0625 352.960938 355.09375 352.949219 C 355.324219 352.855469 355.4375 352.644531 355.460938 352.378906 C 355.484375 352.113281 355.425781 351.800781 355.332031 351.503906 C 355.140625 350.90625 354.820312 350.390625 354.820312 350.390625 " fill-opacity="1" fill-rule="nonzero"/><path fill="#b3902f" d="M 357.628906 352.859375 C 357.628906 352.859375 357.558594 352.945312 357.433594 353.058594 C 357.375 353.117188 357.296875 353.179688 357.210938 353.242188 C 357.121094 353.304688 357.019531 353.367188 356.90625 353.417969 C 356.683594 353.523438 356.421875 353.597656 356.132812 353.570312 C 355.84375 353.546875 355.542969 353.429688 355.234375 353.167969 C 355.195312 353.132812 355.167969 353.078125 355.179688 353.042969 C 355.253906 352.777344 355.4375 352.652344 355.675781 352.59375 C 355.910156 352.535156 356.203125 352.550781 356.496094 352.589844 C 357.066406 352.671875 357.628906 352.859375 357.628906 352.859375 " fill-opacity="1" fill-rule="nonzero"/><path fill="#b3902f" d="M 355.558594 349.273438 C 355.558594 349.273438 355.515625 349.351562 355.46875 349.488281 C 355.445312 349.558594 355.417969 349.644531 355.398438 349.738281 C 355.375 349.832031 355.355469 349.9375 355.34375 350.054688 C 355.300781 350.519531 355.367188 351.128906 355.894531 351.757812 C 355.929688 351.800781 355.984375 351.824219 356.011719 351.808594 C 356.46875 351.585938 356.371094 350.914062 356.144531 350.347656 C 355.914062 349.765625 355.558594 349.273438 355.558594 349.273438 " fill-opacity="1" fill-rule="nonzero"/><path fill="#b3902f" d="M 358.527344 351.5 C 358.527344 351.5 358.464844 351.589844 358.351562 351.710938 C 358.292969 351.773438 358.222656 351.84375 358.140625 351.910156 C 358.058594 351.980469 357.960938 352.046875 357.855469 352.109375 C 357.429688 352.355469 356.824219 352.46875 356.171875 352.011719 C 356.128906 351.980469 356.097656 351.929688 356.105469 351.890625 C 356.214844 351.363281 356.792969 351.292969 357.382812 351.324219 C 357.957031 351.355469 358.527344 351.5 358.527344 351.5 " fill-opacity="1" fill-rule="nonzero"/><path fill="#b3902f" d="M 356.242188 348.082031 C 356.242188 348.082031 356.089844 348.421875 356.066406 348.886719 C 356.050781 349.359375 356.152344 349.964844 356.722656 350.550781 C 356.761719 350.589844 356.816406 350.605469 356.84375 350.589844 C 357.058594 350.457031 357.144531 350.230469 357.128906 349.960938 C 357.113281 349.695312 357.015625 349.394531 356.886719 349.117188 C 356.757812 348.839844 356.59375 348.578125 356.464844 348.390625 C 356.339844 348.199219 356.242188 348.082031 356.242188 348.082031 " fill-opacity="1" fill-rule="nonzero"/><path fill="#b3902f" d="M 359.332031 350.101562 C 359.332031 350.101562 359.113281 350.476562 358.699219 350.746094 C 358.296875 351.019531 357.699219 351.171875 357.015625 350.777344 C 356.972656 350.75 356.9375 350.699219 356.941406 350.664062 C 356.976562 350.390625 357.144531 350.234375 357.367188 350.136719 C 357.59375 350.039062 357.886719 350.003906 358.175781 350 C 358.46875 350 358.753906 350.023438 358.972656 350.050781 C 359.1875 350.074219 359.332031 350.101562 359.332031 350.101562 " fill-opacity="1" fill-rule="nonzero"/><path fill="#b3902f" d="M 356.878906 346.839844 C 356.878906 346.839844 356.730469 347.183594 356.734375 347.660156 C 356.734375 348.128906 356.875 348.738281 357.480469 349.277344 C 357.519531 349.3125 357.574219 349.328125 357.601562 349.308594 C 358.019531 349.011719 357.859375 348.375 357.5625 347.832031 C 357.277344 347.289062 356.878906 346.839844 356.878906 346.839844 " fill-opacity="1" fill-rule="nonzero"/><path fill="#b3902f" d="M 360.058594 348.675781 C 360.058594 348.675781 359.847656 349.050781 359.460938 349.34375 C 359.070312 349.636719 358.492188 349.832031 357.785156 349.484375 C 357.738281 349.460938 357.703125 349.414062 357.703125 349.375 C 357.738281 348.832031 358.324219 348.683594 358.898438 348.636719 C 359.476562 348.597656 360.058594 348.675781 360.058594 348.675781 " fill-opacity="1" fill-rule="nonzero"/><path fill="#b3902f" d="M 357.460938 345.546875 C 357.460938 345.546875 357.425781 345.636719 357.398438 345.785156 C 357.371094 345.9375 357.339844 346.140625 357.347656 346.378906 C 357.359375 346.617188 357.40625 346.886719 357.53125 347.160156 C 357.652344 347.429688 357.847656 347.707031 358.164062 347.957031 C 358.207031 347.992188 358.261719 348 358.289062 347.980469 C 358.496094 347.824219 358.546875 347.585938 358.507812 347.320312 C 358.46875 347.058594 358.34375 346.773438 358.1875 346.507812 C 357.878906 345.980469 357.460938 345.546875 357.460938 345.546875 " fill-opacity="1" fill-rule="nonzero"/><path fill="#b3902f" d="M 360.710938 347.222656 C 360.710938 347.222656 360.664062 347.316406 360.574219 347.453125 C 360.484375 347.589844 360.339844 347.761719 360.148438 347.914062 C 359.957031 348.070312 359.722656 348.203125 359.445312 348.261719 C 359.167969 348.320312 358.84375 348.296875 358.480469 348.144531 C 358.429688 348.125 358.394531 348.078125 358.394531 348.042969 C 358.40625 347.769531 358.546875 347.589844 358.761719 347.464844 C 358.980469 347.34375 359.265625 347.277344 359.558594 347.242188 C 360.132812 347.171875 360.710938 347.222656 360.710938 347.222656 " fill-opacity="1" fill-rule="nonzero"/><path fill="#b3902f" d="M 358 344.21875 C 358 344.21875 357.878906 344.585938 357.917969 345.0625 C 357.953125 345.539062 358.144531 346.132812 358.792969 346.601562 C 358.835938 346.632812 358.894531 346.640625 358.917969 346.617188 C 359.308594 346.277344 359.097656 345.664062 358.761719 345.148438 C 358.429688 344.632812 358 344.21875 358 344.21875 " fill-opacity="1" fill-rule="nonzero"/><g clip-path="url(#1f3cd28e45)"><path fill="#b3902f" d="M 361.3125 345.753906 C 361.3125 345.753906 361.136719 346.140625 360.777344 346.46875 C 360.40625 346.789062 359.851562 347.039062 359.117188 346.773438 C 359.070312 346.753906 359.027344 346.710938 359.027344 346.675781 C 359.011719 346.128906 359.585938 345.921875 360.15625 345.820312 C 360.726562 345.726562 361.3125 345.753906 361.3125 345.753906 " fill-opacity="1" fill-rule="nonzero"/></g><path fill="#b3902f" d="M 358.503906 342.867188 C 358.503906 342.867188 358.390625 343.234375 358.441406 343.714844 C 358.5 344.195312 358.703125 344.777344 359.371094 345.214844 C 359.414062 345.246094 359.46875 345.25 359.496094 345.226562 C 359.683594 345.050781 359.726562 344.8125 359.667969 344.550781 C 359.609375 344.292969 359.460938 344.015625 359.289062 343.765625 C 358.945312 343.265625 358.503906 342.867188 358.503906 342.867188 " fill-opacity="1" fill-rule="nonzero"/><g clip-path="url(#a4b681d4e4)"><path fill="#b3902f" d="M 361.863281 344.273438 C 361.863281 344.273438 361.695312 344.664062 361.34375 345 C 361 345.335938 360.445312 345.605469 359.699219 345.371094 C 359.648438 345.355469 359.609375 345.316406 359.605469 345.277344 C 359.582031 344.738281 360.136719 344.5 360.707031 344.382812 C 361.277344 344.265625 361.863281 344.273438 361.863281 344.273438 " fill-opacity="1" fill-rule="nonzero"/></g><path fill="#b3902f" d="M 360.777344 342.164062 C 360.777344 342.164062 360.929688 342.5625 360.910156 343.046875 C 360.894531 343.53125 360.679688 344.109375 359.984375 344.457031 C 359.9375 344.480469 359.878906 344.480469 359.851562 344.457031 C 359.457031 344.082031 359.691406 343.527344 360.019531 343.046875 C 360.351562 342.566406 360.777344 342.164062 360.777344 342.164062 " fill-opacity="1" fill-rule="nonzero"/><path fill="#b3902f" d="M 349.085938 353.519531 C 349.085938 353.519531 349.144531 353.550781 349.226562 353.621094 C 349.3125 353.691406 349.417969 353.796875 349.523438 353.949219 C 349.632812 354.101562 349.738281 354.296875 349.828125 354.558594 C 349.921875 354.824219 349.996094 355.152344 350.0625 355.578125 C 350.070312 355.636719 350.058594 355.699219 350.03125 355.714844 C 349.820312 355.839844 349.59375 355.746094 349.4375 355.550781 C 349.277344 355.355469 349.171875 355.054688 349.117188 354.753906 C 349.0625 354.445312 349.054688 354.140625 349.058594 353.90625 C 349.066406 353.671875 349.085938 353.519531 349.085938 353.519531 " fill-opacity="1" fill-rule="nonzero"/><g clip-path="url(#71e7940630)"><path fill="#b3902f" d="M 347.808594 357.253906 C 347.808594 357.253906 347.921875 357.296875 348.105469 357.332031 C 348.289062 357.367188 348.542969 357.390625 348.820312 357.347656 C 349.097656 357.300781 349.390625 357.1875 349.628906 356.964844 C 349.863281 356.742188 350.050781 356.414062 350.085938 355.980469 C 350.089844 355.925781 350.066406 355.867188 350.035156 355.847656 C 349.808594 355.722656 349.613281 355.753906 349.386719 355.867188 C 349.167969 355.976562 348.929688 356.175781 348.699219 356.382812 C 348.46875 356.585938 348.246094 356.804688 348.082031 356.96875 C 347.914062 357.136719 347.808594 357.253906 347.808594 357.253906 " fill-opacity="1" fill-rule="nonzero"/></g><path fill="#b3902f" d="M 348.160156 352.988281 C 348.160156 352.988281 348.21875 353.035156 348.300781 353.128906 C 348.339844 353.179688 348.386719 353.234375 348.433594 353.304688 C 348.480469 353.371094 348.527344 353.453125 348.574219 353.542969 C 348.617188 353.632812 348.664062 353.738281 348.699219 353.855469 C 348.738281 353.96875 348.773438 354.101562 348.796875 354.246094 C 348.84375 354.535156 348.855469 354.890625 348.785156 355.3125 C 348.777344 355.367188 348.742188 355.417969 348.710938 355.425781 C 348.46875 355.460938 348.285156 355.3125 348.167969 355.078125 C 348.113281 354.960938 348.070312 354.824219 348.042969 354.679688 C 348.015625 354.53125 348.003906 354.371094 348.003906 354.214844 C 348 353.90625 348.039062 353.59375 348.078125 353.367188 C 348.121094 353.140625 348.160156 352.988281 348.160156 352.988281 " fill-opacity="1" fill-rule="nonzero"/><path fill="#b3902f" d="M 346.28125 356.382812 C 346.28125 356.382812 346.382812 356.441406 346.542969 356.511719 C 346.625 356.546875 346.722656 356.582031 346.835938 356.609375 C 346.949219 356.636719 347.070312 356.660156 347.203125 356.667969 C 347.332031 356.671875 347.46875 356.664062 347.605469 356.640625 C 347.746094 356.609375 347.882812 356.5625 348.011719 356.488281 C 348.277344 356.335938 348.507812 356.082031 348.675781 355.691406 C 348.695312 355.640625 348.695312 355.578125 348.671875 355.550781 C 348.5 355.351562 348.292969 355.320312 348.050781 355.371094 C 347.933594 355.394531 347.808594 355.441406 347.675781 355.503906 C 347.546875 355.5625 347.417969 355.628906 347.285156 355.707031 C 347.023438 355.859375 346.777344 356.027344 346.589844 356.15625 C 346.402344 356.289062 346.28125 356.382812 346.28125 356.382812 " fill-opacity="1" fill-rule="nonzero"/><path fill="#b3902f" d="M 347.257812 352.25 C 347.257812 352.25 347.3125 352.308594 347.386719 352.417969 C 347.421875 352.472656 347.460938 352.539062 347.503906 352.621094 C 347.542969 352.699219 347.582031 352.789062 347.621094 352.890625 C 347.691406 353.101562 347.75 353.335938 347.753906 353.640625 C 347.757812 353.9375 347.714844 354.285156 347.570312 354.6875 C 347.550781 354.738281 347.507812 354.78125 347.476562 354.777344 C 347.355469 354.769531 347.253906 354.722656 347.171875 354.644531 C 347.09375 354.5625 347.035156 354.453125 346.996094 354.328125 C 346.914062 354.078125 346.914062 353.753906 346.949219 353.449219 C 347.027344 352.820312 347.257812 352.25 347.257812 352.25 " fill-opacity="1" fill-rule="nonzero"/><path fill="#b3902f" d="M 344.960938 355.304688 C 344.960938 355.304688 345.046875 355.375 345.195312 355.464844 C 345.269531 355.507812 345.359375 355.558594 345.460938 355.601562 C 345.566406 355.644531 345.683594 355.683594 345.804688 355.710938 C 346.050781 355.769531 346.339844 355.769531 346.613281 355.675781 C 346.890625 355.574219 347.160156 355.375 347.390625 355.035156 C 347.421875 354.988281 347.433594 354.925781 347.414062 354.894531 C 347.347656 354.777344 347.261719 354.703125 347.164062 354.65625 C 347.070312 354.605469 346.957031 354.589844 346.835938 354.59375 C 346.589844 354.601562 346.3125 354.679688 346.03125 354.792969 C 345.484375 355 344.960938 355.304688 344.960938 355.304688 " fill-opacity="1" fill-rule="nonzero"/><path fill="#b3902f" d="M 346.402344 351.347656 C 346.402344 351.347656 346.453125 351.414062 346.519531 351.539062 C 346.582031 351.664062 346.660156 351.832031 346.710938 352.050781 C 346.765625 352.269531 346.800781 352.523438 346.769531 352.828125 C 346.738281 353.125 346.652344 353.460938 346.457031 353.832031 C 346.429688 353.882812 346.382812 353.914062 346.347656 353.90625 C 346.105469 353.855469 345.976562 353.648438 345.929688 353.386719 C 345.875 353.132812 345.914062 352.804688 345.980469 352.503906 C 346.046875 352.203125 346.15625 351.910156 346.242188 351.695312 C 346.332031 351.484375 346.402344 351.347656 346.402344 351.347656 " fill-opacity="1" fill-rule="nonzero"/><path fill="#b3902f" d="M 343.8125 354.089844 C 343.8125 354.089844 343.886719 354.171875 344.019531 354.277344 C 344.152344 354.378906 344.355469 354.5 344.585938 354.589844 C 344.820312 354.675781 345.101562 354.710938 345.378906 354.660156 C 345.664062 354.601562 345.957031 354.441406 346.234375 354.144531 C 346.269531 354.105469 346.289062 354.046875 346.273438 354.011719 C 346.167969 353.761719 345.980469 353.65625 345.738281 353.625 C 345.492188 353.601562 345.210938 353.640625 344.921875 353.710938 C 344.636719 353.785156 344.359375 353.878906 344.152344 353.953125 C 343.949219 354.03125 343.8125 354.089844 343.8125 354.089844 " fill-opacity="1" fill-rule="nonzero"/><path fill="#b3902f" d="M 345.605469 350.324219 C 345.605469 350.324219 345.652344 350.398438 345.707031 350.53125 C 345.734375 350.59375 345.765625 350.675781 345.792969 350.769531 C 345.820312 350.859375 345.847656 350.960938 345.867188 351.074219 C 345.902344 351.296875 345.910156 351.566406 345.859375 351.859375 C 345.800781 352.152344 345.679688 352.480469 345.441406 352.820312 C 345.410156 352.867188 345.359375 352.894531 345.332031 352.882812 C 345.101562 352.789062 344.984375 352.578125 344.960938 352.3125 C 344.9375 352.046875 345 351.734375 345.089844 351.441406 C 345.28125 350.84375 345.605469 350.324219 345.605469 350.324219 " fill-opacity="1" fill-rule="nonzero"/><path fill="#b3902f" d="M 342.796875 352.792969 C 342.796875 352.792969 342.867188 352.878906 342.988281 352.992188 C 343.050781 353.050781 343.125 353.113281 343.214844 353.175781 C 343.304688 353.238281 343.40625 353.300781 343.519531 353.351562 C 343.742188 353.457031 344.003906 353.53125 344.292969 353.503906 C 344.578125 353.480469 344.882812 353.363281 345.1875 353.101562 C 345.230469 353.066406 345.253906 353.011719 345.246094 352.976562 C 345.171875 352.710938 344.988281 352.585938 344.75 352.527344 C 344.515625 352.46875 344.222656 352.484375 343.929688 352.523438 C 343.359375 352.605469 342.796875 352.792969 342.796875 352.792969 " fill-opacity="1" fill-rule="nonzero"/><path fill="#b3902f" d="M 344.863281 349.207031 C 344.863281 349.207031 344.910156 349.285156 344.957031 349.421875 C 344.980469 349.492188 345.007812 349.578125 345.027344 349.671875 C 345.050781 349.765625 345.070312 349.871094 345.082031 349.988281 C 345.125 350.453125 345.054688 351.0625 344.53125 351.691406 C 344.496094 351.734375 344.441406 351.757812 344.410156 351.742188 C 343.957031 351.519531 344.054688 350.847656 344.277344 350.28125 C 344.511719 349.699219 344.863281 349.207031 344.863281 349.207031 " fill-opacity="1" fill-rule="nonzero"/><path fill="#b3902f" d="M 341.898438 351.4375 C 341.898438 351.4375 341.960938 351.523438 342.074219 351.648438 C 342.132812 351.707031 342.203125 351.777344 342.28125 351.84375 C 342.367188 351.914062 342.464844 351.980469 342.570312 352.042969 C 342.996094 352.292969 343.601562 352.402344 344.253906 351.945312 C 344.296875 351.914062 344.328125 351.863281 344.320312 351.824219 C 344.210938 351.296875 343.632812 351.226562 343.042969 351.257812 C 342.46875 351.289062 341.898438 351.4375 341.898438 351.4375 " fill-opacity="1" fill-rule="nonzero"/><path fill="#b3902f" d="M 344.179688 348.015625 C 344.179688 348.015625 344.335938 348.355469 344.359375 348.820312 C 344.375 349.292969 344.273438 349.898438 343.703125 350.484375 C 343.664062 350.523438 343.609375 350.539062 343.578125 350.523438 C 343.363281 350.390625 343.28125 350.164062 343.296875 349.894531 C 343.308594 349.628906 343.410156 349.328125 343.539062 349.050781 C 343.667969 348.773438 343.832031 348.511719 343.957031 348.324219 C 344.085938 348.132812 344.179688 348.015625 344.179688 348.015625 " fill-opacity="1" fill-rule="nonzero"/><path fill="#b3902f" d="M 341.09375 350.035156 C 341.09375 350.035156 341.3125 350.410156 341.726562 350.679688 C 342.128906 350.953125 342.726562 351.109375 343.40625 350.710938 C 343.453125 350.683594 343.488281 350.632812 343.480469 350.597656 C 343.449219 350.324219 343.28125 350.167969 343.054688 350.070312 C 342.832031 349.972656 342.539062 349.9375 342.246094 349.9375 C 341.953125 349.933594 341.667969 349.957031 341.453125 349.984375 C 341.238281 350.007812 341.09375 350.035156 341.09375 350.035156 " fill-opacity="1" fill-rule="nonzero"/><path fill="#b3902f" d="M 343.546875 346.773438 C 343.546875 346.773438 343.695312 347.117188 343.691406 347.59375 C 343.6875 348.066406 343.550781 348.671875 342.945312 349.210938 C 342.90625 349.25 342.851562 349.261719 342.824219 349.242188 C 342.40625 348.945312 342.566406 348.308594 342.859375 347.765625 C 343.148438 347.222656 343.546875 346.773438 343.546875 346.773438 " fill-opacity="1" fill-rule="nonzero"/><path fill="#b3902f" d="M 340.367188 348.609375 C 340.367188 348.609375 340.574219 348.984375 340.960938 349.277344 C 341.355469 349.570312 341.933594 349.765625 342.640625 349.417969 C 342.6875 349.394531 342.722656 349.347656 342.71875 349.308594 C 342.6875 348.765625 342.101562 348.617188 341.527344 348.570312 C 340.949219 348.53125 340.367188 348.609375 340.367188 348.609375 " fill-opacity="1" fill-rule="nonzero"/><path fill="#b3902f" d="M 342.964844 345.480469 C 342.964844 345.480469 343 345.570312 343.027344 345.71875 C 343.054688 345.871094 343.085938 346.078125 343.078125 346.3125 C 343.066406 346.550781 343.019531 346.820312 342.894531 347.09375 C 342.769531 347.367188 342.574219 347.640625 342.261719 347.890625 C 342.21875 347.925781 342.164062 347.933594 342.136719 347.914062 C 341.929688 347.757812 341.878906 347.519531 341.917969 347.257812 C 341.957031 346.992188 342.082031 346.707031 342.234375 346.441406 C 342.546875 345.914062 342.964844 345.480469 342.964844 345.480469 " fill-opacity="1" fill-rule="nonzero"/><path fill="#b3902f" d="M 339.714844 347.15625 C 339.714844 347.15625 339.757812 347.253906 339.851562 347.386719 C 339.941406 347.523438 340.085938 347.695312 340.277344 347.851562 C 340.464844 348.003906 340.699219 348.136719 340.976562 348.195312 C 341.257812 348.253906 341.582031 348.230469 341.945312 348.078125 C 341.992188 348.058594 342.03125 348.011719 342.03125 347.976562 C 342.019531 347.703125 341.875 347.523438 341.660156 347.398438 C 341.445312 347.277344 341.15625 347.210938 340.867188 347.175781 C 340.292969 347.105469 339.714844 347.15625 339.714844 347.15625 " fill-opacity="1" fill-rule="nonzero"/><path fill="#b3902f" d="M 342.425781 344.152344 C 342.425781 344.152344 342.546875 344.519531 342.503906 344.996094 C 342.472656 345.472656 342.28125 346.066406 341.628906 346.535156 C 341.585938 346.566406 341.53125 346.574219 341.503906 346.550781 C 341.117188 346.210938 341.328125 345.601562 341.664062 345.085938 C 341.992188 344.570312 342.425781 344.152344 342.425781 344.152344 " fill-opacity="1" fill-rule="nonzero"/><path fill="#b3902f" d="M 339.113281 345.6875 C 339.113281 345.6875 339.289062 346.074219 339.648438 346.402344 C 340.015625 346.722656 340.570312 346.972656 341.304688 346.707031 C 341.355469 346.6875 341.394531 346.644531 341.398438 346.609375 C 341.410156 346.0625 340.835938 345.855469 340.269531 345.753906 C 339.695312 345.660156 339.113281 345.6875 339.113281 345.6875 " fill-opacity="1" fill-rule="nonzero"/><path fill="#b3902f" d="M 341.921875 342.800781 C 341.921875 342.800781 342.035156 343.167969 341.980469 343.648438 C 341.921875 344.128906 341.722656 344.710938 341.054688 345.148438 C 341.011719 345.179688 340.953125 345.183594 340.929688 345.160156 C 340.738281 344.984375 340.699219 344.746094 340.757812 344.484375 C 340.816406 344.226562 340.964844 343.949219 341.136719 343.699219 C 341.480469 343.199219 341.921875 342.800781 341.921875 342.800781 " fill-opacity="1" fill-rule="nonzero"/><g clip-path="url(#1e3dda9ab5)"><path fill="#b3902f" d="M 338.5625 344.207031 C 338.5625 344.207031 338.726562 344.597656 339.078125 344.933594 C 339.425781 345.273438 339.980469 345.539062 340.726562 345.304688 C 340.777344 345.289062 340.816406 345.25 340.820312 345.210938 C 340.84375 344.671875 340.289062 344.433594 339.71875 344.316406 C 339.148438 344.199219 338.5625 344.207031 338.5625 344.207031 " fill-opacity="1" fill-rule="nonzero"/></g><path fill="#b3902f" d="M 339.648438 342.101562 C 339.648438 342.101562 339.496094 342.496094 339.515625 342.980469 C 339.53125 343.464844 339.742188 344.042969 340.441406 344.390625 C 340.488281 344.414062 340.546875 344.414062 340.574219 344.390625 C 340.964844 344.015625 340.730469 343.460938 340.402344 342.980469 C 340.074219 342.5 339.648438 342.101562 339.648438 342.101562 " fill-opacity="1" fill-rule="nonzero"/><path fill="#1c263b" d="M 358.359375 337.980469 L 358.980469 335.21875 L 350.210938 331.871094 L 341.445312 335.179688 L 342.074219 338.027344 L 340.378906 335.441406 C 340.378906 335.441406 341.511719 347.800781 350.210938 353.96875 C 358.914062 347.800781 360.042969 335.441406 360.042969 335.441406 L 358.359375 337.980469 " fill-opacity="1" fill-rule="nonzero"/><path fill="#eceff1" d="M 350.511719 348.101562 C 350.542969 348.078125 350.570312 348.046875 350.601562 348.027344 L 350.691406 347.953125 L 350.789062 347.890625 C 350.855469 347.851562 350.921875 347.8125 350.992188 347.78125 C 351.0625 347.746094 351.132812 347.71875 351.203125 347.691406 C 351.277344 347.664062 351.351562 347.640625 351.425781 347.621094 C 351.5 347.597656 351.574219 347.582031 351.648438 347.566406 C 351.726562 347.546875 351.800781 347.535156 351.878906 347.523438 C 352.183594 347.480469 352.492188 347.464844 352.800781 347.472656 C 352.957031 347.476562 353.113281 347.484375 353.265625 347.496094 C 353.34375 347.503906 353.421875 347.511719 353.496094 347.519531 C 353.574219 347.53125 353.652344 347.539062 353.722656 347.554688 L 353.871094 347.578125 L 353.875 347.425781 C 353.882812 347.0625 353.882812 346.699219 353.882812 346.339844 L 353.886719 345.796875 L 353.882812 345.253906 C 353.882812 344.890625 353.878906 344.527344 353.875 344.167969 C 353.867188 343.804688 353.863281 343.441406 353.851562 343.082031 L 353.847656 342.949219 L 353.726562 342.972656 C 353.519531 343.015625 353.308594 343.058594 353.101562 343.101562 L 352.472656 343.234375 C 352.058594 343.328125 351.640625 343.417969 351.226562 343.519531 C 351.652344 343.476562 352.074219 343.421875 352.496094 343.367188 L 353.132812 343.277344 C 353.300781 343.253906 353.46875 343.230469 353.636719 343.203125 C 353.625 343.523438 353.621094 343.84375 353.617188 344.167969 C 353.609375 344.527344 353.609375 344.890625 353.605469 345.253906 L 353.605469 346.339844 C 353.609375 346.652344 353.609375 346.964844 353.613281 347.277344 C 353.582031 347.273438 353.554688 347.269531 353.523438 347.269531 C 353.445312 347.261719 353.363281 347.253906 353.285156 347.25 C 353.125 347.242188 352.960938 347.238281 352.800781 347.242188 C 352.480469 347.25 352.160156 347.28125 351.84375 347.347656 C 351.765625 347.367188 351.6875 347.386719 351.609375 347.40625 C 351.535156 347.429688 351.457031 347.453125 351.378906 347.480469 C 351.304688 347.507812 351.230469 347.539062 351.15625 347.574219 C 351.085938 347.609375 351.011719 347.644531 350.941406 347.6875 C 350.871094 347.726562 350.804688 347.773438 350.742188 347.824219 L 350.648438 347.898438 L 350.5625 347.984375 C 350.53125 348.007812 350.507812 348.042969 350.480469 348.070312 C 350.453125 348.101562 350.429688 348.132812 350.40625 348.167969 C 350.359375 348.230469 350.320312 348.300781 350.28125 348.367188 C 350.332031 348.304688 350.375 348.242188 350.429688 348.183594 C 350.457031 348.15625 350.484375 348.128906 350.511719 348.101562 " fill-opacity="1" fill-rule="nonzero"/><path fill="#eceff1" d="M 354.492188 345.589844 L 354.050781 345.582031 L 354.050781 345.867188 L 354.359375 345.859375 L 354.402344 348.019531 C 354.242188 348 354.082031 347.988281 353.925781 347.976562 C 353.730469 347.964844 353.539062 347.957031 353.34375 347.957031 C 352.957031 347.953125 352.570312 347.96875 352.1875 348.019531 C 352.089844 348.03125 351.996094 348.046875 351.898438 348.066406 C 351.804688 348.082031 351.710938 348.105469 351.617188 348.125 L 351.476562 348.164062 L 351.335938 348.210938 C 351.246094 348.242188 351.15625 348.273438 351.066406 348.316406 C 351.023438 348.335938 350.980469 348.359375 350.9375 348.382812 C 350.894531 348.40625 350.851562 348.429688 350.8125 348.457031 C 350.730469 348.511719 350.65625 348.570312 350.585938 348.636719 C 350.554688 348.671875 350.515625 348.707031 350.488281 348.746094 C 350.460938 348.785156 350.429688 348.820312 350.402344 348.863281 C 350.378906 348.90625 350.355469 348.945312 350.335938 348.988281 L 350.28125 349.125 L 350.339844 348.992188 C 350.363281 348.949219 350.386719 348.910156 350.410156 348.867188 C 350.4375 348.828125 350.472656 348.792969 350.5 348.753906 C 350.53125 348.71875 350.566406 348.6875 350.601562 348.652344 C 350.671875 348.589844 350.75 348.535156 350.832031 348.484375 C 350.871094 348.460938 350.914062 348.441406 350.957031 348.417969 C 350.996094 348.394531 351.042969 348.375 351.085938 348.359375 C 351.171875 348.320312 351.265625 348.289062 351.355469 348.261719 L 351.492188 348.222656 L 351.632812 348.191406 C 351.722656 348.171875 351.816406 348.152344 351.914062 348.140625 C 352.007812 348.125 352.101562 348.117188 352.195312 348.105469 C 352.578125 348.070312 352.960938 348.070312 353.339844 348.085938 C 353.53125 348.097656 353.722656 348.109375 353.910156 348.128906 C 354.101562 348.148438 354.292969 348.171875 354.476562 348.203125 L 354.578125 348.21875 L 354.578125 348.117188 L 354.625 345.722656 L 354.625 345.59375 L 354.492188 345.589844 " fill-opacity="1" fill-rule="nonzero"/><path fill="#eceff1" d="M 349.910156 348.101562 C 349.882812 348.078125 349.855469 348.046875 349.824219 348.027344 L 349.730469 347.953125 L 349.636719 347.890625 C 349.570312 347.851562 349.503906 347.8125 349.433594 347.78125 C 349.363281 347.746094 349.292969 347.71875 349.21875 347.691406 C 349.148438 347.664062 349.074219 347.640625 349 347.621094 C 348.925781 347.597656 348.851562 347.582031 348.773438 347.566406 C 348.699219 347.546875 348.625 347.535156 348.546875 347.523438 C 348.242188 347.480469 347.933594 347.464844 347.621094 347.472656 C 347.46875 347.476562 347.3125 347.484375 347.160156 347.496094 C 347.082031 347.503906 347.003906 347.511719 346.925781 347.519531 C 346.851562 347.53125 346.773438 347.539062 346.703125 347.554688 L 346.550781 347.578125 L 346.550781 347.425781 C 346.542969 347.0625 346.542969 346.699219 346.539062 346.339844 L 346.539062 345.796875 L 346.542969 345.253906 C 346.542969 344.890625 346.542969 344.527344 346.550781 344.167969 C 346.554688 343.804688 346.5625 343.441406 346.574219 343.082031 L 346.574219 342.949219 L 346.699219 342.972656 C 346.90625 343.015625 347.117188 343.058594 347.324219 343.101562 L 347.949219 343.234375 C 348.367188 343.328125 348.785156 343.417969 349.199219 343.519531 C 348.773438 343.476562 348.351562 343.421875 347.925781 343.367188 L 347.292969 343.277344 C 347.125 343.253906 346.957031 343.230469 346.789062 343.203125 C 346.796875 343.523438 346.804688 343.84375 346.808594 344.167969 C 346.816406 344.527344 346.816406 344.890625 346.820312 345.253906 L 346.820312 346.339844 C 346.816406 346.652344 346.816406 346.964844 346.8125 347.277344 C 346.839844 347.273438 346.871094 347.269531 346.902344 347.269531 C 346.980469 347.261719 347.0625 347.253906 347.140625 347.25 C 347.300781 347.242188 347.460938 347.238281 347.621094 347.242188 C 347.941406 347.25 348.265625 347.28125 348.578125 347.347656 C 348.65625 347.367188 348.738281 347.386719 348.8125 347.40625 C 348.890625 347.429688 348.96875 347.453125 349.042969 347.480469 C 349.121094 347.507812 349.195312 347.539062 349.269531 347.574219 C 349.339844 347.609375 349.414062 347.644531 349.480469 347.6875 C 349.550781 347.726562 349.617188 347.773438 349.683594 347.824219 L 349.777344 347.898438 L 349.863281 347.984375 C 349.894531 348.007812 349.917969 348.042969 349.945312 348.070312 C 349.972656 348.101562 349.996094 348.132812 350.015625 348.167969 C 350.066406 348.230469 350.101562 348.300781 350.140625 348.367188 C 350.09375 348.304688 350.050781 348.242188 349.992188 348.183594 C 349.96875 348.15625 349.941406 348.128906 349.910156 348.101562 " fill-opacity="1" fill-rule="nonzero"/><path fill="#eceff1" d="M 345.933594 345.589844 L 346.375 345.582031 L 346.375 345.867188 L 346.066406 345.859375 L 346.023438 348.019531 C 346.183594 348 346.339844 347.988281 346.5 347.976562 C 346.695312 347.964844 346.886719 347.957031 347.082031 347.957031 C 347.46875 347.953125 347.855469 347.96875 348.238281 348.019531 C 348.335938 348.03125 348.429688 348.046875 348.523438 348.066406 C 348.621094 348.082031 348.714844 348.105469 348.808594 348.125 L 348.949219 348.164062 L 349.085938 348.210938 C 349.179688 348.242188 349.269531 348.273438 349.355469 348.316406 C 349.402344 348.335938 349.445312 348.359375 349.488281 348.382812 C 349.527344 348.40625 349.570312 348.429688 349.609375 348.457031 C 349.691406 348.511719 349.769531 348.570312 349.839844 348.636719 C 349.871094 348.671875 349.90625 348.707031 349.9375 348.746094 C 349.964844 348.785156 349.996094 348.820312 350.023438 348.863281 C 350.042969 348.90625 350.070312 348.945312 350.089844 348.988281 L 350.140625 349.125 L 350.085938 348.992188 C 350.0625 348.949219 350.035156 348.910156 350.011719 348.867188 C 349.984375 348.828125 349.953125 348.792969 349.925781 348.753906 C 349.894531 348.71875 349.855469 348.6875 349.824219 348.652344 C 349.753906 348.589844 349.675781 348.535156 349.59375 348.484375 C 349.554688 348.460938 349.511719 348.441406 349.46875 348.417969 C 349.425781 348.394531 349.382812 348.375 349.339844 348.359375 C 349.253906 348.320312 349.160156 348.289062 349.070312 348.261719 L 348.933594 348.222656 L 348.792969 348.191406 C 348.699219 348.171875 348.605469 348.152344 348.511719 348.140625 C 348.417969 348.125 348.324219 348.117188 348.226562 348.105469 C 347.847656 348.070312 347.464844 348.070312 347.085938 348.085938 C 346.894531 348.097656 346.703125 348.109375 346.511719 348.128906 C 346.324219 348.148438 346.132812 348.171875 345.949219 348.203125 L 345.847656 348.21875 L 345.847656 348.117188 L 345.800781 345.722656 L 345.796875 345.59375 L 345.933594 345.589844 " fill-opacity="1" fill-rule="nonzero"/><path fill="#eceff1" d="M 352.015625 340.273438 C 350.4375 340.273438 350.210938 341.054688 350.210938 341.054688 C 350.210938 341.054688 349.988281 340.273438 348.410156 340.273438 C 348.410156 340.273438 349.425781 342.394531 349.3125 344.070312 L 351.113281 344.070312 C 351 342.394531 352.015625 340.273438 352.015625 340.273438 " fill-opacity="1" fill-rule="nonzero"/><path fill="#eceff1" d="M 349.3125 339.324219 L 349.3125 340.046875 L 350.210938 340.550781 L 351.113281 340.046875 L 351.113281 339.324219 C 351.113281 339.324219 351.285156 339.203125 351.445312 339.015625 C 351.636719 338.792969 351.734375 338.507812 351.734375 338.214844 L 351.734375 336.976562 L 348.691406 336.976562 L 348.691406 338.257812 C 348.691406 338.488281 348.757812 338.714844 348.890625 338.902344 C 349.074219 339.15625 349.3125 339.324219 349.3125 339.324219 " fill-opacity="1" fill-rule="nonzero"/><path fill="#eceff1" d="M 350.210938 335.457031 L 347.539062 336.703125 L 348.148438 337.121094 L 348.148438 337.902344 C 348.128906 337.9375 348.117188 337.996094 348.117188 338.066406 C 348.117188 338.171875 348.148438 338.261719 348.191406 338.261719 C 348.234375 338.261719 348.269531 338.171875 348.269531 338.066406 C 348.269531 337.996094 348.253906 337.9375 348.234375 337.902344 L 348.234375 337.175781 L 348.371094 337.269531 C 348.824219 336.960938 350.210938 337.011719 350.210938 337.011719 C 350.214844 337.011719 351.597656 336.960938 352.054688 337.269531 L 352.886719 336.703125 L 350.210938 335.457031 " fill-opacity="1" fill-rule="nonzero"/><g fill="#000000" fill-opacity="1"><g transform="translate(327.430608, 328.580462)"><g><path d="M 3.140625 -6.734375 L 4.234375 -3.40625 C 4.347656 -3.050781 4.367188 -2.707031 4.296875 -2.375 C 4.234375 -2.039062 4.070312 -1.734375 3.8125 -1.453125 C 3.5625 -1.179688 3.203125 -0.96875 2.734375 -0.8125 C 2.046875 -0.582031 1.46875 -0.582031 1 -0.8125 C 0.53125 -1.050781 0.195312 -1.457031 0 -2.03125 L -1.078125 -5.34375 L 0 -5.703125 L 1.03125 -2.546875 C 1.175781 -2.117188 1.363281 -1.847656 1.59375 -1.734375 C 1.820312 -1.628906 2.101562 -1.628906 2.4375 -1.734375 C 2.675781 -1.816406 2.859375 -1.921875 2.984375 -2.046875 C 3.109375 -2.179688 3.175781 -2.347656 3.1875 -2.546875 C 3.195312 -2.742188 3.160156 -2.96875 3.078125 -3.21875 L 2.046875 -6.375 Z M 3.140625 -6.734375 "/></g></g></g><g fill="#000000" fill-opacity="1"><g transform="translate(332.683376, 326.855249)"><g><path d="M 0.921875 -5.78125 C 1.398438 -5.894531 1.804688 -5.929688 2.140625 -5.890625 C 2.472656 -5.847656 2.742188 -5.726562 2.953125 -5.53125 C 3.160156 -5.332031 3.304688 -5.054688 3.390625 -4.703125 C 3.453125 -4.460938 3.457031 -4.242188 3.40625 -4.046875 C 3.363281 -3.847656 3.28125 -3.664062 3.15625 -3.5 C 3.039062 -3.34375 2.910156 -3.207031 2.765625 -3.09375 L 4.859375 -1.171875 L 3.609375 -0.875 L 1.890625 -2.59375 L 1.296875 -2.4375 L 1.78125 -0.421875 L 0.65625 -0.15625 L -0.609375 -5.40625 Z M 1.0625 -4.84375 L 0.734375 -4.75 L 1.078125 -3.34375 L 1.421875 -3.4375 C 1.796875 -3.53125 2.046875 -3.65625 2.171875 -3.8125 C 2.296875 -3.96875 2.332031 -4.164062 2.28125 -4.40625 C 2.21875 -4.664062 2.085938 -4.820312 1.890625 -4.875 C 1.691406 -4.9375 1.414062 -4.925781 1.0625 -4.84375 Z M 1.0625 -4.84375 "/></g></g></g><g fill="#000000" fill-opacity="1"><g transform="translate(337.35972, 325.713434)"><g><path d="M 3.9375 -0.640625 L 3.34375 -1.84375 L 1.40625 -1.53125 L 1.21875 -0.203125 L 0 0 L 1.015625 -5.65625 L 2.40625 -5.890625 L 5.15625 -0.828125 Z M 2.90625 -2.75 L 2.328125 -3.921875 C 2.296875 -3.992188 2.25 -4.09375 2.1875 -4.21875 C 2.125 -4.34375 2.0625 -4.46875 2 -4.59375 C 1.9375 -4.726562 1.882812 -4.84375 1.84375 -4.9375 C 1.84375 -4.832031 1.828125 -4.703125 1.796875 -4.546875 C 1.773438 -4.398438 1.757812 -4.253906 1.75 -4.109375 C 1.738281 -3.972656 1.722656 -3.875 1.703125 -3.8125 L 1.515625 -2.515625 Z M 2.90625 -2.75 "/></g></g></g><g fill="#000000" fill-opacity="1"><g transform="translate(342.337525, 324.913246)"><g><path d="M 2.578125 -4.765625 C 2.359375 -4.742188 2.171875 -4.679688 2.015625 -4.578125 C 1.859375 -4.472656 1.726562 -4.335938 1.625 -4.171875 C 1.53125 -4.003906 1.460938 -3.804688 1.421875 -3.578125 C 1.378906 -3.347656 1.375 -3.09375 1.40625 -2.8125 C 1.4375 -2.4375 1.507812 -2.113281 1.625 -1.84375 C 1.738281 -1.582031 1.894531 -1.390625 2.09375 -1.265625 C 2.300781 -1.140625 2.5625 -1.09375 2.875 -1.125 C 3.09375 -1.144531 3.3125 -1.1875 3.53125 -1.25 C 3.757812 -1.320312 3.992188 -1.410156 4.234375 -1.515625 L 4.3125 -0.5625 C 4.082031 -0.445312 3.851562 -0.359375 3.625 -0.296875 C 3.394531 -0.234375 3.132812 -0.1875 2.84375 -0.15625 C 2.300781 -0.113281 1.84375 -0.191406 1.46875 -0.390625 C 1.09375 -0.585938 0.800781 -0.882812 0.59375 -1.28125 C 0.382812 -1.6875 0.257812 -2.160156 0.21875 -2.703125 C 0.175781 -3.117188 0.195312 -3.5 0.28125 -3.84375 C 0.363281 -4.195312 0.503906 -4.503906 0.703125 -4.765625 C 0.898438 -5.035156 1.144531 -5.25 1.4375 -5.40625 C 1.738281 -5.570312 2.09375 -5.671875 2.5 -5.703125 C 2.769531 -5.722656 3.039062 -5.707031 3.3125 -5.65625 C 3.59375 -5.613281 3.859375 -5.546875 4.109375 -5.453125 L 3.828125 -4.5 C 3.609375 -4.582031 3.394531 -4.648438 3.1875 -4.703125 C 2.976562 -4.753906 2.773438 -4.773438 2.578125 -4.765625 Z M 2.578125 -4.765625 "/></g></g></g><g fill="#000000" fill-opacity="1"><g transform="translate(346.963372, 324.512001)"><g><path d="M 3.984375 -0.03125 L 3.578125 -1.3125 L 1.609375 -1.296875 L 1.234375 -0.015625 L 0 0 L 1.875 -5.4375 L 3.28125 -5.453125 L 5.21875 -0.03125 Z M 3.296875 -2.28125 L 2.890625 -3.515625 C 2.867188 -3.597656 2.835938 -3.703125 2.796875 -3.828125 C 2.753906 -3.960938 2.710938 -4.097656 2.671875 -4.234375 C 2.628906 -4.378906 2.597656 -4.5 2.578125 -4.59375 C 2.554688 -4.5 2.519531 -4.375 2.46875 -4.21875 C 2.425781 -4.070312 2.382812 -3.929688 2.34375 -3.796875 C 2.3125 -3.660156 2.285156 -3.566406 2.265625 -3.515625 L 1.890625 -2.265625 Z M 3.296875 -2.28125 "/></g></g></g><g fill="#000000" fill-opacity="1"><g transform="translate(351.991946, 324.460083)"><g><path d="M 5.34375 -2.359375 C 5.300781 -1.753906 5.144531 -1.253906 4.875 -0.859375 C 4.613281 -0.472656 4.253906 -0.191406 3.796875 -0.015625 C 3.347656 0.148438 2.816406 0.210938 2.203125 0.171875 L 0.671875 0.046875 L 1.078125 -5.34375 L 2.78125 -5.21875 C 3.332031 -5.175781 3.804688 -5.035156 4.203125 -4.796875 C 4.609375 -4.566406 4.910156 -4.242188 5.109375 -3.828125 C 5.304688 -3.421875 5.382812 -2.929688 5.34375 -2.359375 Z M 4.15625 -2.421875 C 4.1875 -2.804688 4.15625 -3.132812 4.0625 -3.40625 C 3.96875 -3.675781 3.804688 -3.878906 3.578125 -4.015625 C 3.359375 -4.148438 3.085938 -4.226562 2.765625 -4.25 L 2.15625 -4.296875 L 1.90625 -0.8125 L 2.390625 -0.78125 C 2.941406 -0.738281 3.363281 -0.851562 3.65625 -1.125 C 3.945312 -1.40625 4.113281 -1.835938 4.15625 -2.421875 Z M 4.15625 -2.421875 "/></g></g></g><g fill="#000000" fill-opacity="1"><g transform="translate(357.400637, 324.88504)"><g><path d="M 3.734375 0.5625 L 0.671875 0.09375 L 1.484375 -5.25 L 4.546875 -4.78125 L 4.40625 -3.84375 L 2.484375 -4.140625 L 2.296875 -2.984375 L 4.09375 -2.703125 L 3.953125 -1.765625 L 2.15625 -2.046875 L 1.953125 -0.671875 L 3.875 -0.375 Z M 3.734375 0.5625 "/></g></g></g><g fill="#000000" fill-opacity="1"><g transform="translate(361.404728, 325.416678)"><g><path d="M 2.890625 0.6875 L 2.609375 -3.71875 L 2.5625 -3.734375 C 2.550781 -3.628906 2.523438 -3.476562 2.484375 -3.28125 C 2.453125 -3.082031 2.414062 -2.867188 2.375 -2.640625 C 2.332031 -2.421875 2.289062 -2.226562 2.25 -2.0625 L 1.65625 0.390625 L 0.65625 0.15625 L 1.921875 -5.09375 L 3.4375 -4.734375 L 3.71875 -0.40625 L 3.734375 -0.40625 L 6.015625 -4.109375 L 7.546875 -3.734375 L 6.28125 1.515625 L 5.234375 1.265625 L 5.828125 -1.21875 C 5.867188 -1.382812 5.914062 -1.570312 5.96875 -1.78125 C 6.03125 -2 6.085938 -2.207031 6.140625 -2.40625 C 6.203125 -2.601562 6.242188 -2.75 6.265625 -2.84375 L 6.234375 -2.84375 L 3.90625 0.9375 Z M 2.890625 0.6875 "/></g></g></g><g fill="#000000" fill-opacity="1"><g transform="translate(368.125183, 327.078823)"><g><path d="M 3.25 -2.25 L 5.03125 -4.015625 L 6.203125 -3.609375 L 3.4375 -1.046875 L 2.765625 0.9375 L 1.703125 0.578125 L 2.359375 -1.375 L 1.734375 -5.125 L 2.90625 -4.734375 Z M 3.25 -2.25 "/></g></g></g></svg>