<svg xmlns="http://www.w3.org/2000/svg" xmlns:xlink="http://www.w3.org/1999/xlink" width="500" zoomAndPan="magnify" viewBox="0 0 375 374.999991" height="500" preserveAspectRatio="xMidYMid meet" version="1.0"><defs><clipPath id="1c237995ec"><path d="M 71.222656 7 L 318.722656 7 L 318.722656 369.167969 L 71.222656 369.167969 Z M 71.222656 7 " clip-rule="nonzero"/></clipPath></defs><rect x="-37.5" width="450" fill="#ffffff" y="-37.499999" height="449.999989" fill-opacity="1"/><rect x="-37.5" width="450" fill="#ffffff" y="-37.499999" height="449.999989" fill-opacity="1"/><g clip-path="url(#1c237995ec)"><path fill="#000000" d="M 104.941406 359.613281 L 284.988281 359.613281 L 284.988281 369.164062 L 104.941406 369.164062 Z M 194.964844 254.886719 C 217.511719 254.886719 235.789062 273.183594 235.789062 295.753906 C 235.789062 318.324219 217.511719 336.617188 194.964844 336.617188 C 172.417969 336.617188 154.136719 318.324219 154.136719 295.753906 C 154.136719 273.183594 172.417969 254.886719 194.964844 254.886719 Z M 210.519531 279.171875 L 227.085938 295.753906 L 210.519531 312.332031 L 205.722656 307.53125 L 217.492188 295.753906 L 205.722656 283.976562 Z M 184.207031 283.976562 L 172.441406 295.753906 L 184.207031 307.53125 L 179.410156 312.332031 L 162.847656 295.753906 L 179.410156 279.171875 Z M 204.855469 279.714844 L 191.386719 314.265625 L 185.074219 311.800781 L 198.546875 277.25 Z M 255.066406 123.113281 L 247.765625 123.113281 C 247.601562 140.867188 238.578125 156.59375 224.9375 166.074219 L 231.269531 176.933594 L 196.757812 201.464844 L 220.679688 230.804688 L 246.132812 182.488281 C 286.242188 183.585938 318.714844 216.761719 318.714844 257.164062 L 318.714844 308.757812 L 290.507812 308.757812 L 280.121094 355.460938 L 109.796875 355.460938 L 99.414062 308.757812 L 71.210938 308.757812 L 71.210938 257.164062 C 71.210938 216.761719 103.683594 183.585938 143.796875 182.488281 L 169.246094 230.804688 L 193.171875 201.464844 L 158.660156 176.933594 L 164.988281 166.074219 C 151.371094 156.601562 142.402344 140.894531 142.160156 123.113281 L 134.863281 123.113281 C 121.6875 123.113281 115.273438 107.128906 124.464844 97.929688 L 125.164062 51.625 C 125.355469 38.746094 161.65625 15.613281 173.253906 12.042969 C 192.386719 6.15625 252.929688 6.671875 251.519531 7.746094 C 242.992188 14.257812 239.722656 21.390625 242.433594 29.195312 C 244.125 34.070312 258.96875 37.523438 263.226562 42.519531 C 268.785156 49.042969 267.191406 88.878906 267.316406 99.699219 C 274.148438 108.121094 267.234375 123.113281 255.066406 123.113281 Z M 283.382812 245.113281 L 106.546875 245.113281 C 100.992188 245.113281 96.414062 249.527344 96.226562 255.074219 L 116.707031 346.789062 L 273.222656 346.789062 L 293.703125 255.074219 C 293.515625 249.527344 288.933594 245.113281 283.382812 245.113281 Z M 283.382812 245.113281 " fill-opacity="1" fill-rule="evenodd"/></g></svg>